SplineFontDB: 3.2
FontName: linjaEnkipona
FullName: linja Enki pona
FamilyName: linja Enki pona
Weight: Regular
Copyright: Copyright (c) 2023, kije Enki
Version: 1
DefaultBaseFilename: linjaEnki1
ItalicAngle: 0
UnderlinePosition: -100
UnderlineWidth: 50
Ascent: 800
Descent: 200
InvalidEm: 0
LayerCount: 2
Layer: 0 0 "Background" 1
Layer: 1 0 "Foreground" 0
XUID: [1021 547 -761801329 11503]
FSType: 0
OS2Version: 0
OS2_WeightWidthSlopeOnly: 0
OS2_UseTypoMetrics: 1
CreationTime: 1697305622
ModificationTime: 1704734143
PfmFamily: 17
TTFWeight: 400
TTFWidth: 5
LineGap: 90
VLineGap: 0
OS2TypoAscent: 0
OS2TypoAOffset: 1
OS2TypoDescent: 0
OS2TypoDOffset: 1
OS2TypoLinegap: 90
OS2WinAscent: 0
OS2WinAOffset: 1
OS2WinDescent: 0
OS2WinDOffset: 1
HheadAscent: 0
HheadAOffset: 1
HheadDescent: 0
HheadDOffset: 1
OS2Vendor: 'PfEd'
MarkAttachClasses: 1
DEI: 91125

StartChar: exclam
Encoding: 33 33 0
Width: 153
Flags: W
HStem: -12 92<48.9067 91.5979>
VStem: 38 76<10.533 70.6094> 50 50<187.641 580.158> 76 26<574.998 639.392>
LayerCount: 2
Fore
SplineSet
38 19 m 0xc0
 38 20 40 80 86 80 c 0
 105 80 114 74 114 61 c 0
 114 48 88 -12 65 -12 c 0
 55 -12 38 -4 38 19 c 0xc0
102 578 m 0x90
 102 532 98 457 98 443 c 0
 98 419 100 406 100 372 c 0
 100 364 99 355 99 345 c 0
 97 194 98 186 85 186 c 2
 79 186 l 2
 57 186 50 219 50 333 c 2
 50 364 l 1xa0
 51 526 60 581 76 617 c 0
 83 633 89 642 93 642 c 0
 100 642 102 621 102 578 c 0x90
EndSplineSet
EndChar

StartChar: quotedbl
Encoding: 34 34 1
Width: 249
Flags: W
HStem: 521 269
VStem: 41 52<540.206 769.408> 41 42<552.234 789.978> 159 46<527.484 785.1>
LayerCount: 2
Fore
SplineSet
41 750 m 0xd0
 41 783 41 790 60 790 c 0
 74 790 77 790 83 699 c 0xb0
 86 656 89 589 91 569 c 0
 92 562 93 557 93 552 c 0
 93 536 89 527 82 527 c 0
 77 527 71 531 64 539 c 0
 41 562 41 736 41 750 c 0xd0
167 790 m 0
 187 790 205 790 205 573 c 0
 205 529 202 521 194 521 c 0
 173 521 167 550 161 675 c 0
 159 710 159 735 159 752 c 0
 159 782 161 790 167 790 c 0
EndSplineSet
EndChar

StartChar: numbersign
Encoding: 35 35 2
Width: 721
Flags: W
HStem: 154 43<94.5 133> 165 32<36.1536 117 220.007 337.874> 178 42<410.875 608.836> 406 55<92.7632 218.93> 427 36<331.452 418.118>
VStem: 64 267<414 489> 112 56<0.267578 153.516> 306 73<552.539 606.048> 320 56<24.1407 159.308> 445 72<508 586.684> 445 46<469.416 517>
LayerCount: 2
Fore
SplineSet
379 622 m 0x91
 379 592 331 500 331 478 c 0
 331 464 335 463 380 463 c 0
 432 463 445 471 445 503 c 0x0c20
 445 516 471 607 482 634 c 0
 484 639 490 641 496 641 c 0
 509 641 517 636 517 623 c 0x0840
 517 601 503 577 496 517 c 2
 491 469 l 1
 569 474 l 2
 594 475 614 476 630 476 c 0
 672 476 687 470 687 458 c 0
 687 441 678 441 599 436 c 0
 488 430 472 425 460 391 c 0
 451 364 424 267 415 228 c 2
 410 207 l 1
 466 211 l 2
 538 217 576 220 595 220 c 0
 610 220 613 218 613 215 c 0
 613 212 609 206 609 199 c 0
 609 187 603 185 520 184 c 0
 497 184 495 183 495 182 c 0
 495 181 498 179 474 178 c 2x2820
 393 174 l 1
 383 135 l 2
 379 119 376 97 376 78 c 0
 376 47 378 39 378 39 c 0
 378 7 332 24 332 24 c 0
 324 27 320 30 320 42 c 0
 320 68 338 129 338 155 c 0
 338 163 338 165 289 165 c 0x40a0
 249 165 197 162 192 159 c 0
 183 152 169 90 168 56 c 0
 167 20 158 -2 142 -2 c 0
 125 -2 112 24 112 49 c 0
 112 82 127 79 130 123 c 1
 133 154 l 1x82a0
 89 162 l 2
 52 169 33 177 33 188 c 0
 33 195 33 197 75 197 c 2x42a0
 98 197 l 1
 160 195 l 1
 176 232 l 1
 237 368 254 409 254 418 c 0
 254 425 230 425 222 425 c 0
 156 425 123 406 87 406 c 0
 72 406 64 410 64 418 c 0x94
 64 436 129 455 208 461 c 0
 286 466 282 463 306 548 c 0
 323 610 340 635 364 635 c 0
 374 635 379 632 379 622 c 0x91
419 409 m 0
 419 418 419 427 360 427 c 0
 337 427 307 427 297 393 c 0
 281 344 220 243 220 213 c 0
 220 200 229 197 247 197 c 0x48
 255 197 264 198 275 199 c 0
 339 205 363 213 369 233 c 0
 370 235 419 388 419 409 c 0
EndSplineSet
EndChar

StartChar: dollar
Encoding: 36 36 3
Width: 451
Flags: W
HStem: 8 40<106.875 178.34>
VStem: 35 50<446.998 532.171> 189 67<-139.098 8 59.3227 92.349 181 268.988> 203 66<383.103 555.913> 234 66<645.242 752.031> 289 55<181.184 268.625>
LayerCount: 2
Fore
SplineSet
64 123 m 4xd4
 97 116 98 48 134 48 c 0
 141 48 151 51 161 56 c 4
 190 71 189 72 189 192 c 6
 189 313 l 5xe4
 145 342 l 6
 72 389 35 441 35 496 c 4
 35 538 39 546 75 574 c 4
 144 628 234 638 234 669 c 4
 234 684 234 684 273 827 c 4
 277 841 285 847 295 847 c 0
 312 847 333 827 333 799 c 4
 333 762 300 721 300 677 c 4xc8
 300 649 305 641 336 627 c 4
 372 611 417 572 417 556 c 0
 417 548 401 531 379 531 c 0
 345 531 324 561 302 561 c 0
 280 561 273 526 269 438 c 6
 265 339 l 5
 304 309 l 6
 341 281 344 276 344 227 c 4
 344 182 339 168 306 131 c 4
 266 86 250 40 250 -27 c 0
 250 -49 253 -98 253 -99 c 0
 253 -125 248 -132 232 -141 c 4
 222 -146 214 -149 208 -149 c 0
 191 -149 186 -125 185 -64 c 6
 184 8 l 5
 137 8 l 6
 72 8 46 31 46 85 c 4
 46 115 49 124 60 124 c 0
 61 124 62 123 64 123 c 4xd4
187 383 m 0
 202 383 203 525 203 526 c 0xd0
 203 566 199 584 185 584 c 0
 173 584 154 571 126 549 c 4
 98 527 85 511 85 493 c 0
 85 450 169 383 187 383 c 0
289 221 m 0xe4
 289 237 280 269 270 269 c 0
 262 269 256 253 256 224 c 4
 256 194 260 181 268 181 c 2
 270 181 l 5
 281 184 289 201 289 221 c 0xe4
EndSplineSet
EndChar

StartChar: slash
Encoding: 47 47 6
Width: 575
Flags: W
LayerCount: 2
Fore
SplineSet
47 -106 m 0
 47 -106 33 -106 33 -85 c 0
 33 -29 139 95 161 133 c 0
 168 145 189 180 207 209 c 0
 296 353 445 649 483 693 c 0
 497 709 510 718 521 718 c 0
 537 718 541 700 541 694 c 0
 541 683 533 669 518 655 c 0
 460 601 381 370 156 47 c 0
 131 11 100 -39 88 -61 c 0
 73 -90 58 -106 47 -106 c 0
EndSplineSet
EndChar

StartChar: percent
Encoding: 37 37 7
Width: 817
Flags: W
HStem: 5 49<485.217 567.537> 270 47<576.543 667.87> 345 55<91.5805 200.234> 572 49<340.723 520.553> 601 43<142.827 244> 611 75<656.879 722.839>
VStem: 35 51<404.151 525.684> 233 105<521.485 570.875> 310 53<465.932 514.221> 432 50<55.5479 175.082> 672 50<163.445 267.18>
LayerCount: 2
Fore
SplineSet
514 5 m 0xe260
 493 5 432 20 432 89 c 0
 432 113 438 142 452 178 c 0
 482 257 497 275 548 300 c 0
 573 312 599 317 622 317 c 0
 678 317 722 286 722 234 c 0
 722 132 585 5 514 5 c 0xe260
672 227 m 0
 672 262 646 270 642 270 c 0
 626 270 611 248 585 248 c 0
 583 248 581 248 579 249 c 1
 574 249 l 2
 535 249 482 153 482 95 c 0
 482 68 494 54 514 54 c 0
 566 54 672 154 672 227 c 0
213 644 m 0xeae0
 275 644 292 621 366 621 c 0xf2e0
 381 621 398 623 418 624 c 0
 573 635 596 642 625 681 c 0
 636 696 646 703 656 703 c 0
 675 703 678 686 695 686 c 0
 715 686 740 701 761 701 c 0
 776 701 783 693 783 676 c 0
 783 644 657 611 656 611 c 0xe6e0
 638 611 605 577 568 519 c 0
 505 421 420 357 379 308 c 0
 317 235 263 145 195 64 c 0
 122 -24 105 -76 80 -76 c 0
 72 -76 68 -68 68 -52 c 0
 68 -28 74 -18 144 73 c 0
 146 75 258 228 302 285 c 0
 415 430 538 560 538 576 c 0
 538 579 531 580 522 580 c 0
 491 580 469 568 411 568 c 0
 369 568 382 572 359 572 c 0
 344 572 338 568 338 559 c 0xf360
 338 544 363 518 363 485 c 0
 363 464 353 449 331 438 c 0
 314 429 268 404 231 383 c 0
 186 357 157 345 132 345 c 0
 110 345 91 355 69 375 c 0
 40 401 35 412 35 444 c 0
 35 473 42 522 104 598 c 0
 123 622 141 644 213 644 c 0xeae0
233 540 m 0xeb60
 233 541 210 601 176 601 c 0
 143 601 86 509 86 456 c 0
 86 418 98 400 127 400 c 0
 151 400 185 412 235 437 c 0
 293 466 310 477 310 491 c 0xeae0
 310 533 246 501 233 540 c 0xeb60
EndSplineSet
EndChar

StartChar: ampersand
Encoding: 38 38 8
Width: 651
Flags: W
HStem: -6 45<85.5 132> 607 47<260.913 427.604>
VStem: 122 56<312.688 527.877> 432 63<543.552 608>
LayerCount: 2
Fore
SplineSet
341 58 m 0
 314 58 182 -6 110 -6 c 0
 93 -6 78 -4 61 1 c 0
 40 7 34 10 34 28 c 0
 34 82 55 125 93 183 c 2
 146 263 l 1
 134 322 l 2
 126 362 122 396 122 426 c 0
 122 472 131 508 152 543 c 0
 182 594 207 615 270 640 c 0
 293 649 308 654 329 654 c 0
 346 654 367 651 397 645 c 0
 468 632 495 619 495 597 c 0
 495 562 426 467 370 419 c 0
 299 359 221 271 221 251 c 0
 221 226 259 178 302 148 c 2
 341 121 l 1
 470 183 l 2
 544 219 599 250 600 258 c 0
 602 271 616 240 616 223 c 0
 616 220 616 218 615 216 c 0
 608 205 450 125 412 101 c 2
 382 83 l 1
 449 34 l 2
 486 7 523 -26 540 -34 c 0
 559 -43 568 -57 568 -69 c 0
 568 -78 562 -86 551 -90 c 0
 550 -90 549 -91 547 -91 c 0
 507 -91 363 58 341 58 c 0
432 580 m 0
 432 587 393 607 345 607 c 0
 298 607 253 588 215 552 c 0
 190 528 178 516 178 420 c 0
 178 392 180 365 183 350 c 2
 190 312 l 1
 212 332 l 2
 329 439 432 556 432 580 c 0
288 95 m 0
 288 102 188 178 188 188 c 0
 188 192 183 195 176 195 c 0
 162 195 102 101 92 64 c 2
 85 39 l 1
 132 44 l 2
 177 49 288 86 288 95 c 0
EndSplineSet
EndChar

StartChar: quotesingle
Encoding: 39 39 9
Width: 128
Flags: W
HStem: 491 273<46.3524 76.1632>
VStem: 43 43<492.073 763.158>
LayerCount: 2
Fore
SplineSet
59 491 m 2
 46 491 43 506 43 626 c 0
 43 689 44 756 46 762 c 0
 46 763 51 764 57 764 c 0
 81 764 86 748 86 669 c 2
 86 657 l 1
 85 540 79 494 62 491 c 1
 59 491 l 2
EndSplineSet
EndChar

StartChar: parenleft
Encoding: 40 40 10
Width: 362
Flags: W
VStem: 39 43<96.9949 392.771>
LayerCount: 2
Fore
SplineSet
231 774 m 0
 246 801 251 804 276 818 c 1
 277 818 l 2
 285 818 329 794 329 789 c 0
 329 785 318 777 304 770 c 0
 288 762 259 731 224 683 c 0
 174 614 82 450 82 187 c 0
 82 151 87 155 94 127 c 0
 124 5 180 43 180 12 c 0
 180 4 174 -3 160 -5 c 0
 157 -5 153 -6 150 -6 c 0
 121 -6 99 14 77 58 c 0
 50 113 39 131 39 186 c 0
 39 253 47 520 174 690 c 0
 196 720 222 758 231 774 c 0
EndSplineSet
EndChar

StartChar: parenright
Encoding: 41 41 11
Width: 308
Flags: W
VStem: 217 54<305.229 577.924>
LayerCount: 2
Fore
SplineSet
271 455 m 0
 271 391 248 320 248 290 c 0
 248 244 186 106 143 56 c 0
 106 14 60 -25 47 -25 c 0
 38 -25 33 -22 33 -16 c 0
 33 -8 42 5 59 23 c 0
 94 59 138 131 166 197 c 0
 190 253 217 393 217 459 c 0
 217 547 169 681 108 761 c 0
 92 785 121 797 133 795 c 0
 148 792 211 702 223 664 c 0
 257 558 271 505 271 455 c 0
EndSplineSet
EndChar

StartChar: asterisk
Encoding: 42 42 12
Width: 362
Flags: W
HStem: 582 45<217.471 321.273> 679 20G<62.5 94>
VStem: 142 63<717.001 761.463>
LayerCount: 2
Fore
SplineSet
142 722 m 2
 142 755 147 767 163 767 c 0
 182 767 207 750 207 732 c 0
 207 728 205 725 205 721 c 0
 205 719 206 717 208 717 c 0
 220 717 274 755 294 755 c 0
 301 755 308 748 308 745 c 0
 308 729 217 668 217 652 c 0
 217 637 243 627 285 627 c 0
 317 627 323 625 323 612 c 0
 323 593 299 582 259 582 c 0
 230 582 226 579 217 560 c 0
 211 547 202 538 196 538 c 0
 182 538 168 561 168 585 c 0
 168 595 165 606 161 608 c 1
 160 608 l 2
 151 608 109 566 80 529 c 0
 74 522 64 516 58 516 c 0
 50 516 46 519 46 526 c 0
 46 555 115 618 115 640 c 0
 115 652 39 674 39 687 c 0
 39 692 50 699 75 699 c 0
 113 699 129 679 139 679 c 0
 141 679 142 690 142 705 c 2
 142 722 l 2
EndSplineSet
EndChar

StartChar: plus
Encoding: 43 43 13
Width: 552
Flags: W
HStem: 322 59<300.131 465.168>
VStem: 243 49<134.458 321.506> 256 58<497.516 595.848> 259 41<384.009 538.13>
LayerCount: 2
Fore
SplineSet
259 496 m 0x90
 259 529 256 520 256 539 c 0
 256 574 275 614 303 595 c 0
 311 590 314 585 314 567 c 0xa0
 314 525 300 477 300 393 c 2
 300 385 l 1x90
 302 383 355 381 400 381 c 2
 423 381 l 2
 433 381 443 382 451 382 c 0
 497 382 517 378 517 369 c 0
 517 365 513 361 507 355 c 0
 486 337 392 346 296 322 c 1
 295 312 292 268 292 223 c 0
 291 140 290 136 273 134 c 1
 269 134 l 2
 248 134 243 158 243 244 c 1xc0
 242 322 l 1
 184 317 l 2
 133 313 82 312 71 308 c 0
 64 306 58 304 53 304 c 0
 43 304 37 309 37 316 c 0
 37 324 44 334 58 344 c 0
 96 370 213 355 241 376 c 0
 250 384 259 455 259 496 c 0x90
EndSplineSet
EndChar

StartChar: comma
Encoding: 44 44 14
Width: 186
Flags: W
HStem: -177 243
VStem: 39 32<-175.324 -124.773> 74 68<-45.29 48.7759>
LayerCount: 2
Fore
SplineSet
142 34 m 0
 142 -23 71 -147 71 -163 c 0
 71 -169 56 -177 46 -177 c 0
 39 -177 39 -174 39 -172 c 0
 39 -152 69 -41 74 -10 c 0
 74 -8 91 66 117 66 c 0
 118 66 142 66 142 34 c 0
EndSplineSet
EndChar

StartChar: hyphen
Encoding: 45 45 15
Width: 514
Flags: W
HStem: 301 52<45.1367 460.56>
LayerCount: 2
Fore
SplineSet
80 301 m 0
 70 301 44 303 44 325 c 0
 44 334 50 343 62 347 c 4
 71 350 152 353 247 353 c 2
 268 353 l 5
 423 352 472 349 472 336 c 0
 472 333 469 329 463 324 c 4
 449 311 402 304 326 304 c 0
 325 304 219 307 185 307 c 0
 122 307 81 301 80 301 c 0
EndSplineSet
EndChar

StartChar: period
Encoding: 46 46 16
Width: 148
Flags: W
HStem: 4 66<48.0491 92.0966>
VStem: 48 56<20.0276 65.1028>
LayerCount: 2
Fore
SplineSet
41 20 m 0
 41 20 42 58 48 67 c 4
 49 69 53 70 58 70 c 0
 74 70 104 59 104 50 c 4
 104 41 90 19 77 8 c 4
 64 -3 64 -3 52 4 c 4
 44 9 41 10 41 20 c 0
EndSplineSet
EndChar

StartChar: zero
Encoding: 48 48 17
Width: 430
Flags: W
HStem: 1 48<129.618 188.924> 593 54<199.609 324.752>
VStem: 41 47<109.387 491.312> 351 42<356.001 567.183>
LayerCount: 2
Fore
SplineSet
272 647 m 2
 322 647 393 591 393 524 c 0
 393 476 376 387 371 348 c 0
 352 194 253 1 158 1 c 0
 137 1 106 12 76 64 c 0
 58 95 55 109 47 189 c 0
 43 226 41 268 41 310 c 0
 41 366 45 422 56 471 c 0
 78 566 87 585 113 585 c 2
 119 585 l 2
 121 585 123 584 125 584 c 0
 154 584 159 609 210 630 c 0
 229 638 253 646 266 647 c 1
 272 647 l 2
351 505 m 0
 351 560 337 566 311 579 c 0
 290 589 267 593 247 593 c 0
 205 593 170 574 169 545 c 0
 168 529 169 532 137 522 c 0
 123 517 88 506 88 292 c 0
 88 226 92 164 101 135 c 0
 120 74 140 49 165 49 c 0
 170 49 175 50 180 52 c 0
 194 57 258 134 258 145 c 0
 258 149 276 167 285 193 c 0
 318 287 351 430 351 505 c 0
EndSplineSet
EndChar

StartChar: one
Encoding: 49 49 18
Width: 359
Flags: W
VStem: 203 45<1.99375 261.485> 260 25<403.296 446.281> 279 45<577.09 636.564>
LayerCount: 2
Fore
SplineSet
248 62 m 0xc0
 248 16 257 17 257 3 c 0
 257 -11 228 -7 218 0 c 0
 208 7 203 33 203 65 c 0
 203 86 205 110 210 132 c 0
 217 166 219 271 254 433 c 0
 258 451 260 468 260 478 c 0xc0
 260 480 260 487 258 487 c 0
 254 487 232 462 210 430 c 0
 169 371 89 296 64 294 c 1
 62 294 l 2
 49 294 35 309 35 320 c 0
 35 324 35 329 81 354 c 0
 110 370 132 391 165 436 c 0
 216 504 274 598 279 620 c 0
 281 631 295 637 306 637 c 0
 312 637 324 635 324 623 c 0xa0
 324 595 285 376 285 374 c 0
 261 210 248 115 248 62 c 0xc0
EndSplineSet
EndChar

StartChar: two
Encoding: 50 50 19
Width: 539
Flags: W
HStem: 10 44<213.896 382.001> 46 51<116.514 183.5> 594 43<278.875 403.224>
VStem: 133 60<478.094 533.641> 406 40<473.676 588.356>
LayerCount: 2
Fore
SplineSet
133 511 m 0x78
 133 518 254 637 362 637 c 0
 365 637 446 636 446 564 c 0
 446 562 445 487 405 375 c 0
 388 327 267 163 245 140 c 2
 245 140 203 98 203 89 c 0
 203 88 219 54 284 54 c 0
 360 54 450 96 489 96 c 0
 500 96 505 92 505 85 c 0
 505 76 350 10 277 10 c 0xb8
 216 10 181 46 159 46 c 0
 133 46 65 -21 40 -21 c 2
 38 -21 l 1
 34 -19 33 -14 33 -6 c 0
 33 7 38 27 48 43 c 0
 60 62 119 97 139 97 c 2
 140 97 l 2
 164 97 198 126 242 184 c 0
 318 286 406 493 406 559 c 0
 406 574 398 594 358 594 c 0
 324 594 277 578 227 545 c 0
 200 527 193 521 193 506 c 0
 193 490 196 485 196 476 c 0
 196 466 192 463 184 463 c 2
 181 463 l 1
 165 464 133 496 133 511 c 0x78
EndSplineSet
EndChar

StartChar: three
Encoding: 51 51 20
Width: 476
Flags: W
HStem: -14 43<161.895 241.567> 375 42<303.524 358.155> 584 47<117.468 294.227>
VStem: 259 43<420.53 472.908> 309 49<494.374 567.062> 391 49<172.587 311.969>
LayerCount: 2
Fore
SplineSet
34 554 m 0
 34 581 118 631 200 631 c 0
 262 631 333 611 349 585 c 0
 355 575 358 564 358 553 c 0
 358 511 302 452 302 427 c 0
 302 421 318 417 332 417 c 0
 382 415 440 283 440 228 c 0
 440 195 402 124 374 98 c 0
 342 67 262 5 242 -6 c 0
 233 -11 209 -14 184 -14 c 2
 176 -14 l 1
 120 -12 98 5 98 48 c 2
 98 53 l 1
 99 77 106 89 116 89 c 0
 143 89 161 29 199 29 c 0
 251 29 374 164 388 204 c 0
 390 210 391 220 391 231 c 0
 391 273 378 341 357 356 c 0
 339 368 323 375 306 375 c 0
 253 375 211 316 185 316 c 0
 180 316 168 325 168 336 c 0
 168 361 259 434 259 447 c 0
 259 460 309 511 309 539 c 0
 309 567 256 584 214 584 c 0
 117 584 79 530 54 530 c 0
 46 530 34 543 34 554 c 0
EndSplineSet
EndChar

StartChar: four
Encoding: 52 52 21
Width: 464
Flags: W
HStem: 298 45<92.0007 200.093> 306 37<94.2681 261.48 331.292 426.809>
VStem: 38 54<343.154 451.128> 97 45<527.793 648.774> 274 50<29.917 300.6 456.541 630.951>
LayerCount: 2
Fore
SplineSet
71 298 m 2xb8
 50 298 38 298 38 333 c 0
 38 389 90 557 97 607 c 0
 100 626 106 653 130 650 c 0
 138 649 142 641 142 627 c 0
 142 578 92 463 92 355 c 0
 92 351 93 349 93 347 c 0
 93 344 106 343 125 343 c 0xb8
 171 343 252 350 262 357 c 0
 271 364 266 513 279 599 c 0
 283 623 288 633 299 635 c 0
 307 636 317 634 321 631 c 0
 322 630 323 626 323 618 c 0
 323 576 309 529 309 453 c 0
 309 390 320 343 340 343 c 2
 341 343 l 2
 343 343 345 344 347 344 c 0
 356 344 430 339 430 324 c 0
 430 322 428 320 427 317 c 0
 423 309 414 307 385 307 c 2
 347 307 l 2
 337 307 330 303 324 246 c 0
 310 120 313 -16 294 -16 c 0
 279 -16 274 3 274 29 c 2
 274 223 l 2
 274 240 278 282 278 283 c 0
 278 299 240 306 202 306 c 0x78
 161 306 141 298 84 298 c 2
 71 298 l 2xb8
EndSplineSet
EndChar

StartChar: five
Encoding: 53 53 22
Width: 473
Flags: W
HStem: 2 33<87.2317 154.977> 372 44<123.197 221.52>
VStem: 60 45<396 545.561> 311 47<132.659 251.361>
LayerCount: 2
Fore
SplineSet
141 624 m 2
 191 624 323 651 383 651 c 2
 384 651 l 2
 422 651 439 646 439 636 c 0
 439 624 417 619 272 601 c 0
 206 593 128 589 115 559 c 0
 110 549 105 462 105 432 c 2
 105 423 l 1
 108 396 l 1
 143 409 l 2
 157 414 172 416 185 416 c 0
 216 416 243 403 259 377 c 0
 274 354 358 238 358 185 c 0
 358 182 358 180 357 177 c 0
 335 78 165 2 110 2 c 0
 61 2 40 46 40 68 c 0
 40 75 43 78 48 78 c 0
 71 78 93 35 111 35 c 0
 113 35 276 89 301 135 c 0
 308 147 311 162 311 178 c 0
 311 259 228 372 175 372 c 0
 140 372 87 318 68 318 c 0
 58 318 54 328 54 350 c 0
 54 370 60 416 60 469 c 0
 60 505 57 537 48 546 c 0
 38 556 35 561 35 568 c 0
 35 608 110 624 129 624 c 2
 141 624 l 2
EndSplineSet
EndChar

StartChar: six
Encoding: 54 54 23
Width: 367
Flags: W
HStem: 5 49<133.81 231.614> 297 46<105.84 231.427> 590 48<153.705 298.832>
VStem: 41 53<146.185 285.714> 41 44<337.252 502.256> 287 44<157.935 275.303>
LayerCount: 2
Fore
SplineSet
165 343 m 0xec
 167 343 331 342 331 240 c 0
 331 185 278 87 271 47 c 0
 266 24 202 5 162 5 c 0
 154 5 146 6 141 8 c 0
 87 27 41 176 41 325 c 2
 41 330 l 1
 42 442 56 517 88 578 c 0
 111 622 120 638 201 638 c 0
 242 638 289 631 305 610 c 0
 315 597 319 588 319 583 c 0
 319 579 317 578 312 578 c 0
 294 578 290 590 248 590 c 0
 212 590 167 582 155 571 c 0
 85 506 85 421 85 369 c 0
 85 351 85 337 113 337 c 0
 132 337 149 343 165 343 c 0xec
232 288 m 0
 220 288 193 297 159 297 c 0
 120 297 94 282 94 230 c 0xf4
 94 188 119 78 145 63 c 0
 153 58 168 54 184 54 c 0
 201 54 218 59 233 77 c 0
 249 96 242 109 255 135 c 0
 274 174 287 219 287 247 c 0
 287 258 285 266 281 270 c 0
 264 286 254 289 245 289 c 0
 241 289 237 288 232 288 c 0
EndSplineSet
EndChar

StartChar: seven
Encoding: 55 55 24
Width: 493
Flags: W
HStem: 1 21G<267 268> 270 59<91.0657 255.992> 317 48<335.997 456.853> 595 41<134.125 296.788> 615 63<313.979 369.5>
VStem: 35 38<407.621 488.249> 234 55<8.46489 132.016> 334 57<546.574 665.193>
LayerCount: 2
Fore
SplineSet
59 407 m 0x97
 56 407 35 408 35 436 c 0
 35 479 80 573 86 620 c 0
 90 655 91 662 110 662 c 0
 122 662 138 657 144 648 c 0
 150 640 154 636 168 636 c 0x97
 198 636 302 654 336 668 c 0
 353 675 362 678 369 678 c 0
 370 678 391 678 391 655 c 0
 391 611 348 484 345 430 c 0
 344 412 335 376 335 359 c 0
 335 354 336 350 339 350 c 2
 340 350 l 1
 368 360 393 365 412 365 c 0
 424 365 458 363 458 335 c 0
 458 321 445 312 429 312 c 0
 416 312 412 317 397 317 c 0xaf
 370 317 323 306 315 296 c 0
 307 287 289 79 289 46 c 0
 289 9 268 1 268 1 c 0
 266 1 234 19 234 42 c 0
 234 74 265 114 265 233 c 0
 265 266 262 291 259 292 c 1
 256 292 l 2
 229 292 143 270 109 270 c 0
 94 270 97 275 88 280 c 0
 80 285 76 290 76 294 c 0
 76 306 108 316 179 329 c 0
 236 339 215 332 267 342 c 0
 272 343 300 427 306 461 c 0
 306 463 334 602 334 611 c 0
 334 614 332 615 331 615 c 0xcf
 312 615 248 595 176 595 c 2
 152 595 l 2
 126 595 125 591 122 573 c 0
 116 538 73 457 73 431 c 0
 73 421 73 407 59 407 c 0x97
EndSplineSet
EndChar

StartChar: eight
Encoding: 56 56 25
Width: 375
Flags: W
HStem: -5 53<126.625 222.734> 266 73<154.797 214.34> 567 58<140.008 250.319>
VStem: 36 56<391.143 523.41> 50 47<82.7058 194.159> 124 118<278.583 331.657> 287 46<97.5743 185.169 434.301 528.812>
LayerCount: 2
Fore
SplineSet
242 312 m 0xf6
 242 277 333 249 333 141 c 0
 333 96 315 67 268 34 c 0
 239 14 209 -1 190 -4 c 0
 187 -4 185 -5 182 -5 c 0
 150 -5 105 20 66 72 c 0
 54 88 50 97 50 115 c 0xee
 50 119 51 122 51 127 c 0
 53 165 60 187 62 196 c 0
 66 213 63 219 90 245 c 0
 114 269 124 284 124 298 c 0
 124 312 113 323 98 336 c 0
 56 371 36 414 36 457 c 0
 36 535 104 625 197 625 c 0
 289 625 338 536 338 486 c 0
 338 411 242 339 242 312 c 0xf6
178 266 m 1
 153 262 97 162 97 142 c 0
 97 129 104 119 112 98 c 0
 125 62 142 48 164 48 c 0
 185 48 212 62 246 84 c 0
 280 106 287 114 287 126 c 0
 287 171 216 266 181 266 c 2
 178 266 l 1
195 567 m 1
 146 562 92 520 92 471 c 0xf6
 92 453 97 437 100 422 c 0
 105 396 113 386 149 364 c 0
 170 351 191 339 195 339 c 0
 200 339 284 440 284 483 c 0
 284 485 283 487 283 489 c 0
 272 550 218 567 198 567 c 2
 195 567 l 1
EndSplineSet
EndChar

StartChar: nine
Encoding: 57 57 26
Width: 352
Flags: W
HStem: -1 42<64.9462 192.548> 314 42<99.0364 163.396> 606 41<131.275 225.226>
VStem: 37 53<365.445 557.289> 251 52<259.733 405.998> 253 57<112.805 405.998>
LayerCount: 2
Fore
SplineSet
37 462 m 0xf8
 37 566 107 647 177 647 c 0
 191 647 206 644 220 637 c 0
 250 623 257 615 278 571 c 0
 296 534 303 496 303 469 c 2
 303 453 l 2xf8
 303 392 310 294 310 258 c 0
 310 121 283 -1 120 -1 c 2
 114 -1 l 1
 67 0 46 25 46 40 c 0
 46 47 52 50 64 50 c 0
 84 50 116 41 143 41 c 0
 152 41 160 42 165 43 c 0
 194 50 239 107 249 159 c 4
 252 173 253 199 253 230 c 0xf4
 253 281 250 343 250 377 c 0
 250 390 251 392 251 395 c 0
 251 403 248 406 245 406 c 0
 233 406 202 361 192 348 c 0
 175 328 136 314 114 314 c 0
 81 314 37 381 37 462 c 0xf8
244 530 m 0
 244 569 218 606 193 606 c 0
 172 606 141 593 125 582 c 0
 101 566 93 513 91 460 c 0
 91 450 90 440 90 432 c 0
 90 389 96 370 116 361 c 0
 122 358 127 356 132 356 c 0
 140 356 150 361 166 379 c 0
 216 433 244 485 244 530 c 0
EndSplineSet
EndChar

StartChar: colon
Encoding: 58 58 27
Width: 167
Flags: W
HStem: -7 96<56.2363 103.441> 280 95<63.6638 102.863>
VStem: 39 86<13.921 74.8489> 52 51<280.864 338.989>
LayerCount: 2
Fore
SplineSet
39 10 m 0xe0
 39 24 56 89 79 89 c 0
 80 89 125 83 125 64 c 0
 125 56 120 44 109 24 c 0
 95 -3 88 -7 68 -7 c 0
 63 -7 39 -6 39 10 c 0xe0
52 309 m 0xd0
 52 331 65 375 91 375 c 0
 110 375 120 356 120 340 c 0
 120 318 103 324 103 298 c 0
 103 284 98 280 83 280 c 0
 69 280 52 285 52 309 c 0xd0
EndSplineSet
EndChar

StartChar: semicolon
Encoding: 59 59 28
Width: 273
Flags: W
VStem: 138 96<304.298 353.978>
LayerCount: 2
Fore
SplineSet
178 80 m 0
 178 80 200 79 200 46 c 0
 200 25 192 -5 181 -16 c 0
 175 -22 162 -41 153 -60 c 0
 112 -141 67 -204 48 -207 c 0
 29 -209 20 -210 72 -119 c 0
 153 26 147 65 164 75 c 0
 170 78 174 80 178 80 c 0
138 307 m 0
 138 319 161 375 193 375 c 0
 208 375 234 363 234 343 c 0
 234 330 223 314 202 293 c 2
 169 261 l 1
 153 278 l 2
 143 289 138 297 138 307 c 0
EndSplineSet
EndChar

StartChar: less
Encoding: 60 60 29
Width: 518
Flags: W
HStem: 116 41<411.289 482.022>
VStem: 37 102<286.238 351.638>
LayerCount: 2
Fore
SplineSet
483 133 m 0
 483 126 466 116 443 116 c 0
 429 116 413 119 395 126 c 0
 343 147 357 141 252 171 c 0
 91 218 37 291 37 313 c 0
 37 339 78 377 232 511 c 0
 324 592 357 616 373 616 c 0
 387 616 394 611 394 602 c 0
 394 577 347 522 265 455 c 0
 181 386 139 348 139 320 c 0
 139 295 197 254 222 247 c 0
 251 239 288 213 320 203 c 0
 389 182 419 180 456 157 c 0
 473 147 483 140 483 133 c 0
EndSplineSet
EndChar

StartChar: equal
Encoding: 61 61 30
Width: 499
Flags: W
HStem: 215 53<59.805 305.08> 383 51<64.0684 375.209> 390 43<282.53 420.027>
VStem: 40 1<398.094 404.906>
LayerCount: 2
Fore
SplineSet
246 268 m 0x90
 326 268 366 279 421 279 c 0
 426 279 429 278 432 278 c 0
 448 276 460 266 460 258 c 0
 460 255 458 252 453 251 c 0
 333 216 162 232 103 217 c 0
 98 216 93 215 88 215 c 0
 70 215 57 224 57 236 c 0
 57 265 107 271 149 271 c 0
 184 271 172 268 246 268 c 0x90
40 405 m 0
 40 432 75 434 280 434 c 0xd0
 334 434 386 434 417 433 c 0
 420 433 422 425 421 416 c 0
 419 401 412 398 333 390 c 0xb0
 290 386 214 383 159 383 c 2
 145 383 l 1xd0
 53 384 44 385 41 398 c 0
 41 400 40 403 40 405 c 0
EndSplineSet
EndChar

StartChar: greater
Encoding: 62 62 31
Width: 476
Flags: W
LayerCount: 2
Fore
SplineSet
35 575 m 0
 35 578 36 589 53 589 c 0
 95 589 169 533 357 390 c 0
 403 355 440 325 440 322 c 0
 440 316 396 286 387 286 c 0
 364 286 238 203 183 153 c 0
 139 113 112 93 99 93 c 0
 93 93 89 97 89 106 c 0
 89 139 211 251 330 327 c 0
 336 331 339 333 339 337 c 0
 339 343 329 353 300 377 c 0
 219 445 147 496 97 521 c 0
 56 542 35 561 35 575 c 0
EndSplineSet
EndChar

StartChar: question
Encoding: 63 63 32
Width: 362
Flags: W
HStem: -5 65<139.008 196.47> 581 51<154.214 275.984>
VStem: 127 72<7.46303 55.0522> 277 49<530.315 579.995>
LayerCount: 2
Fore
SplineSet
127 42 m 0
 127 49 130 60 151 60 c 0
 152 60 199 60 199 27 c 0
 199 7 184 -5 172 -5 c 0
 160 -5 127 21 127 42 c 0
61 487 m 0
 46 487 34 500 34 507 c 0
 34 516 45 529 75 557 c 0
 116 596 158 632 252 632 c 2
 254 632 l 2
 296 632 323 611 326 582 c 1
 326 570 l 2
 326 506 274 450 222 347 c 0
 157 219 167 201 148 201 c 0
 131 201 130 245 130 245 c 0
 130 280 146 321 189 410 c 0
 240 514 277 555 277 571 c 0
 277 577 263 581 234 581 c 0
 183 581 123 551 102 515 c 0
 92 497 76 487 61 487 c 0
EndSplineSet
EndChar

StartChar: at
Encoding: 64 64 33
Width: 749
Flags: W
HStem: -202 44<166.681 387.47> 43 39<457.466 535.218> 258 50<365.237 443.782> 454 45<330.905 542.873>
VStem: 37 48<-76.7111 157.923> 254 42<23.756 149.434> 414 42<108 167> 448 48<159 257.32> 667 44<214.702 320.872>
LayerCount: 2
Fore
SplineSet
435 -162 m 0xfe80
 435 -185 251 -202 232 -202 c 0
 205 -202 101 -178 54 -90 c 0
 35 -55 39 -84 38 3 c 0
 38 18 37 31 37 42 c 0
 37 98 41 113 61 165 c 0
 100 267 213 499 444 499 c 0
 484 499 525 494 545 484 c 0
 600 458 711 327 711 279 c 0
 711 232 634 113 577 77 c 0
 540 54 513 43 486 43 c 0
 474 43 462 45 449 49 c 2
 413 60 l 1
 372 18 l 2
 338 -16 326 -23 304 -23 c 0
 268 -23 254 -10 254 28 c 0
 254 114 305 308 404 308 c 0
 418 308 433 303 448 294 c 0
 484 271 496 243 496 184 c 0xfd80
 496 134 495 132 475 127 c 0
 463 124 456 117 456 108 c 0
 456 97 469 82 486 82 c 0
 542 82 667 203 667 266 c 0
 667 306 597 398 540 434 c 0
 511 452 502 454 435 454 c 0
 369 454 357 453 318 433 c 0
 265 406 183 324 155 271 c 0
 144 250 124 206 110 173 c 0
 89 124 85 109 85 52 c 2
 85 -7 l 2
 85 -86 171 -158 228 -158 c 0
 260 -158 328 -144 382 -144 c 0
 399 -144 435 -146 435 -162 c 0xfe80
414 167 m 0xfe80
 414 192 448 199 448 217 c 0xfd80
 448 221 447 227 445 234 c 0
 439 254 435 258 417 258 c 2
 416 258 l 2
 326 258 296 98 296 51 c 0
 296 25 315 23 315 23 c 0
 336 23 414 132 414 167 c 0xfe80
EndSplineSet
EndChar

StartChar: A
Encoding: 65 65 34
Width: 489
Flags: W
HStem: 280 41<202 283.46> 289 43<203.545 315.297>
VStem: 220 56<499.25 638.715>
LayerCount: 2
Fore
SplineSet
284 289 m 0x60
 273 289 228 280 203 280 c 0xa0
 180 280 176 198 133 105 c 0
 91 15 84 5 63 5 c 0
 43 5 33 10 33 23 c 0
 33 35 41 54 58 82 c 0
 105 161 135 277 163 371 c 0
 205 512 212 501 220 584 c 0
 227 654 237 654 246 654 c 0
 254 654 263 649 270 639 c 0
 274 633 276 622 276 603 c 0
 276 592 275 580 274 564 c 1
 274 556 l 2
 274 518 300 502 316 468 c 0
 330 439 342 407 370 315 c 0
 398 223 410 122 423 89 c 0
 444 34 454 5 454 -8 c 0
 454 -16 450 -18 444 -18 c 0
 436 -18 425 -16 419 -13 c 0
 407 -7 379 79 361 152 c 0
 345 213 335 289 284 289 c 0x60
203 321 m 0
 215 321 202 332 277 332 c 0x60
 304 332 316 335 316 346 c 0
 316 353 306 365 291 411 c 0
 275 461 260 496 254 498 c 0
 240 498 238 423 216 363 c 0
 207 338 202 327 202 323 c 0
 202 322 202 321 203 321 c 0
EndSplineSet
EndChar

StartChar: B
Encoding: 66 66 35
Width: 445
Flags: W
HStem: 305 49<97 208.61> 593 53<118.538 321.731>
VStem: 41 44<64.3965 361.703> 332 44<167.118 233.025> 362 48<463.794 564.098>
LayerCount: 2
Fore
SplineSet
274 646 m 2xf0
 278 646 l 2
 308 646 359 622 372 601 c 0
 391 570 410 518 410 499 c 0xe8
 410 472 349 404 295 370 c 0
 270 354 248 339 248 336 c 0
 248 325 307 313 350 267 c 0
 370 246 376 237 376 223 c 0
 376 213 372 134 246 52 c 0
 196 19 189 42 145 23 c 0
 118 11 101 5 86 5 c 2
 81 5 l 1
 59 7 51 1 49 27 c 0
 44 82 41 147 41 218 c 0
 41 347 50 494 66 628 c 1
 73 647 117 652 162 652 c 0
 213 652 265 646 274 646 c 2xf0
118 580 m 1
 109 493 94 408 95 389 c 2
 97 354 l 1
 141 355 l 2
 175 356 194 362 234 384 c 0
 317 430 362 475 362 513 c 0
 362 532 339 573 322 585 c 0
 317 588 265 593 214 593 c 0
 171 593 129 590 118 580 c 1
320 224 m 0
 307 244 180 305 113 305 c 0
 100 305 90 302 88 296 c 0
 86 291 85 268 85 239 c 0
 85 172 90 69 96 64 c 0
 100 61 112 64 124 71 c 0
 136 78 201 80 230 95 c 0
 288 124 292 134 319 181 c 0
 329 198 332 206 332 210 c 0xf0
 332 216 326 216 320 224 c 0
EndSplineSet
EndChar

StartChar: C
Encoding: 67 67 36
Width: 443
Flags: W
HStem: -14 41<183.632 306.651> 590 40<190.111 356.43>
VStem: 37 48<155.554 459.528>
LayerCount: 2
Fore
SplineSet
408 67 m 0
 408 53 297 -14 224 -14 c 0
 159 -14 113 31 68 129 c 0
 52 163 37 197 37 297 c 0
 37 450 88 578 165 615 c 0
 185 625 229 630 272 630 c 0
 380 630 401 599 386 586 c 0
 381 582 356 576 335 576 c 0
 300 576 306 590 265 590 c 0
 210 590 142 555 119 496 c 0
 94 431 85 395 85 334 c 0
 85 317 86 299 87 278 c 0
 91 199 96 177 113 141 c 0
 150 65 193 27 243 27 c 0
 265 27 363 73 396 73 c 0
 404 73 408 71 408 67 c 0
EndSplineSet
EndChar

StartChar: asciicircum
Encoding: 94 94 37
Width: 380
Flags: W
HStem: 739 69<192.622 229.528>
VStem: 46 288<606 621>
LayerCount: 2
Fore
SplineSet
46 608 m 0
 46 631 195 808 228 808 c 0
 244 808 259 728 294 690 c 4
 311 671 334 621 334 605 c 0
 334 604 334 593 323 593 c 0
 310 593 290 610 282 631 c 4
 273 655 244 682 230 716 c 4
 227 725 221 739 210 739 c 0
 196 739 117 655 97 620 c 4
 87 603 80 597 66 596 c 4
 47 595 46 606 46 608 c 0
EndSplineSet
EndChar

StartChar: D
Encoding: 68 68 38
Width: 506
Flags: W
HStem: 2 43<97.0983 200.657> 586 38<110.57 280.129>
VStem: 41 51<57.4364 378.131> 417 52<291.72 473.138>
LayerCount: 2
Fore
SplineSet
52 627 m 0
 52 635 60 624 136 624 c 0
 143 624 149 625 156 625 c 2
 170 625 l 2
 245 625 295 610 361 570 c 0
 414 538 438 507 459 442 c 0
 466 421 469 408 469 393 c 0
 469 382 467 370 464 353 c 0
 451 288 452 293 411 222 c 0
 376 161 375 147 294 83 c 0
 216 21 235 34 194 19 c 0
 162 8 135 2 108 2 c 0
 46 2 43 7 41 74 c 1
 41 101 l 2
 41 127 42 153 43 168 c 0
 48 217 50 503 52 627 c 0
266 573 m 0
 240 582 205 586 173 586 c 0
 153 586 135 584 122 580 c 0
 106 575 104 567 95 464 c 0
 89 392 86 331 86 282 c 0
 86 197 92 145 92 123 c 0
 92 95 94 66 97 57 c 0
 100 48 108 45 118 45 c 0
 137 45 185 57 222 76 c 0
 232 81 238 87 242 90 c 0
 255 98 278 125 311 158 c 0
 313 160 417 276 417 384 c 0
 417 411 412 439 401 467 c 0
 388 501 320 555 266 573 c 0
EndSplineSet
EndChar

StartChar: E
Encoding: 69 69 39
Width: 535
Flags: W
HStem: -25 82<97.6842 200.651> 11 48<140.016 496.15> 297 42<107.094 397.576> 602 39<131.518 444.368>
VStem: 48 58<233 293> 50 57<339.008 582.433> 50 45<57 292.062>
LayerCount: 2
Fore
SplineSet
467 590 m 2xb8
 466 590 430 602 339 602 c 0
 299 602 266 598 191 593 c 0
 150 590 114 601 113 540 c 0
 112 484 107 410 107 369 c 0xb4
 107 350 108 339 111 339 c 0
 117 339 135 341 151 341 c 0
 176 341 155 339 190 339 c 0
 213 339 248 340 293 340 c 0
 310 340 327 341 347 340 c 0
 377 339 389 335 398 322 c 0
 405 313 406 304 402 301 c 0
 398 299 369 297 336 297 c 2
 327 297 l 2
 290 297 233 297 182 298 c 1
 106 293 l 1xb8
 99 233 l 2
 98 219 95 185 95 154 c 2
 95 119 l 2
 95 112 95 108 96 95 c 2
 98 57 l 1
 147 60 l 1
 154 60 l 2
 178 60 230 56 284 56 c 0
 295 56 305 57 316 57 c 0xb2
 352 58 382 59 406 59 c 0
 474 59 498 53 498 39 c 0
 498 38 497 36 497 35 c 0
 491 10 385 19 343 11 c 0x72
 333 9 293 6 254 4 c 0
 215 2 193 -7 140 -11 c 0
 100 -14 76 -25 62 -25 c 0
 48 -25 44 -14 44 25 c 0
 44 28 50 156 50 290 c 0xb2
 50 360 49 427 48 468 c 1
 48 505 l 2
 48 566 52 627 68 629 c 0
 130 635 216 641 291 641 c 0
 358 641 416 637 439 625 c 0
 465 611 476 604 476 598 c 0
 476 595 474 593 469 590 c 1
 467 590 l 2xb8
EndSplineSet
EndChar

StartChar: F
Encoding: 70 70 40
Width: 428
Flags: W
HStem: 304 33<162.637 392.023> 315 33<108 241.547> 602 28<276.504 385.674> 604 45<173.059 369.134>
VStem: 37 58<367.134 594.325> 51 55<-2.05064 46.9386 48.0862 278.615 347 380> 55 40<19.277 148.791 152.647 314.99 347.516 579.089>
LayerCount: 2
Fore
SplineSet
55 383 m 0x42
 55 463 37 546 37 594 c 0
 37 608 39 613 43 614 c 0
 49 616 86 624 126 632 c 2
 206 648 l 2
 207 648 209 649 212 649 c 0x58
 241 649 353 636 370 630 c 0
 375 628 387 621 387 610 c 0
 387 604 383 602 353 602 c 0x28
 335 602 307 603 265 604 c 1
 250 604 l 2
 188 604 131 593 108 575 c 0
 99 568 95 560 95 533 c 0
 95 511 102 395 104 380 c 2
 108 347 l 1
 153 348 l 1
 156 348 l 2x58
 175 348 175 348 362 337 c 0
 384 336 393 333 393 325 c 0
 393 314 382 311 315 306 c 0
 294 304 269 304 245 304 c 0x88
 171 304 119 315 108 315 c 0
 103 315 101 302 101 281 c 0
 101 230 106 186 106 151 c 0
 106 104 99 49 99 48 c 0
 99 25 104 25 104 19 c 0
 104 7 89 -4 73 -4 c 0
 56 -4 51 -4 51 38 c 2
 51 65 l 2x44
 51 146 51 314 54 360 c 0
 54 367 55 374 55 383 c 0x42
EndSplineSet
EndChar

StartChar: G
Encoding: 71 71 41
Width: 474
Flags: W
HStem: -8 46<109.861 235.512> 312 55<202.597 373.553> 312 38<185.232 373.553> 578 63<299.842 346.292> 604 49<222.015 298.989>
VStem: 37 46<86.3359 430.012>
LayerCount: 2
Fore
SplineSet
380 367 m 0xc4
 387 367 438 366 438 337 c 0
 438 330 435 318 428 298 c 0
 420 274 410 266 405 257 c 0
 389 224 381 20 220 6 c 0
 200 4 168 -8 144 -8 c 0
 70 -8 50 85 42 211 c 0
 40 242 37 269 37 298 c 0
 37 354 47 417 95 532 c 0
 110 568 154 618 205 647 c 0
 212 651 225 653 240 653 c 0xcc
 273 653 314 645 321 641 c 0
 348 622 361 604 361 592 c 0
 361 583 355 578 343 578 c 0x94
 333 578 317 581 299 591 c 1
 299 591 284 604 258 604 c 2
 255 604 l 2
 242 604 222 592 222 592 c 1
 183 572 146 547 118 477 c 0
 88 403 83 354 83 304 c 0
 83 277 85 250 85 220 c 0
 85 168 91 93 102 73 c 0
 115 48 121 38 150 38 c 0
 168 38 189 49 210 53 c 0
 361 82 342 247 373 290 c 0
 385 307 384 290 371 302 c 0
 361 311 364 312 327 312 c 2
 272 312 l 2xcc
 250 312 249 309 223 309 c 0
 193 309 185 324 185 329 c 0
 185 340 205 350 236 350 c 0xa4
 289 350 327 367 380 367 c 0xc4
EndSplineSet
EndChar

StartChar: H
Encoding: 72 72 42
Width: 500
Flags: W
HStem: -1 21G<367.5 382> 316 31<114.6 255.277>
VStem: 60 38<402.34 635.804> 68 44<347.011 543.585> 340 42<10.1769 48 48.0073 200.878> 411 54<491.833 639.957>
LayerCount: 2
Fore
SplineSet
68 336 m 0xdc
 68 339 66 548 60 603 c 1
 60 613 l 2
 60 632 64 641 70 641 c 0
 78 641 90 626 98 599 c 0xec
 105 576 112 551 112 458 c 0
 112 362 112 347 123 347 c 0
 124 347 116 348 220 358 c 0
 304 366 358 383 372 406 c 0
 382 424 411 571 411 609 c 0
 411 629 417 641 434 641 c 0
 455 641 465 629 465 603 c 0
 465 559 428 453 411 322 c 0
 407 292 403 161 394 121 c 0
 385 79 382 79 382 74 c 0
 382 66 389 13 389 10 c 0
 389 7 389 -1 375 -1 c 0
 360 -1 339 14 339 48 c 2
 339 48 340 58 340 65 c 2
 340 71 l 2
 340 107 362 149 362 261 c 0
 362 302 359 335 356 338 c 0
 354 340 352 341 348 341 c 0
 325 341 334 323 217 316 c 0
 174 314 130 309 120 306 c 0
 101 299 107 229 90 81 c 0
 82 13 74 -15 59 -15 c 0
 59 -15 35 -12 35 10 c 0
 35 67 68 134 68 336 c 0xdc
EndSplineSet
EndChar

StartChar: I
Encoding: 73 73 43
Width: 492
Flags: W
HStem: 3 48<57.416 191.211> 584 56<80.2451 218.778> 607 41<294.29 446> 644 20G<235.5 275.5>
VStem: 212 34<85.0137 255.463>
LayerCount: 2
Fore
SplineSet
169 640 m 2xc8
 238 640 213 664 258 664 c 0xd8
 293 664 263 648 339 648 c 0
 344 648 350 649 355 649 c 2
 379 649 l 2
 413 649 423 646 437 635 c 0
 449 626 456 620 456 615 c 0
 456 608 443 605 415 605 c 0
 370 605 389 607 347 607 c 0xa8
 318 607 300 604 294 600 c 0
 269 581 262 153 252 99 c 0
 249 81 246 65 246 60 c 0
 246 56 386 53 425 32 c 0
 453 17 454 17 456 14 c 2
 456 14 459 2 453 1 c 0
 451 1 443 0 431 0 c 0
 383 0 271 3 271 3 c 1
 78 5 33 13 33 40 c 0
 33 60 45 60 67 60 c 2
 72 60 l 2
 106 60 166 51 167 51 c 0
 202 51 208 144 212 231 c 0
 215 301 217 330 223 395 c 0
 227 445 230 532 230 571 c 0
 230 583 230 590 229 591 c 0
 228 592 225 592 220 592 c 0
 194 592 163 584 130 584 c 0
 96 584 79 594 79 614 c 0
 79 638 89 640 136 640 c 2
 169 640 l 2xc8
EndSplineSet
EndChar

StartChar: J
Encoding: 74 74 44
Width: 404
Flags: W
HStem: 17 48<138.423 235.71>
VStem: 34 45<114.335 197.165> 321 42<314.461 613.661>
LayerCount: 2
Fore
SplineSet
34 152 m 0
 34 175 53 202 67 202 c 0
 75 202 80 194 80 179 c 2
 80 172 l 2
 80 168 79 164 79 160 c 0
 79 98 180 65 201 65 c 0
 213 65 221 69 227 75 c 0
 283 134 319 302 321 517 c 0
 323 625 325 625 335 625 c 0
 340 625 347 621 354 614 c 0
 361 607 363 585 363 526 c 0
 363 511 362 494 362 474 c 0
 360 337 342 134 257 45 c 0
 235 23 225 17 200 17 c 0
 118 17 34 92 34 152 c 0
EndSplineSet
EndChar

StartChar: K
Encoding: 75 75 45
Width: 452
Flags: W
HStem: 292 49<110.332 134.322>
VStem: 63 49<341.012 621.619>
LayerCount: 2
Fore
SplineSet
112 571 m 0
 112 569 108 443 108 382 c 0
 108 357 108 341 109 341 c 0
 116 341 147 378 192 411 c 0
 278 472 287 483 330 555 c 0
 366 616 382 641 397 641 c 0
 411 641 418 634 418 622 c 0
 418 611 412 596 401 580 c 0
 390 564 370 531 356 507 c 0
 339 476 309 444 256 398 c 2
 181 332 l 1
 195 311 l 2
 202 300 226 205 236 188 c 0
 270 130 373 36 373 7 c 0
 373 -1 370 -5 364 -5 c 0
 355 -5 339 6 317 27 c 0
 238 103 209 136 190 174 c 0
 179 197 171 277 124 292 c 1
 123 292 l 2
 101 292 93 124 76 32 c 0
 70 1 69 -4 63 -4 c 0
 60 -4 57 -3 51 -3 c 0
 39 -3 35 -2 35 9 c 0
 35 40 54 120 59 151 c 0
 63 180 64 209 64 251 c 0
 64 297 63 358 63 446 c 0
 63 585 72 641 81 641 c 0
 87 641 97 632 104 622 c 0
 110 614 112 598 112 571 c 0
EndSplineSet
EndChar

StartChar: L
Encoding: 76 76 46
Width: 455
Flags: W
HStem: 0 57<81.6917 392.103>
VStem: 46 35<55.104 290.912> 48 53<262.698 631.47>
LayerCount: 2
Fore
SplineSet
205 6 m 0xc0
 71 6 86 -8 66 -8 c 2
 63 -8 l 1
 48 -6 45 -5 45 41 c 0
 45 55 46 72 46 95 c 0xc0
 47 150 47 331 48 434 c 0
 50 590 53 622 63 628 c 0
 70 632 75 634 79 634 c 0
 84 634 89 631 95 624 c 0
 99 619 101 558 101 482 c 0xa0
 101 357 96 190 88 158 c 0
 83 139 81 114 81 93 c 0
 81 73 84 57 88 55 c 0
 89 55 90 54 93 54 c 0
 104 54 131 57 155 57 c 2
 170 57 l 2
 327 57 418 44 418 15 c 0
 418 6 407 0 389 0 c 2
 380 0 l 1
 356 2 276 6 205 6 c 0xc0
EndSplineSet
EndChar

StartChar: M
Encoding: 77 77 47
Width: 550
Flags: W
HStem: 115 66<241.525 269.319>
VStem: 36 48<-16.5225 222.625> 58 40<584.801 635.809> 66 36<288.765 300.651 308.787 528.996> 407 68<468.306 596.84> 449 58<16.9158 245.374>
LayerCount: 2
Fore
SplineSet
58 607 m 0xa0
 58 615 79 641 86 641 c 0
 90 641 93 638 98 629 c 0
 117 594 169 454 217 285 c 0
 244 190 247 181 254 181 c 2
 255 181 l 2
 259 181 272 204 282 230 c 0
 310 300 380 437 407 529 c 0
 425 590 440 641 459 641 c 0
 475 641 475 604 475 517 c 0xa8
 477 255 507 116 507 24 c 0
 507 1 504 -9 498 -9 c 0
 493 -9 487 -3 478 6 c 0
 464 21 461 40 449 195 c 0
 442 290 434 383 431 404 c 2
 426 441 l 1
 411 419 l 2
 403 407 369 334 338 258 c 0
 295 153 275 115 257 115 c 0
 238 115 209 166 193 219 c 0
 184 249 155 388 142 430 c 0
 123 493 107 529 100 529 c 0
 97 529 96 523 96 509 c 0
 96 490 108 373 108 302 c 0
 108 273 102 259 102 229 c 2
 102 217 l 2x94
 102 173 84 10 84 8 c 0
 83 -7 71 -17 61 -17 c 0
 39 -17 36 25 36 49 c 0xc0
 36 65 38 81 42 92 c 0
 56 126 66 351 66 489 c 0x90
 66 544 65 587 61 597 c 0
 59 601 58 604 58 607 c 0xa0
EndSplineSet
EndChar

StartChar: N
Encoding: 78 78 48
Width: 472
Flags: W
HStem: 12 96<347.925 389.5>
VStem: 40 42<11.6338 345.6> 56 39<385.411 551.995> 332 78<26.3965 105.322>
LayerCount: 2
Fore
SplineSet
40 133 m 0xd0
 40 226 56 454 56 588 c 2
 56 604 l 2
 56 629 63 641 86 641 c 2
 87 641 l 2
 101 641 115 622 138 594 c 0
 176 547 326 185 334 155 c 0
 342 123 353 108 364 108 c 0
 407 108 398 635 402 639 c 0
 405 641 421 642 422 638 c 0
 424 629 426 563 426 482 c 0
 426 364 422 216 410 164 c 0
 407 153 406 142 406 131 c 0
 406 108 410 86 410 70 c 0
 410 55 401 12 378 12 c 0
 364 12 347 29 332 62 c 0
 292 152 174 467 147 508 c 0
 128 537 112 552 103 552 c 0
 97 552 94 545 94 530 c 2
 94 524 l 1
 95 501 95 471 95 439 c 0xb0
 95 365 92 279 88 245 c 0
 84 211 82 177 82 146 c 0xd0
 82 62 95 51 95 26 c 0xb0
 95 6 86 -4 67 -4 c 2
 62 -4 l 1
 49 -3 45 2 46 14 c 0
 48 32 40 35 40 133 c 0xd0
EndSplineSet
EndChar

StartChar: O
Encoding: 79 79 49
Width: 586
Flags: W
HStem: -2 36<196.991 332.337> 582 45<272.519 405.308>
VStem: 37 49<152.932 391.016> 505 42<249.837 467.867>
LayerCount: 2
Fore
SplineSet
257 609 m 4
 272 616 309 627 326 627 c 0
 347 627 385 617 414 601 c 4
 478 565 495 546 520 485 c 4
 539 439 547 409 547 376 c 0
 547 326 528 269 526 219 c 4
 525 198 520 174 515 165 c 4
 501 138 404 45 367 23 c 4
 335 5 318 -2 290 -2 c 0
 277 -2 260 -1 240 2 c 4
 158 13 114 42 74 114 c 4
 49 160 37 207 37 267 c 0
 37 299 40 335 47 377 c 4
 60 454 123 511 161 540 c 4
 177 552 185 557 198 567 c 4
 219 583 232 597 257 609 c 4
199 515 m 12
 122 434 86 393 86 249 c 0
 86 216 90 197 107 155 c 4
 128 102 135 92 165 70 c 4
 195 48 238 34 274 34 c 0
 283 34 293 35 301 37 c 4
 332 45 387 87 433 136 c 4
 467 173 471 182 487 264 c 4
 499 328 505 360 505 386 c 0
 505 409 500 426 491 456 c 4
 454 580 364 582 357 582 c 0
 309 582 227 545 199 515 c 12
EndSplineSet
EndChar

StartChar: P
Encoding: 80 80 50
Width: 476
Flags: W
HStem: 1 21G<66 68> 249 45<113.176 216.408> 594 56<95.5811 280.421>
VStem: 45 49<340.971 593.985> 386 53<404.928 518.596>
LayerCount: 2
Fore
SplineSet
42 43 m 0
 42 106 58 136 58 253 c 0
 58 324 44 402 45 474 c 4
 47 626 47 626 47 626 c 6
 47 642 95 650 151 650 c 0
 184 650 221 647 250 640 c 4
 304 627 439 564 439 466 c 0
 439 421 410 368 331 310 c 4
 287 278 172 249 138 249 c 4
 114 249 108 246 105 233 c 4
 90 170 101 19 81 7 c 4
 74 3 70 1 66 1 c 0
 66 1 42 5 42 43 c 0
343 547 m 4
 315 570 206 594 142 594 c 2
 118 594 l 2
 105 594 95 593 94 576 c 5
 94 554 l 2
 94 466 112 315 114 310 c 4
 119 298 121 294 125 294 c 0
 129 294 136 299 152 300 c 4
 200 304 300 343 328 368 c 4
 354 391 386 421 386 457 c 0
 386 483 363 531 343 547 c 4
EndSplineSet
EndChar

StartChar: Q
Encoding: 81 81 51
Width: 599
Flags: W
HStem: -29 49<142.494 270.155> 595 57<264.781 407.077>
VStem: 36 49<88.4471 357.451> 305 60<148.144 221.411> 452 58<-177.08 -78.6932> 518 42<252.474 476.461>
LayerCount: 2
Fore
SplineSet
96 449 m 4
 165 587 271 652 334 652 c 0
 389 652 422 622 460 588 c 4
 528 528 560 460 560 375 c 0
 560 247 487 127 452 97 c 6
 421 70 l 5
 448 22 l 6
 486 -44 482 -71 499 -105 c 4
 505 -117 510 -140 510 -156 c 4
 510 -178 509 -184 498 -184 c 0
 496 -184 492 -183 489 -183 c 4
 471 -181 466 -173 452 -128 c 4
 429 -52 397 25 385 35 c 4
 382 37 380 38 376 38 c 0
 361 38 313 -7 183 -28 c 4
 179 -29 174 -29 170 -29 c 0
 131 -29 95 2 67 58 c 4
 42 108 40 118 37 203 c 4
 37 216 36 228 36 239 c 0
 36 317 48 352 96 449 c 4
85 176 m 0
 85 82 154 20 180 20 c 6
 189 20 l 2
 205 20 241 22 291 45 c 4
 314 55 350 64 350 95 c 0
 350 130 305 161 305 204 c 0
 305 220 312 230 323 230 c 4
 342 230 365 204 365 184 c 4
 365 166 394 116 404 116 c 4
 417 116 461 169 481 209 c 4
 504 255 518 327 518 388 c 0
 518 422 513 452 504 473 c 4
 500 482 476 511 452 539 c 4
 412 586 404 595 350 595 c 2
 343 595 l 6
 292 595 276 581 252 566 c 4
 193 528 139 450 103 348 c 4
 102 346 85 279 85 176 c 0
EndSplineSet
EndChar

StartChar: R
Encoding: 82 82 52
Width: 430
Flags: W
HStem: 280 63<116 160.05> 511 86<103.34 144.572> 575 49<159.663 321.663>
VStem: 39 64<343.516 509.633> 49 79<29.714 177.822> 49 59<30.2483 296.398> 338 55<478.527 564.655>
LayerCount: 2
Fore
SplineSet
103 597 m 0xd2
 149 597 160 624 223 624 c 0
 384 624 393 571 393 544 c 0
 393 489 310 337 250 304 c 0
 237 297 226 288 226 284 c 0
 226 276 235 255 295 166 c 0
 316 135 339 113 354 79 c 0
 381 17 391 29 391 7 c 0
 391 -16 372 -19 353 -6 c 0
 335 6 318 34 308 48 c 0
 276 96 203 185 190 210 c 0
 164 258 146 280 131 280 c 0
 129 280 127 279 126 279 c 0
 117 276 108 233 108 181 c 0xa6
 108 113 128 58 128 22 c 0xaa
 128 11 124 8 117 6 c 1
 112 6 l 2
 104 6 92 10 83 17 c 0
 64 31 62 42 52 167 c 0
 50 191 49 215 49 238 c 0xa6
 49 266 50 293 50 315 c 0
 50 379 39 384 39 436 c 0
 39 455 41 476 45 515 c 0
 52 586 53 601 71 601 c 0
 80 601 81 597 103 597 c 0xd2
314 566 m 0
 301 572 278 575 253 575 c 0xb2
 113 575 165 511 120 511 c 0
 105 511 103 508 103 471 c 2
 103 460 l 2xd2
 103 432 106 394 110 376 c 2
 116 343 l 1
 164 344 l 2
 209 345 214 347 249 383 c 0
 291 426 338 506 338 535 c 0
 338 548 324 561 314 566 c 0
EndSplineSet
EndChar

StartChar: S
Encoding: 83 83 53
Width: 448
Flags: W
HStem: -1 48<56.7006 235.826> 18 48<33.0955 167.308> 594 48<195.995 354.534>
VStem: 109 56<474.282 564.264> 344 62<141.16 252.461>
LayerCount: 2
Fore
SplineSet
61 66 m 0x78
 91 66 133 47 169 47 c 0
 179 47 190 48 202 52 c 0
 239 63 265 92 299 120 c 0
 339 153 344 161 344 195 c 0
 344 237 337 245 231 339 c 0
 120 438 109 486 109 521 c 0
 109 556 128 582 176 614 c 0
 209 636 219 642 249 642 c 0
 258 642 267 642 280 641 c 0
 356 637 407 612 407 579 c 0
 407 560 400 551 390 551 c 0
 382 551 373 556 361 567 c 0
 349 579 332 594 254 594 c 0
 229 594 219 590 197 573 c 0
 176 557 165 542 165 527 c 0
 165 474 273 376 291 360 c 0
 381 280 406 244 406 194 c 0
 406 143 383 110 328 78 c 0
 305 65 273 47 259 38 c 0
 246 30 223 5 189 0 c 0
 184 -1 178 -1 172 -1 c 0xb8
 133 -1 86 15 64 18 c 0
 41 22 33 27 33 41 c 0
 33 54 36 66 61 66 c 0x78
EndSplineSet
EndChar

StartChar: T
Encoding: 84 84 54
Width: 645
Flags: W
HStem: 585 53<34.5617 274.688> 596 45<71.1651 275 331 575.379>
VStem: 275 56<373.784 595>
LayerCount: 2
Fore
SplineSet
251 596 m 2x60
 173 596 73 585 71 585 c 0
 43 585 34 592 34 608 c 0
 34 630 42 633 70 638 c 0xa0
 85 641 235 641 316 641 c 2
 364 641 l 5
 550 638 593 636 607 611 c 4
 609 607 611 603 611 601 c 0
 611 597 607 597 599 597 c 0
 598 597 561 600 457 600 c 0
 396 600 336 599 331 595 c 0
 321 588 333 30 312 11 c 0
 308 7 303 5 298 5 c 0
 288 5 279 13 275 26 c 0
 273 32 272 93 272 178 c 0
 272 217 273 262 273 309 c 2
 275 595 l 1
 255 596 l 1
 251 596 l 2x60
EndSplineSet
EndChar

StartChar: U
Encoding: 85 85 55
Width: 508
Flags: W
HStem: -4 42<175.285 281.721>
VStem: 41 56<181.229 597.456>
LayerCount: 2
Fore
SplineSet
274 51 m 0
 354 113 368 244 375 292 c 0
 387 376 398 432 407 538 c 0
 411 597 420 641 445 641 c 0
 457 641 463 631 469 620 c 4
 472 615 472 597 472 591 c 0
 472 553 456 545 439 396 c 0
 432 341 426 288 398 186 c 0
 398 185 390 153 370 94 c 0
 347 26 297 -4 222 -4 c 0
 112 -4 86 65 57 207 c 0
 46 259 41 327 41 396 c 0
 41 401 39 430 39 466 c 0
 39 521 44 592 69 624 c 0
 77 634 81 641 93 641 c 0
 108 641 116 638 116 616 c 0
 116 603 114 602 110 577 c 0
 102 530 104 512 98 375 c 0
 98 369 97 363 97 356 c 0
 97 273 116 147 136 100 c 0
 146 76 191 38 234 38 c 0
 248 38 262 41 274 51 c 0
EndSplineSet
EndChar

StartChar: V
Encoding: 86 86 56
Width: 542
Flags: W
LayerCount: 2
Fore
SplineSet
427 536 m 4
 470 642 478 653 494 653 c 0
 503 653 515 641 504 625 c 4
 500 619 480 570 460 515 c 4
 459 513 410 392 387 330 c 4
 340 204 340 204 282 57 c 4
 257 -6 251 -15 229 -15 c 4
 217 -15 208 -7 203 9 c 4
 172 106 154 195 130 279 c 4
 124 300 115 339 110 367 c 4
 105 396 85 428 80 451 c 4
 60 537 33 589 33 612 c 0
 33 618 33 637 55 639 c 5
 57 639 l 2
 99 639 163 448 167 355 c 4
 170 299 188 297 211 170 c 4
 224 96 228 64 235 64 c 0
 240 64 247 84 259 120 c 4
 281 183 324 281 427 536 c 4
EndSplineSet
EndChar

StartChar: W
Encoding: 87 87 57
Width: 645
Flags: W
VStem: 36 51<361.848 626.569> 45 42<566.447 633.399> 293 57<520.087 632.714> 555 54<512.533 623.723>
LayerCount: 2
Fore
SplineSet
552 580 m 0xb0
 552 599 570 628 590 628 c 0
 591 628 592 627 593 627 c 0
 606 625 609 621 609 600 c 2
 609 588 l 1
 607 538 608 563 463 240 c 0
 433 173 406 105 403 90 c 0
 395 50 376 28 357 28 c 0
 349 28 340 32 332 41 c 0
 306 71 308 439 297 439 c 0
 286 439 261 312 223 214 c 0
 197 146 177 79 177 66 c 0
 177 37 164 12 148 12 c 0
 122 12 94 101 74 244 c 0
 67 296 56 376 49 421 c 0
 41 475 36 527 36 565 c 0xb0
 36 596 38 618 45 627 c 0x70
 52 637 62 640 69 634 c 0
 85 621 87 619 87 602 c 2
 87 572 l 2
 87 570 89 446 101 370 c 0
 105 344 113 289 118 248 c 0
 128 169 134 139 139 139 c 2
 140 139 l 1
 150 148 286 551 293 590 c 0
 299 621 316 641 335 641 c 2
 340 641 l 1
 348 640 350 632 350 595 c 0
 350 592 347 420 347 327 c 0
 347 214 349 130 358 130 c 0
 361 130 369 143 374 160 c 0
 379 177 418 266 461 359 c 0
 537 525 555 549 555 564 c 0
 555 570 552 571 552 580 c 0xb0
EndSplineSet
EndChar

StartChar: X
Encoding: 88 88 58
Width: 491
Flags: W
VStem: 33 61<1.76571 75.624> 203 67<314.417 389.809>
LayerCount: 2
Fore
SplineSet
94 49 m 0
 94 48 80 -7 56 -7 c 2
 53 -7 l 1
 41 -6 33 2 33 8 c 0
 33 11 78 181 179 311 c 0
 193 329 203 351 203 359 c 0
 203 379 145 467 134 524 c 0
 128 556 125 562 112 582 c 0
 108 588 101 606 101 621 c 0
 101 632 104 640 116 640 c 0
 145 640 149 632 157 615 c 0
 192 538 173 528 216 450 c 1
 244 401 l 1
 258 420 l 1
 281 448 284 475 315 503 c 0
 374 562 402 640 425 640 c 0
 443 640 456 636 456 623 c 0
 456 615 451 603 442 591 c 0
 431 576 448 586 363 491 c 0
 317 439 270 362 270 339 c 0
 270 315 300 281 340 200 c 0
 365 149 377 131 420 73 c 0
 438 49 450 19 450 2 c 0
 450 -6 448 -11 442 -11 c 2
 441 -11 l 2
 427 -11 398 3 386 16 c 0
 371 31 304 146 303 157 c 0
 303 162 292 185 278 209 c 0
 264 233 248 263 241 276 c 0
 232 294 226 297 218 291 c 0
 198 274 94 70 94 49 c 0
EndSplineSet
EndChar

StartChar: Y
Encoding: 89 89 59
Width: 381
Flags: W
HStem: 0 21G<159.5 167.5>
VStem: 136 65<22.5537 355.344> 147 40<0.645996 191.34>
LayerCount: 2
Fore
SplineSet
138 334 m 1xc0
 33 610 33 610 33 630 c 0
 33 640 37 641 47 641 c 0
 74 641 86 615 140 444 c 0
 150 412 157 398 163 398 c 0
 165 398 167 400 169 404 c 0
 172 411 213 443 254 522 c 0
 266 545 301 641 329 641 c 0
 342 641 347 634 347 625 c 0
 347 602 318 560 307 536 c 0
 291 502 262 455 254 429 c 1
 193 356 l 1
 196 314 l 2
 199 271 201 231 201 196 c 0xc0
 201 96 190 33 187 22 c 0
 184 9 173 0 162 0 c 0
 157 0 152 2 147 6 c 0xa0
 141 12 136 131 136 236 c 0
 136 272 137 307 138 334 c 1xc0
EndSplineSet
EndChar

StartChar: Z
Encoding: 90 90 60
Width: 570
Flags: W
HStem: 9 57<153 397.402>
VStem: 351 88<550.102 606>
LayerCount: 2
Fore
SplineSet
34 606 m 0
 35 610 52 627 111 627 c 0
 117 627 122 627 126 626 c 1
 131 626 l 2
 148 626 191 630 240 630 c 0
 252 630 264 630 276 629 c 0
 395 623 439 615 439 597 c 0
 439 589 320 355 319 353 c 0
 313 340 296 312 283 293 c 0
 282 291 201 165 174 132 c 0
 161 115 152 102 152 92 c 0
 152 74 178 66 248 66 c 0
 361 66 529 84 532 84 c 0
 533 84 533 83 533 83 c 2
 533 82 523 77 523 67 c 0
 523 59 526 64 526 46 c 0
 526 18 497 6 425 1 c 0
 418 0 409 0 400 0 c 0
 345 0 263 9 200 9 c 0
 165 9 136 7 121 -2 c 0
 108 -10 88 -16 78 -16 c 0
 62 -16 55 -9 55 5 c 0
 55 70 169 192 301 443 c 0
 328 495 351 544 351 551 c 0
 351 580 33 562 33 602 c 0
 33 603 34 605 34 606 c 0
EndSplineSet
EndChar

StartChar: bracketleft
Encoding: 91 91 61
Width: 384
Flags: W
HStem: -32 52<61 305.266> -21 49<107.5 343.063> 608 48<175.39 324.488>
VStem: 33 62<-9 88.7926> 101 56<256.099 598.656>
LayerCount: 2
Fore
SplineSet
101 453 m 0xb8
 101 496 97 550 97 580 c 0
 97 632 110 635 164 646 c 0
 187 651 222 656 242 656 c 2
 245 656 l 2
 287 656 338 635 338 617 c 0
 338 609 327 608 277 608 c 2
 259 608 l 2
 212 608 183 605 175 599 c 0
 166 592 161 563 157 473 c 0
 151 349 126 162 107 93 c 0
 101 70 95 43 95 34 c 0
 95 24 96 20 106 20 c 0xb8
 139 20 107 28 230 28 c 2
 312 28 l 1
 332 30 349 21 349 12 c 0
 349 -1 324 -15 288 -21 c 0x78
 247 -28 77 -32 69 -32 c 0
 53 -32 33 -15 33 -3 c 0
 33 17 101 217 101 453 c 0xb8
EndSplineSet
EndChar

StartChar: backslash
Encoding: 92 92 62
Width: 431
Flags: W
HStem: 681 20G<47 56.5>
VStem: 344 53<-110.095 -19.4823>
LayerCount: 2
Fore
SplineSet
55 624 m 0
 55 646 33 670 33 688 c 0
 33 690 34 691 34 692 c 0
 37 699 43 701 51 701 c 0
 62 701 76 695 85 683 c 0
 98 665 105 642 133 538 c 0
 161 434 237 238 270 187 c 0
 331 91 397 -52 397 -89 c 0
 397 -104 388 -112 376 -112 c 0
 363 -112 348 -103 344 -85 c 0
 335 -48 314 9 307 16 c 0
 303 20 300 29 300 36 c 0
 300 43 279 81 255 120 c 0
 187 227 120 381 96 488 c 0
 82 551 55 601 55 624 c 0
EndSplineSet
EndChar

StartChar: bracketright
Encoding: 93 93 63
Width: 361
Flags: W
HStem: -23 40<70.1808 237.191> -6 31<33.9158 225.858> 620 42<39.6551 267.624>
VStem: 272 51<411.375 615>
LayerCount: 2
Fore
SplineSet
80 620 m 0xb0
 65 620 39 622 39 638 c 0
 39 640 40 642 40 644 c 0
 43 659 49 660 131 662 c 0
 179 663 222 664 239 667 c 0
 251 669 260 670 268 670 c 0
 289 670 299 664 311 657 c 0
 320 652 323 645 323 626 c 0
 323 622 303 230 297 187 c 0
 294 167 295 111 290 57 c 0
 283 -18 288 -23 279 -23 c 2
 275 -23 l 2xb0
 190 -23 159 -6 83 -6 c 2
 68 -6 l 2
 48 -6 33 3 33 14 c 0
 33 22 33 25 68 25 c 0x70
 114 25 194 19 212 18 c 0
 218 18 223 17 226 17 c 0
 235 17 236 21 238 46 c 0
 240 62 243 84 245 96 c 0
 249 122 237 71 263 426 c 0
 267 481 271 547 272 571 c 2
 274 615 l 1
 241 621 l 2
 230 623 215 624 198 624 c 0
 159 624 109 620 80 620 c 0xb0
EndSplineSet
EndChar

StartChar: underscore
Encoding: 95 95 64
Width: 601
Flags: W
HStem: 25 49<277.938 557.327>
LayerCount: 2
Fore
SplineSet
286 63 m 2
 353 63 432 74 493 74 c 0
 542 74 558 68 558 52 c 0
 558 46 555 22 513 22 c 0
 494 22 506 25 466 25 c 0
 443 25 411 23 382 20 c 0
 332 14 120 13 70 1 c 0
 53 -3 47 -1 43 9 c 0
 42 12 40 16 40 19 c 0
 40 47 97 62 200 63 c 1
 286 63 l 2
EndSplineSet
EndChar

StartChar: grave
Encoding: 96 96 65
Width: 320
Flags: W
HStem: 545 229
VStem: 38 240
LayerCount: 2
Fore
SplineSet
38 760 m 0
 38 768 39 774 65 774 c 0
 97 774 110 711 222 608 c 0
 241 590 268 564 278 548 c 1
 273 546 268 545 262 545 c 0
 231 545 184 574 135 629 c 2
 66 707 l 2
 48 727 38 748 38 760 c 0
EndSplineSet
EndChar

StartChar: a
Encoding: 97 97 66
Width: 380
Flags: W
HStem: -1 42<80.7715 173.323> 164 39<145.272 267.337> 277 45<95.9788 259.062>
VStem: 40 40<42.7709 121.258> 276 43<10.6895 118 199 258.394>
LayerCount: 2
Fore
SplineSet
319 202 m 2
 319 74 334 30 334 28 c 0
 334 23 338 17 338 9 c 0
 338 3 336 -4 327 -12 c 0
 321 -17 308 -5 302 0 c 16
 292 10 282 112 282 113 c 2
 282 118 l 1
 254 65 168 -1 136 -1 c 2
 135 -1 l 1
 80 3 40 14 40 71 c 0
 40 125 54 136 104 172 c 0
 105 173 154 203 230 203 c 0
 247 203 262 202 276 199 c 1
 276 205 l 2
 276 214 278 221 278 228 c 0
 278 238 275 246 260 259 c 0
 240 276 220 277 197 277 c 2
 166 277 l 2
 147 277 134 272 116 267 c 0
 96 261 89 246 68 244 c 1
 65 244 l 2
 52 244 36 250 36 258 c 0
 36 293 117 318 184 321 c 16
 192 321 199 322 206 322 c 0
 229 322 247 318 271 306 c 0
 293 295 300 295 309 271 c 0
 317 248 319 244 319 235 c 2
 319 202 l 2
195 77 m 0
 214 93 205 82 224 99 c 0
 237 111 228 106 252 133 c 0
 265 147 264 148 268 165 c 1
 261 164 255 164 248 164 c 2
 225 164 l 2
 197 164 184 158 166 152 c 0
 116 136 80 125 80 70 c 0
 80 44 97 41 111 41 c 2
 119 41 l 2
 136 41 163 50 195 77 c 0
EndSplineSet
EndChar

StartChar: b
Encoding: 98 98 67
Width: 420
Flags: W
HStem: 4 39<150.821 253.982> 277 44<203.014 318.868>
VStem: 40 57<93.1458 208.233> 333 46<132.443 258.132>
LayerCount: 2
Fore
SplineSet
56 391 m 0
 56 441 51 402 51 466 c 0
 51 528 57 629 64 638 c 0
 72 647 72 648 91 636 c 0
 100 631 104 625 104 612 c 0
 104 609 88 467 88 264 c 0
 88 247 88 237 89 236 c 1
 90 236 l 2
 94 236 174 308 191 308 c 0
 195 308 202 309 203 314 c 0
 203 317 222 321 243 321 c 2
 245 321 l 2
 285 321 379 299 379 215 c 0
 379 129 290 4 200 4 c 0
 197 4 194 5 191 5 c 0
 133 10 115 18 104 43 c 1
 104 43 94 66 89 66 c 0
 79 66 77 -12 62 -12 c 0
 61 -12 40 -7 40 42 c 2
 40 87 l 2
 40 109 43 121 43 168 c 0
 43 250 56 331 56 391 c 0
97 158 m 0
 97 88 163 43 201 43 c 0
 220 43 239 51 264 67 c 0
 307 95 333 165 333 213 c 0
 333 232 329 247 321 255 c 0
 307 269 278 277 251 277 c 0
 237 277 223 275 213 270 c 0
 183 255 102 215 98 170 c 0
 98 166 97 162 97 158 c 0
EndSplineSet
EndChar

StartChar: c
Encoding: 99 99 68
Width: 366
Flags: W
HStem: -5 39<121.434 275.2> 8 57<248.05 314> 288 44<138.204 230.751>
VStem: 35 53<65.6486 222.758>
LayerCount: 2
Fore
SplineSet
35 125 m 0xb0
 35 239 122 332 179 332 c 0
 193 332 210 327 233 316 c 0
 261 303 269 295 271 279 c 0
 271 276 272 273 272 271 c 0
 272 261 267 259 254 259 c 0
 225 259 216 288 191 288 c 0
 190 288 130 284 106 222 c 0
 94 190 88 162 88 137 c 0
 88 87 110 53 145 38 c 0
 148 37 164 34 184 34 c 0xb0
 255 34 288 65 316 65 c 0
 321 65 326 65 326 56 c 0
 326 42 311 15 275 8 c 4x70
 228 -1 195 -5 171 -5 c 0
 134 -5 115 4 84 22 c 4
 50 41 35 81 35 125 c 0xb0
EndSplineSet
EndChar

StartChar: d
Encoding: 100 100 69
Width: 407
Flags: W
HStem: -6 53<84.5 167.194> -1 21G<328 334> 293 50<129.392 250.771>
VStem: 38 39<136 235.041> 319 36<-0.646347 126.578> 324 42<404.689 640.99>
LayerCount: 2
Fore
SplineSet
312 279 m 1xb8
 317 313 324 516 324 517 c 0xb4
 324 571 319 612 319 625 c 0xb8
 319 641 345 641 345 641 c 1
 361 641 366 627 366 609 c 0xb4
 366 595 363 577 360 562 c 0
 351 507 348 393 348 300 c 0
 348 186 355 98 355 96 c 0
 355 47 349 4 339 0 c 0
 337 -1 335 -1 333 -1 c 0x78
 323 -1 319 9 319 25 c 0
 319 38 323 57 323 77 c 0
 323 85 323 93 321 100 c 2
 314 127 l 1
 269 80 l 2
 244 54 250 52 193 27 c 0
 163 14 122 -6 92 -6 c 0
 77 -6 67 0 59 12 c 0
 49 27 38 42 38 109 c 2
 38 116 l 1
 37 132 36 146 36 159 c 0
 36 228 56 256 102 313 c 0
 108 321 160 343 174 343 c 0
 187 343 231 341 259 315 c 1
 259 315 297 295 312 279 c 1xb8
77 136 m 0
 77 136 77 47 126 47 c 0
 139 47 154 53 166 60 c 0
 192 76 207 88 221 97 c 0
 281 136 300 196 300 207 c 0
 300 218 296 229 285 245 c 0
 257 285 269 253 227 287 c 0
 222 291 212 293 201 293 c 0
 182 293 159 288 147 280 c 0
 120 263 94 275 79 159 c 0
 78 151 77 143 77 136 c 0
EndSplineSet
EndChar

StartChar: e
Encoding: 101 101 70
Width: 409
Flags: W
HStem: -5 35<129.011 242.148> 294 37<147.361 270.768>
VStem: 35 54<137.256 235.672> 286 41<223.923 279>
LayerCount: 2
Fore
SplineSet
35 167 m 0
 35 213 84 331 211 331 c 0
 251 331 283 319 294 306 c 0
 314 282 327 255 327 233 c 0
 327 222 323 213 316 205 c 0
 306 195 294 182 289 175 c 0
 269 148 141 102 87 102 c 1
 108 48 133 41 179 32 c 0
 183 31 186 30 190 30 c 0
 229 30 321 98 362 98 c 0
 370 98 374 95 374 88 c 0
 374 80 314 40 259 11 c 0
 242 2 215 -5 186 -5 c 0
 146 -5 102 8 70 47 c 0
 47 76 35 145 35 167 c 0
285 261 m 0
 284 265 261 294 209 294 c 0
 166 294 123 270 101 225 c 0
 91 205 89 177 89 157 c 0
 89 148 90 141 90 137 c 1
 108 141 121 147 140 149 c 0
 176 154 286 222 286 257 c 0
 286 258 285 260 285 261 c 0
EndSplineSet
EndChar

StartChar: f
Encoding: 102 102 71
Width: 366
Flags: W
HStem: 319 38<203.696 329.375> 591 48<216.152 306.339>
VStem: 146 50<-4.85574 308 349.714 572.879> 162 34<459.083 565.343>
LayerCount: 2
Fore
SplineSet
144 52 m 0xe0
 144 80 147 120 147 121 c 0
 147 128 146 134 146 145 c 2
 146 164 l 1
 148 308 l 1
 118 306 l 2
 106 305 94 305 82 305 c 0
 63 305 32 305 32 322 c 0
 32 342 48 340 86 344 c 0
 112 347 144 348 146 356 c 0
 147 360 148 371 148 392 c 0
 148 403 148 417 147 434 c 0
 147 443 146 451 146 458 c 0xe0
 146 480 162 573 162 574 c 0xd0
 166 598 195 639 243 639 c 0
 256 639 269 636 283 630 c 0
 310 618 320 613 320 593 c 0
 320 585 315 582 307 582 c 0
 293 582 273 591 264 591 c 2
 263 591 l 2
 220 591 207 570 201 518 c 0
 198 488 196 461 196 439 c 0
 196 394 201 364 202 349 c 1
 238 350 286 356 304 357 c 1
 305 357 l 2
 319 357 331 342 331 330 c 0
 331 325 329 321 324 319 c 0
 319 317 240 320 199 312 c 1
 199 295 196 214 196 151 c 0
 196 132 197 115 197 101 c 2
 197 72 l 2
 197 14 189 -4 173 -5 c 1
 170 -5 l 2
 151 -5 144 8 144 52 c 0xe0
EndSplineSet
EndChar

StartChar: g
Encoding: 103 103 72
Width: 435
Flags: W
HStem: -342 53<87.248 216.134> -24 50<163.075 286.37> 289 40<147.644 271.658>
VStem: 35 51<94.5881 233.826> 341 45<97.5337 221.694 277 313.446>
LayerCount: 2
Fore
SplineSet
68 -293 m 0
 68 -293 69 -273 86 -273 c 0
 108 -273 154 -289 172 -289 c 2
 175 -289 l 1
 207 -285 243 -249 263 -200 c 0
 278 -163 294 -78 294 -38 c 0
 294 -33 293 -28 293 -25 c 0
 292 -15 291 -11 284 -11 c 0
 273 -11 253 -24 216 -24 c 0
 131 -24 39 51 35 153 c 1
 35 158 l 2
 35 215 74 276 115 300 c 0
 136 312 189 325 222 329 c 1
 226 329 l 2
 259 329 323 293 341 277 c 1
 341 286 l 2
 341 296 340 298 340 299 c 0
 340 301 341 302 342 314 c 0
 343 321 359 326 368 325 c 0
 377 324 377 317 378 311 c 16
 383 268 386 242 386 223 c 2
 386 200 l 2
 386 186 387 171 387 153 c 0
 387 85 378 125 372 16 c 0
 370 -23 358 -76 352 -98 c 0
 318 -227 311 -243 265 -290 c 0
 223 -332 215 -336 175 -341 c 0
 171 -341 167 -342 163 -342 c 0
 122 -342 68 -320 68 -293 c 0
298 252 m 0
 285 269 226 289 204 289 c 0
 202 289 201 288 200 288 c 0
 136 277 86 234 86 166 c 0
 86 162 87 159 87 155 c 0
 92 92 104 98 137 65 c 0
 155 47 206 26 240 26 c 0
 258 26 276 31 284 41 c 0
 291 50 307 67 318 94 c 0
 329 120 337 141 337 164 c 0
 337 189 327 215 298 252 c 0
EndSplineSet
EndChar

StartChar: h
Encoding: 104 104 73
Width: 432
Flags: W
HStem: 0 21G<64 92> 290 38<204.068 321.199>
VStem: 47 65<2.33504 212.346> 47 56<253.051 630.485> 62 41<483.447 644.816> 326 52<-6.08145 179.84> 338 47<18.4062 276.373>
LayerCount: 2
Fore
SplineSet
47 163 m 2xe2
 47 286 41 443 41 446 c 0
 41 555 53 588 62 614 c 0xc8
 69 635 77 645 84 645 c 0
 103 645 103 590 103 572 c 0
 103 571 99 538 99 470 c 0
 99 362 103 327 103 326 c 2
 103 312 l 2
 103 296 102 282 102 272 c 0
 102 261 103 254 104 253 c 0
 118 244 150 328 281 328 c 0
 325 328 355 315 374 286 c 0
 382 274 385 230 385 182 c 0xd2
 385 136 382 85 378 54 c 0
 371 4 366 -6 348 -8 c 1
 346 -8 l 2
 333 -8 326 5 326 36 c 0xc4
 326 80 338 136 338 193 c 0
 338 263 322 290 273 290 c 0
 249 290 220 281 190 264 c 0
 135 232 113 211 112 66 c 0
 112 21 103 0 81 0 c 0
 47 0 47 41 47 88 c 2
 47 163 l 2xe2
EndSplineSet
EndChar

StartChar: i
Encoding: 105 105 74
Width: 158
Flags: W
HStem: 0 21G<61 97> 393 87<44.871 111.586>
VStem: 41 78<396.125 473.174> 42 56<114.316 313.247> 49 46<3.0015e-08 314.561>
LayerCount: 2
Fore
SplineSet
75 314 m 0xd0
 94 306 98 297 98 270 c 0xd0
 98 248 95 213 95 157 c 2
 95 137 l 1
 97 0 l 1
 71 0 l 2
 51 0 46 1 46 18 c 0
 46 22 47 26 47 32 c 0
 49 60 49 87 49 111 c 0xc8
 49 182 44 236 42 266 c 1
 42 273 l 2
 42 321 67 317 75 314 c 0xd0
77 393 m 0
 59 393 41 398 41 433 c 0
 41 450 45 480 75 480 c 0
 92 480 119 466 119 431 c 0xe0
 119 411 110 393 77 393 c 0
EndSplineSet
EndChar

StartChar: j
Encoding: 106 106 75
Width: 303
Flags: W
HStem: -113 49<46.1097 162.449> 306 20G<219 219> 393 87<189.949 257.326>
VStem: 186 78<396.149 473.193> 191 55<-16.9485 213 213.017 220 220.015 317.247>
LayerCount: 2
Fore
SplineSet
54 -52 m 0xe8
 72 -52 78 -64 112 -64 c 0
 134 -64 156 -58 161 -49 c 0
 171 -32 193 64 193 87 c 2
 193 213 l 1
 193 213 191 236 191 264 c 0
 191 282 192 302 195 318 c 0
 196 327 219 326 219 326 c 1
 219 326 239 326 241 318 c 0
 245 303 246 283 246 266 c 0
 246 241 243 220 243 220 c 2
 243 210 244 200 244 191 c 0
 244 102 233 21 218 -48 c 0
 210 -82 206 -88 183 -97 c 0
 155 -107 123 -113 96 -113 c 0
 32 -113 31 -76 31 -74 c 0
 31 -62 40 -52 54 -52 c 0xe8
223 393 m 0
 200 393 186 401 186 433 c 0
 186 450 190 480 220 480 c 0
 229 480 264 474 264 431 c 0xf0
 264 414 257 393 223 393 c 0
EndSplineSet
EndChar

StartChar: k
Encoding: 107 107 76
Width: 430
Flags: W
HStem: 1 21G<68 88> 9 37<312.861 393.235>
VStem: 48 59<1.79349 174.758> 71 41<79.6866 183.75 251 470.958>
LayerCount: 2
Fore
SplineSet
71 265 m 0x90
 71 401 35 589 35 639 c 0
 35 643 35 645 42 645 c 0
 52 645 71 639 78 631 c 0
 90 619 111 387 111 285 c 1
 112 251 l 1
 154 277 l 2
 156 279 298 430 314 433 c 1
 316 433 l 2
 327 433 333 419 333 403 c 0
 333 388 328 371 319 361 c 0
 214 248 193 223 193 201 c 0
 193 172 235 132 258 110 c 0
 304 66 324 54 355 46 c 0
 383 39 395 30 395 23 c 0
 395 15 382 9 358 9 c 0x50
 306 9 262 26 190 116 c 0
 171 141 156 168 153 168 c 0
 151 168 144 187 137 187 c 0
 134 187 131 183 128 173 c 0
 111 116 110 119 107 48 c 0
 106 14 98 1 78 1 c 2
 77 1 l 2
 59 1 48 10 48 44 c 0xa0
 48 94 71 163 71 265 c 0x90
EndSplineSet
EndChar

StartChar: l
Encoding: 108 108 77
Width: 156
Flags: W
HStem: -0 21G<68 78.5> 679 20G<68 84>
VStem: 38 68<6.14026 265.978> 53 51<33.1441 696.461>
LayerCount: 2
Fore
SplineSet
26 700 m 1048xc0
53 427 m 2xd0
 53 528 47 691 47 694 c 0
 47 696 47 697 63 698 c 0
 65 698 67 699 69 699 c 0
 99 699 101 679 104 488 c 0
 105 420 105 345 105 287 c 2
 105 211 l 2
 105 194 104 174 104 156 c 0xd0
 104 125 105 96 106 80 c 1
 106 69 l 2
 106 27 89 0 68 -0 c 0
 68 0 38 1 38 32 c 0xe0
 38 56 53 106 53 195 c 2
 53 206 l 1
 52 229 52 266 52 305 c 0
 52 333 53 363 53 388 c 2
 53 427 l 2xd0
EndSplineSet
EndChar

StartChar: m
Encoding: 109 109 78
Width: 516
Flags: W
HStem: 260 44<202.788 257.256> 277 45<367.373 418.855>
VStem: 38 84<42.1209 157.837> 56 58<273.743 320.967> 66 46<197.022 300.764> 249 59<14.7082 222.496> 407 50<-0.86409 262.855> 419 52<93.6862 293.5>
LayerCount: 2
Fore
SplineSet
56 309 m 0x94
 56 314 70 322 84 322 c 0
 94 322 114 316 114 301 c 0x54
 114 296 112 289 112 273 c 2
 112 266 l 1
 114 227 113 197 117 197 c 0
 121 197 140 244 149 253 c 0
 174 279 219 304 243 304 c 2
 245 304 l 2x8c
 260 304 272 304 295 294 c 1
 315 266 l 1
 339 280 l 6
 365 295 384 322 417 322 c 0
 429 322 445 318 462 308 c 4
 469 304 471 298 471 289 c 0x4d
 471 278 468 262 464 240 c 0
 459 212 460 129 457 95 c 0
 454 61 449 1 446 -1 c 0
 443 -3 434 -3 426 0 c 0
 415 4 407 53 407 112 c 0x46
 407 189 419 261 419 263 c 0
 419 272 413 277 403 277 c 0x45
 372 277 308 233 308 156 c 2
 308 148 l 2
 308 81 292 3 275 3 c 0
 262 3 249 46 249 106 c 0
 249 154 259 192 259 224 c 0
 259 246 253 260 231 260 c 0
 207 260 129 147 122 117 c 0
 101 29 80 -14 57 -14 c 0
 56 -14 38 -14 38 8 c 0xa5
 38 41 66 168 66 244 c 0x8c
 66 299 56 300 56 309 c 0x94
EndSplineSet
EndChar

StartChar: n
Encoding: 110 110 79
Width: 406
Flags: W
HStem: 268 40<218.538 296.343>
VStem: 53 51<155.016 314.25> 284 55<4.16577 152.284> 308 54<63.6663 260.704>
LayerCount: 2
Fore
SplineSet
53 184 m 0xd0
 53 185 51 261 51 279 c 0
 51 311 53 318 61 320 c 0
 62 320 104 327 104 253 c 0
 104 244 103 232 102 219 c 2
 96 154 l 1
 108 203 117 213 136 235 c 0
 164 268 224 308 275 308 c 0
 344 308 362 230 362 210 c 0xd0
 362 175 339 88 339 44 c 0
 339 18 328 3 312 3 c 0
 312 3 284 5 284 28 c 0xe0
 284 57 308 122 308 190 c 0
 308 238 294 268 266 268 c 0
 243 268 211 248 170 204 c 0
 80 107 120 -7 56 -7 c 0
 45 -7 39 1 39 19 c 0
 39 52 53 81 53 184 c 0xd0
EndSplineSet
EndChar

StartChar: o
Encoding: 111 111 80
Width: 389
Flags: W
HStem: -7 44<113.166 234.192> 293 40<170.344 250.226>
VStem: 35 50<66.6584 204.957> 300 44<110.586 248.349>
LayerCount: 2
Fore
SplineSet
161 -7 m 0
 101 -7 35 63 35 133 c 0
 35 196 80 264 161 317 c 0
 177 327 199 333 223 333 c 2
 228 333 l 2
 259 333 264 329 300 291 c 2
 340 249 l 1
 343 187 l 2
 344 173 344 163 344 154 c 0
 344 124 338 116 312 79 c 0
 272 23 219 -7 161 -7 c 0
85 131 m 0
 85 85 118 37 158 37 c 0
 163 37 170 38 177 39 c 0
 229 44 249 61 293 132 c 0
 298 140 300 150 300 166 c 0
 300 232 282 247 261 265 c 0
 244 279 223 292 216 293 c 1
 214 293 l 2
 183 293 85 221 85 131 c 0
EndSplineSet
EndChar

StartChar: Agrave
Encoding: 192 192 81
Width: 489
Flags: W
HStem: 280 41<202 283.46> 289 43<203.545 315.297>
VStem: 220 56<499.25 638.715>
LayerCount: 2
Fore
SplineSet
284 289 m 0x60
 273 289 228 280 203 280 c 0xa0
 180 280 176 198 133 105 c 0
 91 15 84 5 63 5 c 0
 43 5 33 10 33 23 c 0
 33 35 41 54 58 82 c 0
 105 161 135 277 163 371 c 0
 205 512 212 501 220 584 c 0
 227 654 237 654 246 654 c 0
 254 654 263 649 270 639 c 0
 274 633 276 622 276 603 c 0
 276 592 275 580 274 564 c 1
 274 556 l 2
 274 518 300 502 316 468 c 0
 330 439 342 407 370 315 c 0
 398 223 410 122 423 89 c 0
 444 34 454 5 454 -8 c 0
 454 -16 450 -18 444 -18 c 0
 436 -18 425 -16 419 -13 c 0
 407 -7 379 79 361 152 c 0
 345 213 335 289 284 289 c 0x60
203 321 m 0
 215 321 202 332 277 332 c 0x60
 304 332 316 335 316 346 c 0
 316 353 306 365 291 411 c 0
 275 461 260 496 254 498 c 0
 240 498 238 423 216 363 c 0
 207 338 202 327 202 323 c 0
 202 322 202 321 203 321 c 0
62 878 m 0
 62 886 63 892 89 892 c 0
 103 892 112 885 142 841 c 0
 182 784 237 754 259 718 c 1
 254 716 248 714 242 714 c 0
 211 714 165 744 116 799 c 1
 90 825 l 2
 72 843 62 866 62 878 c 0
EndSplineSet
EndChar

StartChar: Egrave
Encoding: 200 200 82
Width: 534
Flags: W
HStem: -25 82<96.6842 199.651> 11 48<139.016 495.15> 297 42<106.094 396.576> 602 39<130.518 443.368> 701 21G<270.5 289>
VStem: 47 58<233 293> 49 57<339.008 582.433> 49 45<57 292.062>
LayerCount: 2
Fore
SplineSet
466 590 m 2xbc
 465 590 429 602 338 602 c 0
 298 602 265 598 190 593 c 0
 149 590 113 601 112 540 c 0
 111 484 106 410 106 369 c 0xba
 106 350 107 339 110 339 c 0
 116 339 134 341 150 341 c 0
 175 341 154 339 189 339 c 0
 212 339 247 340 292 340 c 0
 309 340 326 341 346 340 c 0
 376 339 388 335 397 322 c 0
 404 313 405 304 401 301 c 0
 397 299 368 297 335 297 c 2
 326 297 l 2
 289 297 232 297 181 298 c 1
 105 293 l 1xbc
 98 233 l 2
 97 219 94 185 94 154 c 2
 94 119 l 2
 94 112 94 108 95 95 c 2
 97 57 l 1
 146 60 l 1
 153 60 l 2
 177 60 229 56 283 56 c 0
 294 56 304 57 315 57 c 0xb9
 351 58 381 59 405 59 c 0
 473 59 497 53 497 39 c 0
 497 38 496 36 496 35 c 0
 490 10 384 19 342 11 c 0x79
 332 9 292 6 253 4 c 0
 214 2 192 -7 139 -11 c 0
 99 -14 75 -25 61 -25 c 0
 47 -25 43 -14 43 25 c 0
 43 28 49 156 49 290 c 0xb9
 49 360 48 427 47 468 c 1
 47 505 l 2
 47 566 51 627 67 629 c 0
 129 635 215 641 290 641 c 0
 357 641 415 637 438 625 c 0
 464 611 475 604 475 598 c 0
 475 595 473 593 468 590 c 1
 466 590 l 2xbc
106 864 m 0
 106 869 108 873 110 875 c 0
 117 878 133 879 133 879 c 2
 147 879 156 872 186 828 c 0
 222 776 278 743 303 704 c 1
 298 702 292 701 286 701 c 0
 255 701 209 730 160 785 c 1
 134 811 l 2
 116 829 106 852 106 864 c 0
EndSplineSet
EndChar

StartChar: Igrave
Encoding: 204 204 83
Width: 492
Flags: W
HStem: 3 48<57.416 191.211> 584 56<80.2451 218.778> 607 41<294.29 446> 644 20G<235.5 275.5>
VStem: 212 34<85.0137 255.463>
LayerCount: 2
Fore
SplineSet
169 640 m 2xc8
 238 640 213 664 258 664 c 0xd8
 293 664 263 648 339 648 c 0
 344 648 350 649 355 649 c 2
 379 649 l 2
 413 649 423 646 437 635 c 0
 449 626 456 620 456 615 c 0
 456 608 443 605 415 605 c 0
 370 605 389 607 347 607 c 0xa8
 318 607 300 604 294 600 c 0
 269 581 262 153 252 99 c 0
 249 81 246 65 246 60 c 0
 246 56 386 53 425 32 c 0
 453 17 454 17 456 14 c 2
 456 14 459 2 453 1 c 0
 451 1 443 0 431 0 c 0
 383 0 271 3 271 3 c 1
 78 5 33 13 33 40 c 0
 33 60 45 60 67 60 c 2
 72 60 l 2
 106 60 166 51 167 51 c 0
 202 51 208 144 212 231 c 0
 215 301 217 330 223 395 c 0
 227 445 230 532 230 571 c 0
 230 583 230 590 229 591 c 0
 228 592 225 592 220 592 c 0
 194 592 163 584 130 584 c 0
 96 584 79 594 79 614 c 0
 79 638 89 640 136 640 c 2
 169 640 l 2xc8
73 888 m 0
 73 896 74 902 100 902 c 0
 114 902 123 895 153 851 c 0
 190 799 247 765 270 728 c 1
 265 726 260 724 254 724 c 0
 223 724 176 754 127 809 c 1
 101 835 l 2
 83 853 73 876 73 888 c 0
EndSplineSet
EndChar

StartChar: Ograve
Encoding: 210 210 84
Width: 586
Flags: W
HStem: -2 36<196.991 332.337> 582 45<272.519 405.308>
VStem: 37 49<152.932 391.016> 505 42<249.837 467.867>
LayerCount: 2
Fore
SplineSet
257 609 m 4
 272 616 309 627 326 627 c 0
 347 627 385 617 414 601 c 4
 478 565 495 546 520 485 c 4
 539 439 547 409 547 376 c 0
 547 326 528 269 526 219 c 4
 525 198 520 174 515 165 c 4
 501 138 404 45 367 23 c 4
 335 5 318 -2 290 -2 c 0
 277 -2 260 -1 240 2 c 4
 158 13 114 42 74 114 c 4
 49 160 37 207 37 267 c 0
 37 299 40 335 47 377 c 4
 60 454 123 511 161 540 c 4
 177 552 185 557 198 567 c 4
 219 583 232 597 257 609 c 4
199 515 m 12
 122 434 86 393 86 249 c 0
 86 216 90 197 107 155 c 4
 128 102 135 92 165 70 c 4
 195 48 238 34 274 34 c 0
 283 34 293 35 301 37 c 4
 332 45 387 87 433 136 c 4
 467 173 471 182 487 264 c 4
 499 328 505 360 505 386 c 0
 505 409 500 426 491 456 c 4
 454 580 364 582 357 582 c 0
 309 582 227 545 199 515 c 12
141 850 m 0
 141 855 143 859 145 861 c 0
 152 864 168 865 168 865 c 2
 182 865 191 858 221 814 c 0
 257 762 313 729 338 690 c 1
 333 688 328 687 322 687 c 0
 291 687 244 717 195 772 c 1
 169 797 l 2
 151 815 141 838 141 850 c 0
EndSplineSet
EndChar

StartChar: Ugrave
Encoding: 217 217 85
Width: 508
Flags: W
HStem: -4 42<175.285 281.721> 701 21G<249.5 268>
VStem: 41 56<181.229 597.456>
LayerCount: 2
Fore
SplineSet
274 51 m 0
 354 113 368 244 375 292 c 0
 387 376 398 432 407 538 c 0
 411 597 420 641 445 641 c 0
 457 641 463 631 469 620 c 4
 472 615 472 597 472 591 c 0
 472 553 456 545 439 396 c 0
 432 341 426 288 398 186 c 0
 398 185 390 153 370 94 c 0
 347 26 297 -4 222 -4 c 0
 112 -4 86 65 57 207 c 0
 46 259 41 327 41 396 c 0
 41 401 39 430 39 466 c 0
 39 521 44 592 69 624 c 0
 77 634 81 641 93 641 c 0
 108 641 116 638 116 616 c 0
 116 603 114 602 110 577 c 0
 102 530 104 512 98 375 c 0
 98 369 97 363 97 356 c 0
 97 273 116 147 136 100 c 0
 146 76 191 38 234 38 c 0
 248 38 262 41 274 51 c 0
84 864 m 0
 84 869 86 873 88 875 c 0
 95 878 111 879 111 879 c 2
 125 879 134 872 164 828 c 0
 200 776 256 743 281 704 c 1
 276 702 271 701 265 701 c 0
 234 701 187 731 138 786 c 1
 112 812 l 2
 94 830 84 852 84 864 c 0
EndSplineSet
EndChar

StartChar: agrave
Encoding: 224 224 86
Width: 389
Flags: W
HStem: -1 42<92.6752 184.323> 164 39<155.866 277.658> 277 45<107.389 270.062>
VStem: 50 41<42.7035 121.955> 288 42<9.37354 118 199 258.394>
LayerCount: 2
Fore
SplineSet
329 202 m 0
 329 97 345 30 345 28 c 0
 345 23 349 17 349 9 c 0
 349 3 346 -4 337 -12 c 0
 331 -17 319 -5 313 0 c 16
 301 12 292 112 292 113 c 0
 292 115 293 116 293 118 c 1
 265 65 179 -1 147 -1 c 2
 145 -1 l 1
 90 3 50 14 50 71 c 0
 50 126 71 140 115 172 c 0
 116 173 164 203 241 203 c 0
 258 203 273 202 287 199 c 1
 287 205 l 2
 287 214 288 221 288 228 c 0
 288 238 286 246 271 259 c 0
 251 276 231 277 208 277 c 2
 177 277 l 2
 158 277 145 272 127 267 c 0
 107 261 100 246 79 244 c 1
 75 244 l 2
 62 244 47 250 47 258 c 0
 47 297 136 318 195 321 c 16
 203 321 209 322 216 322 c 0
 239 322 258 318 282 306 c 0
 304 295 311 295 320 271 c 0
 328 248 330 244 330 235 c 0
 330 229 329 220 329 202 c 0
205 77 m 0
 224 93 215 82 234 99 c 0
 247 111 239 106 263 133 c 0
 276 147 274 148 278 165 c 1
 271 164 265 164 258 164 c 2
 236 164 l 2
 208 164 195 158 177 152 c 0
 127 136 91 125 91 70 c 0
 91 44 108 41 122 41 c 2
 130 41 l 2
 147 41 173 50 205 77 c 0
33 556 m 0
 33 561 35 565 37 567 c 0
 44 570 59 571 59 571 c 2
 73 571 83 564 113 520 c 0
 134 490 136 490 173 456 c 0
 192 438 220 412 230 396 c 1
 225 394 219 393 213 393 c 0
 182 393 136 423 87 478 c 1
 61 503 l 2
 43 521 33 544 33 556 c 0
EndSplineSet
EndChar

StartChar: egrave
Encoding: 232 232 87
Width: 416
Flags: W
HStem: -5 35<136.487 250.148> 294 37<154.733 277.598>
VStem: 42 54<137.256 235.672> 293 41<223.923 279>
LayerCount: 2
Fore
SplineSet
42 167 m 0
 42 213 93 331 218 331 c 0
 258 331 291 319 302 306 c 0
 322 282 334 255 334 233 c 0
 334 222 331 213 324 205 c 0
 314 195 302 182 297 175 c 0
 277 148 147 102 95 102 c 1
 116 48 140 41 186 32 c 0
 190 31 194 30 198 30 c 0
 237 30 329 98 370 98 c 0
 378 98 382 95 382 88 c 0
 382 80 322 40 267 11 c 0
 250 2 223 -5 194 -5 c 0
 154 -5 109 8 77 47 c 0
 54 76 42 145 42 167 c 0
293 261 m 1
 292 265 267 294 216 294 c 0
 173 294 130 270 108 225 c 0
 98 205 96 177 96 157 c 0
 96 148 97 141 97 137 c 1
 115 141 129 147 148 149 c 0
 184 154 293 222 293 257 c 2
 293 261 l 1
34 556 m 0
 34 561 36 565 38 567 c 0
 45 570 61 571 61 571 c 2
 75 571 84 564 114 520 c 0
 150 468 206 435 231 396 c 1
 226 394 221 393 215 393 c 0
 184 393 137 423 88 478 c 1
 62 503 l 2
 44 521 34 544 34 556 c 0
EndSplineSet
EndChar

StartChar: igrave
Encoding: 236 236 88
Width: 292
Flags: W
HStem: 0 21G<206 242>
VStem: 186 57<114.316 313.247> 194 46<3.0015e-08 272.861>
LayerCount: 2
Fore
SplineSet
220 314 m 0xc0
 239 306 243 297 243 270 c 0xc0
 243 248 240 213 240 157 c 2
 240 137 l 1
 242 0 l 1
 216 0 l 2
 196 0 191 1 191 18 c 2
 191 32 l 1
 193 60 194 87 194 111 c 0xa0
 194 182 189 236 187 266 c 0
 187 269 186 270 186 273 c 0
 186 311 205 320 220 314 c 0xc0
33 556 m 0
 33 561 35 565 37 567 c 0
 44 570 60 571 60 571 c 2
 74 571 83 564 113 520 c 0
 134 490 136 490 173 456 c 0
 192 438 220 412 230 396 c 1
 225 394 219 393 213 393 c 0
 182 393 136 423 87 478 c 1
 61 503 l 2
 43 521 33 544 33 556 c 0
EndSplineSet
EndChar

StartChar: ograve
Encoding: 242 242 89
Width: 386
Flags: W
HStem: -7 44<112.166 233.192> 293 40<169.344 249.226>
VStem: 34 50<66.6584 204.957> 299 44<110.586 248.349>
LayerCount: 2
Fore
SplineSet
160 -7 m 0
 100 -7 34 63 34 133 c 0
 34 196 79 264 160 317 c 0
 176 327 198 333 222 333 c 2
 227 333 l 2
 258 333 263 329 299 291 c 2
 339 249 l 1
 342 187 l 2
 343 173 343 163 343 154 c 0
 343 124 337 116 311 79 c 0
 271 23 218 -7 160 -7 c 0
84 131 m 0
 84 85 117 37 157 37 c 0
 162 37 169 38 176 39 c 0
 228 44 248 61 292 132 c 0
 297 140 299 150 299 166 c 0
 299 232 281 247 260 265 c 0
 243 279 222 292 215 293 c 1
 213 293 l 2
 182 293 84 221 84 131 c 0
40 556 m 0
 40 561 42 565 44 567 c 0
 51 570 66 571 66 571 c 2
 80 571 90 564 120 520 c 0
 141 490 143 490 180 456 c 0
 199 438 227 412 237 396 c 1
 232 394 226 393 220 393 c 0
 189 393 142 423 93 478 c 1
 68 503 l 2
 50 521 40 544 40 556 c 0
EndSplineSet
EndChar

StartChar: acute
Encoding: 180 180 90
Width: 282
Flags: W
HStem: 602 179
VStem: 45 193
LayerCount: 2
Fore
SplineSet
238 766 m 0
 238 754 229 732 211 714 c 2
 185 688 l 2
 133 636 97 610 72 602 c 1
 72 602 45 596 45 603 c 0
 45 616 85 648 101 667 c 0
 130 701 130 696 159 730 c 0
 194 771 198 781 212 781 c 2
 212 781 227 783 234 780 c 0
 236 778 238 771 238 766 c 0
EndSplineSet
EndChar

StartChar: Aacute
Encoding: 193 193 91
Width: 489
Flags: W
HStem: 280 41<202 283.46> 289 43<203.545 315.297>
VStem: 220 56<499.25 638.715>
LayerCount: 2
Fore
SplineSet
284 289 m 0x60
 273 289 228 280 203 280 c 0xa0
 180 280 176 198 133 105 c 0
 91 15 84 5 63 5 c 0
 43 5 33 10 33 23 c 0
 33 35 41 54 58 82 c 0
 105 161 135 277 163 371 c 0
 205 512 212 501 220 584 c 0
 227 654 237 654 246 654 c 0
 254 654 263 649 270 639 c 0
 274 633 276 622 276 603 c 0
 276 592 275 580 274 564 c 1
 274 556 l 2
 274 518 300 502 316 468 c 0
 330 439 342 407 370 315 c 0
 398 223 410 122 423 89 c 0
 444 34 454 5 454 -8 c 0
 454 -16 450 -18 444 -18 c 0
 436 -18 425 -16 419 -13 c 0
 407 -7 379 79 361 152 c 0
 345 213 335 289 284 289 c 0x60
203 321 m 0
 215 321 202 332 277 332 c 0x60
 304 332 316 335 316 346 c 0
 316 353 306 365 291 411 c 0
 275 461 260 496 254 498 c 0
 240 498 238 423 216 363 c 0
 207 338 202 327 202 323 c 0
 202 322 202 321 203 321 c 0
430 881 m 0
 430 869 421 846 403 828 c 2
 377 803 l 1
 325 751 289 725 264 717 c 1
 264 717 237 711 237 718 c 0
 237 731 277 763 293 782 c 0
 322 816 322 811 351 845 c 0
 386 886 390 896 404 896 c 2
 404 896 420 898 427 895 c 0
 429 893 430 886 430 881 c 0
EndSplineSet
EndChar

StartChar: Eacute
Encoding: 201 201 92
Width: 534
Flags: W
HStem: -25 82<96.6842 199.651> 11 48<139.016 495.15> 297 42<106.094 396.576> 602 39<130.518 443.368>
VStem: 47 58<233 293> 49 57<339.008 582.433> 49 45<57 292.062>
LayerCount: 2
Fore
SplineSet
466 590 m 2xb8
 465 590 429 602 338 602 c 0
 298 602 265 598 190 593 c 0
 149 590 113 601 112 540 c 0
 111 484 106 410 106 369 c 0xb4
 106 350 107 339 110 339 c 0
 116 339 134 341 150 341 c 0
 175 341 154 339 189 339 c 0
 212 339 247 340 292 340 c 0
 309 340 326 341 346 340 c 0
 376 339 388 335 397 322 c 0
 404 313 405 304 401 301 c 0
 397 299 368 297 335 297 c 2
 326 297 l 2
 289 297 232 297 181 298 c 1
 105 293 l 1xb8
 98 233 l 2
 97 219 94 185 94 154 c 2
 94 119 l 2
 94 112 94 108 95 95 c 2
 97 57 l 1
 146 60 l 1
 153 60 l 2
 177 60 229 56 283 56 c 0
 294 56 304 57 315 57 c 0xb2
 351 58 381 59 405 59 c 0
 473 59 497 53 497 39 c 0
 497 38 496 36 496 35 c 0
 490 10 384 19 342 11 c 0x72
 332 9 292 6 253 4 c 0
 214 2 192 -7 139 -11 c 0
 99 -14 75 -25 61 -25 c 0
 47 -25 43 -14 43 25 c 0
 43 28 49 156 49 290 c 0xb2
 49 360 48 427 47 468 c 1
 47 505 l 2
 47 566 51 627 67 629 c 0
 129 635 215 641 290 641 c 0
 357 641 415 637 438 625 c 0
 464 611 475 604 475 598 c 0
 475 595 473 593 468 590 c 1
 466 590 l 2xb8
475 868 m 0
 475 856 465 833 447 815 c 2
 421 789 l 2
 369 737 333 711 308 703 c 1
 308 703 281 697 281 704 c 0
 281 717 321 749 337 768 c 0
 366 802 366 797 395 831 c 0
 430 872 434 882 448 882 c 2
 448 882 464 884 471 881 c 0
 473 879 475 873 475 868 c 0
EndSplineSet
EndChar

StartChar: Iacute
Encoding: 205 205 93
Width: 492
Flags: W
HStem: 3 48<57.416 191.211> 584 56<80.2451 218.778> 607 41<294.29 446> 644 20G<235.5 275.5>
VStem: 212 34<85.0137 255.463>
LayerCount: 2
Fore
SplineSet
169 640 m 2xc8
 238 640 213 664 258 664 c 0xd8
 293 664 263 648 339 648 c 0
 344 648 350 649 355 649 c 2
 379 649 l 2
 413 649 423 646 437 635 c 0
 449 626 456 620 456 615 c 0
 456 608 443 605 415 605 c 0
 370 605 389 607 347 607 c 0xa8
 318 607 300 604 294 600 c 0
 269 581 262 153 252 99 c 0
 249 81 246 65 246 60 c 0
 246 56 386 53 425 32 c 0
 453 17 454 17 456 14 c 2
 456 14 459 2 453 1 c 0
 451 1 443 0 431 0 c 0
 383 0 271 3 271 3 c 1
 78 5 33 13 33 40 c 0
 33 60 45 60 67 60 c 2
 72 60 l 2
 106 60 166 51 167 51 c 0
 202 51 208 144 212 231 c 0
 215 301 217 330 223 395 c 0
 227 445 230 532 230 571 c 0
 230 583 230 590 229 591 c 0
 228 592 225 592 220 592 c 0
 194 592 163 584 130 584 c 0
 96 584 79 594 79 614 c 0
 79 638 89 640 136 640 c 2
 169 640 l 2xc8
442 891 m 0
 442 879 432 856 414 838 c 2
 388 813 l 1
 336 761 300 735 275 727 c 1
 275 727 249 721 249 728 c 0
 249 741 289 773 305 792 c 0
 334 826 333 821 362 855 c 0
 397 896 401 906 415 906 c 2
 415 906 431 908 438 905 c 0
 440 903 442 896 442 891 c 0
EndSplineSet
EndChar

StartChar: Oacute
Encoding: 211 211 94
Width: 586
Flags: W
HStem: -2 36<196.991 332.337> 582 45<272.519 405.308>
VStem: 37 49<152.932 391.016> 317 26<690 694.939> 505 42<249.837 467.867>
LayerCount: 2
Fore
SplineSet
257 609 m 4
 272 616 309 627 326 627 c 0
 347 627 385 617 414 601 c 4
 478 565 495 546 520 485 c 4
 539 439 547 409 547 376 c 0
 547 326 528 269 526 219 c 4
 525 198 520 174 515 165 c 4
 501 138 404 45 367 23 c 4
 335 5 318 -2 290 -2 c 0
 277 -2 260 -1 240 2 c 4
 158 13 114 42 74 114 c 4
 49 160 37 207 37 267 c 0
 37 299 40 335 47 377 c 4
 60 454 123 511 161 540 c 4
 177 552 185 557 198 567 c 4
 219 583 232 597 257 609 c 4
199 515 m 12
 122 434 86 393 86 249 c 0
 86 216 90 197 107 155 c 4
 128 102 135 92 165 70 c 4
 195 48 238 34 274 34 c 0
 283 34 293 35 301 37 c 4
 332 45 387 87 433 136 c 4
 467 173 471 182 487 264 c 4
 499 328 505 360 505 386 c 0
 505 409 500 426 491 456 c 4
 454 580 364 582 357 582 c 0
 309 582 227 545 199 515 c 12
510 854 m 0
 510 842 500 819 482 801 c 2
 456 775 l 2
 404 723 368 698 343 690 c 1
 343 690 317 683 317 690 c 0
 317 703 357 736 373 755 c 0
 402 789 401 784 430 818 c 0
 465 859 469 868 483 868 c 2
 483 868 499 871 506 868 c 0
 508 866 510 859 510 854 c 0
EndSplineSet
EndChar

StartChar: Uacute
Encoding: 218 218 95
Width: 508
Flags: W
HStem: -4 42<175.285 281.721>
VStem: 41 56<181.229 597.456> 259 27<704 708.939>
LayerCount: 2
Fore
SplineSet
274 51 m 0
 354 113 368 244 375 292 c 0
 387 376 398 432 407 538 c 0
 411 597 420 641 445 641 c 0
 457 641 463 631 469 620 c 4
 472 615 472 597 472 591 c 0
 472 553 456 545 439 396 c 0
 432 341 426 288 398 186 c 0
 398 185 390 153 370 94 c 0
 347 26 297 -4 222 -4 c 0
 112 -4 86 65 57 207 c 0
 46 259 41 327 41 396 c 0
 41 401 39 430 39 466 c 0
 39 521 44 592 69 624 c 0
 77 634 81 641 93 641 c 0
 108 641 116 638 116 616 c 0
 116 603 114 602 110 577 c 0
 102 530 104 512 98 375 c 0
 98 369 97 363 97 356 c 0
 97 273 116 147 136 100 c 0
 146 76 191 38 234 38 c 0
 248 38 262 41 274 51 c 0
453 868 m 0
 453 856 443 833 425 815 c 2
 399 789 l 2
 347 737 311 712 286 704 c 1
 286 704 259 697 259 704 c 0
 259 717 300 750 316 769 c 0
 345 803 344 798 373 832 c 0
 408 873 412 883 426 883 c 2
 426 883 442 885 449 882 c 0
 451 880 453 873 453 868 c 0
EndSplineSet
EndChar

StartChar: Yacute
Encoding: 221 221 96
Width: 405
Flags: W
HStem: 0 21G<159.5 167.5>
VStem: 136 65<22.5537 355.344> 147 40<0.645996 191.34> 179 26<704 708.939>
LayerCount: 2
Fore
SplineSet
138 334 m 1xc0
 33 610 33 610 33 630 c 0
 33 640 36 641 46 641 c 0
 73 641 86 615 140 444 c 0
 150 412 157 398 163 398 c 0
 165 398 167 400 169 404 c 0
 172 411 213 443 254 522 c 0
 266 545 301 641 329 641 c 0
 342 641 347 634 347 625 c 0
 347 594 265 469 253 429 c 1
 193 356 l 1
 196 314 l 2
 199 271 201 231 201 196 c 0xc0
 201 96 190 33 187 22 c 0
 184 9 173 0 162 0 c 0
 157 0 152 2 147 6 c 0xa0
 141 12 136 131 136 236 c 0
 136 272 137 307 138 334 c 1xc0
372 868 m 0
 372 856 362 833 344 815 c 2
 318 789 l 2
 266 737 230 712 205 704 c 1
 205 704 179 697 179 704 c 0x90
 179 717 219 750 235 769 c 0
 264 803 263 798 292 832 c 0
 327 873 331 883 345 883 c 2
 345 883 361 885 368 882 c 0
 370 880 372 873 372 868 c 0
EndSplineSet
EndChar

StartChar: aacute
Encoding: 225 225 97
Width: 424
Flags: W
HStem: -1 42<80.6752 172.13> 164 39<143.866 265.658> 277 45<95.3892 261.91>
VStem: 38 41<42.7035 121.955> 196 27<396 400.939> 276 42<9.37354 118 199 260.703>
LayerCount: 2
Fore
SplineSet
317 202 m 0
 317 97 333 30 333 28 c 0
 333 23 337 17 337 9 c 0
 337 3 334 -4 325 -12 c 0
 319 -17 307 -5 301 0 c 16
 289 12 280 112 280 113 c 2
 280 118 l 1
 252 65 167 -1 135 -1 c 2
 133 -1 l 1
 78 3 38 14 38 71 c 0
 38 126 59 140 103 172 c 0
 104 173 152 203 229 203 c 0
 246 203 261 202 275 199 c 1
 275 205 l 2
 275 214 276 221 276 228 c 0
 276 238 273 246 258 259 c 0
 238 276 219 277 196 277 c 2
 165 277 l 2
 146 277 133 272 115 267 c 0
 95 261 88 246 67 244 c 1
 63 244 l 2
 50 244 35 250 35 258 c 0
 35 297 124 318 183 321 c 16
 191 321 197 322 204 322 c 0
 227 322 245 318 269 306 c 0
 291 295 299 295 308 271 c 0
 316 248 318 244 318 235 c 0
 318 229 317 220 317 202 c 0
193 77 m 0
 212 93 203 82 222 99 c 0
 235 111 227 106 251 133 c 0
 264 147 262 148 266 165 c 1
 259 164 253 164 246 164 c 2
 224 164 l 2
 196 164 183 158 165 152 c 0
 115 136 79 125 79 70 c 0
 79 44 96 41 110 41 c 2
 118 41 l 2
 135 41 161 50 193 77 c 0
389 560 m 0
 389 548 380 525 362 507 c 2
 336 481 l 2
 284 429 248 404 223 396 c 1
 223 396 196 389 196 396 c 0
 196 409 236 442 252 461 c 0
 281 495 281 490 310 524 c 0
 345 565 349 575 363 575 c 2
 363 575 378 577 385 574 c 0
 387 572 389 565 389 560 c 0
EndSplineSet
EndChar

StartChar: eacute
Encoding: 233 233 98
Width: 429
Flags: W
HStem: -5 35<128.214 241.024> 294 37<146.733 269.903>
VStem: 34 54<137.256 235.672> 201 27<396 400.939> 285 41<223.923 279>
LayerCount: 2
Fore
SplineSet
34 167 m 0
 34 213 85 331 210 331 c 0
 250 331 282 319 293 306 c 0
 313 282 326 255 326 233 c 0
 326 222 322 213 315 205 c 0
 305 195 293 182 288 175 c 0
 268 148 139 102 87 102 c 1
 108 48 132 41 178 32 c 0
 182 31 185 30 189 30 c 0
 228 30 320 98 361 98 c 0
 369 98 373 95 373 88 c 0
 373 80 314 40 259 11 c 0
 242 2 214 -5 185 -5 c 0
 145 -5 101 8 69 47 c 0
 46 76 34 145 34 167 c 0
285 261 m 1
 284 265 259 294 208 294 c 0
 165 294 122 270 100 225 c 0
 90 205 88 177 88 157 c 0
 88 148 89 141 89 137 c 1
 107 141 120 147 139 149 c 0
 175 154 285 222 285 257 c 2
 285 261 l 1
394 560 m 0
 394 548 385 525 367 507 c 2
 341 481 l 2
 289 429 253 404 228 396 c 1
 228 396 201 389 201 396 c 0
 201 409 241 442 257 461 c 0
 286 495 286 490 315 524 c 0
 350 565 354 575 368 575 c 2
 368 575 383 577 390 574 c 0
 392 572 394 565 394 560 c 0
EndSplineSet
EndChar

StartChar: iacute
Encoding: 237 237 99
Width: 288
Flags: W
HStem: 0 21G<57 94>
VStem: 38 57<114.316 312.867> 46 46<0 314.269> 60 27<396 400.939>
LayerCount: 2
Fore
SplineSet
71 314 m 0xc0
 90 306 95 297 95 270 c 0xc0
 95 248 92 213 92 157 c 2
 92 137 l 1
 94 0 l 1
 67 0 l 2
 47 0 43 1 43 18 c 2
 43 32 l 1
 45 60 46 87 46 111 c 0xa0
 46 182 40 236 38 266 c 1
 38 273 l 2
 38 310 55 320 71 314 c 0xc0
253 560 m 0
 253 548 244 525 226 507 c 2
 200 481 l 2
 148 429 112 404 87 396 c 1
 87 396 60 389 60 396 c 0x90
 60 409 100 442 116 461 c 0
 145 495 144 490 173 524 c 0
 208 565 213 575 227 575 c 2
 227 575 242 577 249 574 c 0
 251 572 253 565 253 560 c 0
EndSplineSet
EndChar

StartChar: oacute
Encoding: 243 243 100
Width: 443
Flags: W
HStem: -7 44<112.166 233.192> 293 40<169.344 249.226>
VStem: 34 50<66.6584 204.957> 215 27<396 400.939> 299 44<110.586 248.349>
LayerCount: 2
Fore
SplineSet
160 -7 m 0
 100 -7 34 63 34 133 c 0
 34 196 79 264 160 317 c 0
 176 327 198 333 222 333 c 2
 227 333 l 2
 258 333 263 329 299 291 c 2
 339 249 l 1
 342 187 l 2
 343 173 343 163 343 154 c 0
 343 124 337 116 311 79 c 0
 271 23 218 -7 160 -7 c 0
84 131 m 0
 84 85 117 37 157 37 c 0
 162 37 169 38 176 39 c 0
 228 44 248 61 292 132 c 0
 297 140 299 150 299 166 c 0
 299 232 281 247 260 265 c 0
 243 279 222 292 215 293 c 1
 213 293 l 2
 182 293 84 221 84 131 c 0
408 560 m 0
 408 548 399 525 381 507 c 2
 355 481 l 2
 303 429 267 404 242 396 c 1
 242 396 215 389 215 396 c 0
 215 409 255 442 271 461 c 0
 300 495 300 490 329 524 c 0
 364 565 368 575 382 575 c 2
 382 575 398 577 405 574 c 0
 407 572 408 565 408 560 c 0
EndSplineSet
EndChar

StartChar: asciitilde
Encoding: 126 126 101
Width: 466
Flags: W
HStem: 244 44<218.657 318.896> 324 53<124.011 183.5>
LayerCount: 2
Fore
SplineSet
40 264 m 0
 40 290 119 377 173 377 c 0
 194 377 207 364 207 340 c 4
 207 331 219 288 258 288 c 0
 307 288 412 369 422 369 c 4
 425 369 427 364 427 357 c 4
 427 344 327 244 253 244 c 0
 174 244 173 324 153 324 c 4
 143 324 121 303 90 262 c 4
 81 250 72 244 63 244 c 0
 50 244 40 257 40 264 c 0
EndSplineSet
EndChar

StartChar: degree
Encoding: 176 176 102
Width: 310
Flags: W
HStem: 600 36<94.0682 168.626> 793 34<151.346 215.445>
VStem: 47 37<644.773 721.408> 223 41<684.253 787.233>
LayerCount: 2
Fore
SplineSet
264 738 m 0
 264 671 173 600 121 600 c 0
 82 600 47 638 47 678 c 0
 47 703 86 777 106 790 c 0
 114 795 130 806 142 814 c 0
 156 823 171 827 184 827 c 0
 222 827 264 782 264 738 c 0
84 681 m 0
 84 669 96 636 124 636 c 0
 136 636 152 642 169 654 c 0
 208 682 223 703 223 732 c 0
 223 744 217 778 215 784 c 0
 213 790 204 793 194 793 c 0
 141 793 84 704 84 681 c 0
EndSplineSet
EndChar

StartChar: Acircumflex
Encoding: 194 194 103
Width: 489
Flags: W
HStem: 280 41<202 283.46> 289 43<203.545 315.297> 860 69<255.326 291.528>
VStem: 220 56<499.25 638.715>
LayerCount: 2
Fore
SplineSet
284 289 m 0x70
 273 289 228 280 203 280 c 0xb0
 180 280 176 198 133 105 c 0
 91 15 84 5 63 5 c 0
 43 5 33 10 33 23 c 0
 33 35 41 54 58 82 c 0
 105 161 135 277 163 371 c 0
 205 512 212 501 220 584 c 0
 227 654 237 654 246 654 c 0
 254 654 263 649 270 639 c 0
 274 633 276 622 276 603 c 0
 276 592 275 580 274 564 c 1
 274 556 l 2
 274 518 300 502 316 468 c 0
 330 439 342 407 370 315 c 0
 398 223 410 122 423 89 c 0
 444 34 454 5 454 -8 c 0
 454 -16 450 -18 444 -18 c 0
 436 -18 425 -16 419 -13 c 0
 407 -7 379 79 361 152 c 0
 345 213 335 289 284 289 c 0x70
203 321 m 0
 215 321 202 332 277 332 c 0x70
 304 332 316 335 316 346 c 0
 316 353 306 365 291 411 c 0
 275 461 260 496 254 498 c 0
 240 498 238 423 216 363 c 0
 207 338 202 327 202 323 c 0
 202 322 202 321 203 321 c 0
107 729 m 0
 107 751 255 929 290 929 c 0
 306 929 323 846 355 811 c 4
 372 792 395 742 395 726 c 0
 395 725 395 714 384 714 c 0
 371 714 351 730 343 751 c 4
 333 779 306 804 292 837 c 4
 289 846 282 860 271 860 c 0
 257 860 178 776 158 741 c 4
 148 724 141 718 127 717 c 4
 108 716 107 727 107 729 c 0
EndSplineSet
EndChar

StartChar: Atilde
Encoding: 195 195 104
Width: 489
Flags: W
HStem: 280 41<202 283.46> 289 43<203.545 315.297> 714 45<237.858 338.132> 795 53<143.416 202.5>
VStem: 220 56<499.25 638.715>
LayerCount: 2
Fore
SplineSet
284 289 m 0x78
 273 289 228 280 203 280 c 0xb8
 180 280 176 198 133 105 c 0
 91 15 84 5 63 5 c 0
 43 5 33 10 33 23 c 0
 33 35 41 54 58 82 c 0
 105 161 135 277 163 371 c 0
 205 512 212 501 220 584 c 0
 227 654 237 654 246 654 c 0
 254 654 263 649 270 639 c 0
 274 633 276 622 276 603 c 0
 276 592 275 580 274 564 c 1
 274 556 l 2
 274 518 300 502 316 468 c 0
 330 439 342 407 370 315 c 0
 398 223 410 122 423 89 c 0
 444 34 454 5 454 -8 c 0
 454 -16 450 -18 444 -18 c 0
 436 -18 425 -16 419 -13 c 0
 407 -7 379 79 361 152 c 0
 345 213 335 289 284 289 c 0x78
203 321 m 0
 215 321 202 332 277 332 c 0x78
 304 332 316 335 316 346 c 0
 316 353 306 365 291 411 c 0
 275 461 260 496 254 498 c 0
 240 498 238 423 216 363 c 0
 207 338 202 327 202 323 c 0
 202 322 202 321 203 321 c 0
60 735 m 0
 60 762 138 848 192 848 c 0
 213 848 227 835 227 811 c 0
 227 801 238 759 277 759 c 0
 326 759 431 840 442 840 c 0
 445 840 446 835 446 828 c 0
 446 814 347 714 272 714 c 0
 193 714 191 795 172 795 c 0
 162 795 141 774 110 733 c 0
 101 721 91 714 82 714 c 0
 74 714 60 722 60 735 c 0
EndSplineSet
EndChar

StartChar: Aring
Encoding: 197 197 105
Width: 489
Flags: W
HStem: 280 41<202 283.46> 289 43<203.545 315.297> 647 35<203.309 273.584> 647 7<237 254> 839 34<258.686 323.541>
VStem: 156 37<690.534 767.833> 220 56<499.25 638.715> 332 41<731.27 833.946>
LayerCount: 2
Fore
SplineSet
284 289 m 0x5f
 273 289 228 280 203 280 c 0x8f
 180 280 176 198 133 105 c 0
 91 15 84 5 63 5 c 0
 43 5 33 10 33 23 c 0
 33 35 41 54 58 82 c 0
 105 161 135 277 163 371 c 0
 205 512 212 501 220 584 c 0
 227 654 237 654 246 654 c 0
 254 654 263 649 270 639 c 0
 274 633 276 622 276 603 c 0
 276 592 275 580 274 564 c 1
 274 556 l 2
 274 518 300 502 316 468 c 0
 330 439 342 407 370 315 c 0
 398 223 410 122 423 89 c 0
 444 34 454 5 454 -8 c 0
 454 -16 450 -18 444 -18 c 0
 436 -18 425 -16 419 -13 c 0
 407 -7 379 79 361 152 c 0
 345 213 335 289 284 289 c 0x5f
203 321 m 0
 215 321 202 332 277 332 c 0x4f
 304 332 316 335 316 346 c 0
 316 353 306 365 291 411 c 0
 275 461 260 496 254 498 c 0
 240 498 238 423 216 363 c 0
 207 338 202 327 202 323 c 0
 202 322 202 321 203 321 c 0
373 784 m 0
 373 719 285 647 230 647 c 4x2f
 191 647 156 685 156 725 c 4
 156 750 194 824 214 837 c 4
 268 871 273 873 292 873 c 0
 330 873 373 829 373 784 c 0
193 727 m 0
 193 716 205 682 232 682 c 0
 244 682 260 689 277 701 c 4
 316 729 332 750 332 779 c 0
 332 794 325 825 323 831 c 4
 321 837 312 839 302 839 c 0
 244 839 197 744 196 743 c 4
 194 737 193 732 193 727 c 0
EndSplineSet
EndChar

StartChar: Ecircumflex
Encoding: 202 202 106
Width: 534
Flags: W
HStem: -25 82<96.6842 199.651> 11 48<139.016 495.15> 297 42<106.094 396.576> 602 39<130.518 443.368> 701 21G<421.5 433.5> 846 69<298.745 335.528>
VStem: 47 58<233 293> 49 57<339.008 582.433> 49 45<57 292.062>
LayerCount: 2
Fore
SplineSet
466 590 m 2xbe
 465 590 429 602 338 602 c 0
 298 602 265 598 190 593 c 0
 149 590 113 601 112 540 c 0
 111 484 106 410 106 369 c 0xbd
 106 350 107 339 110 339 c 0
 116 339 134 341 150 341 c 0
 175 341 154 339 189 339 c 0
 212 339 247 340 292 340 c 0
 309 340 326 341 346 340 c 0
 376 339 388 335 397 322 c 0
 404 313 405 304 401 301 c 0
 397 299 368 297 335 297 c 2
 326 297 l 2
 289 297 232 297 181 298 c 1
 105 293 l 1xbe
 98 233 l 2
 97 219 94 185 94 154 c 2
 94 119 l 2
 94 112 94 108 95 95 c 2
 97 57 l 1
 146 60 l 1
 153 60 l 2
 177 60 229 56 283 56 c 0
 294 56 304 57 315 57 c 0xbc80
 351 58 381 59 405 59 c 0
 473 59 497 53 497 39 c 0
 497 38 496 36 496 35 c 0
 490 10 384 19 342 11 c 0x7c80
 332 9 292 6 253 4 c 0
 214 2 192 -7 139 -11 c 0
 99 -14 75 -25 61 -25 c 0
 47 -25 43 -14 43 25 c 0
 43 28 49 156 49 290 c 0xbc80
 49 360 48 427 47 468 c 1
 47 505 l 2
 47 566 51 627 67 629 c 0
 129 635 215 641 290 641 c 0
 357 641 415 637 438 625 c 0
 464 611 475 604 475 598 c 0
 475 595 473 593 468 590 c 1
 466 590 l 2xbe
151 715 m 0
 151 736 296 915 334 915 c 0
 350 915 367 832 399 797 c 4
 416 778 439 729 439 713 c 0
 439 712 439 701 428 701 c 0
 415 701 395 717 387 738 c 4
 377 764 350 790 336 823 c 4
 333 832 326 846 315 846 c 0
 301 846 222 762 202 727 c 4
 192 710 185 705 171 704 c 4
 152 703 151 713 151 715 c 0
EndSplineSet
EndChar

StartChar: Icircumflex
Encoding: 206 206 107
Width: 492
Flags: W
HStem: 3 48<57.416 191.211> 584 56<80.2451 218.778> 607 41<294.29 446> 644 20G<235.5 275.5> 870 69<266.379 302.528>
VStem: 212 34<85.0137 255.463>
LayerCount: 2
Fore
SplineSet
169 640 m 2xcc
 238 640 213 664 258 664 c 0xdc
 293 664 263 648 339 648 c 0
 344 648 350 649 355 649 c 2
 379 649 l 2
 413 649 423 646 437 635 c 0
 449 626 456 620 456 615 c 0
 456 608 443 605 415 605 c 0
 370 605 389 607 347 607 c 0xac
 318 607 300 604 294 600 c 0
 269 581 262 153 252 99 c 0
 249 81 246 65 246 60 c 0
 246 56 386 53 425 32 c 0
 453 17 454 17 456 14 c 2
 456 14 459 2 453 1 c 0
 451 1 443 0 431 0 c 0
 383 0 271 3 271 3 c 1
 78 5 33 13 33 40 c 0
 33 60 45 60 67 60 c 2
 72 60 l 2
 106 60 166 51 167 51 c 0
 202 51 208 144 212 231 c 0
 215 301 217 330 223 395 c 0
 227 445 230 532 230 571 c 0
 230 583 230 590 229 591 c 0
 228 592 225 592 220 592 c 0
 194 592 163 584 130 584 c 0
 96 584 79 594 79 614 c 0
 79 638 89 640 136 640 c 2
 169 640 l 2xcc
119 739 m 0
 119 761 266 939 301 939 c 0
 317 939 334 856 366 821 c 4
 383 802 407 752 407 736 c 0
 407 735 407 724 396 724 c 0
 383 724 362 740 354 761 c 4
 344 789 317 814 303 847 c 4
 300 856 293 870 282 870 c 0
 268 870 189 786 169 751 c 4
 159 734 153 728 139 727 c 4
 120 726 119 737 119 739 c 0
EndSplineSet
EndChar

StartChar: Ntilde
Encoding: 209 209 108
Width: 482
Flags: W
HStem: 12 96<346.925 388.5> 701 44<241.312 339.235> 782 52<145.011 204.5>
VStem: 39 42<11.6338 345.6> 55 39<385.411 551.995> 331 78<26.3965 105.322>
LayerCount: 2
Fore
SplineSet
39 133 m 0xf4
 39 226 55 454 55 588 c 2
 55 604 l 2
 55 629 62 641 85 641 c 2
 86 641 l 2
 100 641 114 622 137 594 c 0
 175 547 325 185 333 155 c 0
 341 123 352 108 363 108 c 0
 406 108 397 635 401 639 c 0
 404 641 420 642 421 638 c 0
 423 629 425 563 425 482 c 0
 425 364 421 216 409 164 c 0
 406 153 405 142 405 131 c 0
 405 108 409 86 409 70 c 0
 409 55 400 12 377 12 c 0
 363 12 346 29 331 62 c 0
 291 152 173 467 146 508 c 0
 127 537 111 552 102 552 c 0
 96 552 93 545 93 530 c 2
 93 524 l 1
 94 501 94 471 94 439 c 0xec
 94 365 91 279 87 245 c 0
 83 211 81 177 81 146 c 0xf4
 81 62 94 51 94 26 c 0xec
 94 6 85 -4 66 -4 c 2
 61 -4 l 1
 48 -3 44 2 45 14 c 0
 47 32 39 35 39 133 c 0xf4
61 721 m 0
 61 747 140 834 194 834 c 0
 215 834 228 821 228 797 c 0
 228 784 244 745 279 745 c 0
 326 745 431 826 443 826 c 0
 446 826 448 821 448 814 c 0
 448 801 348 701 274 701 c 0
 195 701 193 782 174 782 c 0
 164 782 142 761 111 720 c 0
 102 708 93 701 84 701 c 0
 71 701 61 714 61 721 c 0
EndSplineSet
EndChar

StartChar: Ocircumflex
Encoding: 212 212 109
Width: 586
Flags: W
HStem: -2 36<196.991 332.337> 582 45<272.519 405.308> 832 69<333.799 370.75>
VStem: 37 49<152.932 391.016> 505 42<249.837 467.867>
LayerCount: 2
Fore
SplineSet
257 609 m 4
 272 616 309 627 326 627 c 0
 347 627 385 617 414 601 c 4
 478 565 495 546 520 485 c 4
 539 439 547 409 547 376 c 0
 547 326 528 269 526 219 c 4
 525 198 520 174 515 165 c 4
 501 138 404 45 367 23 c 4
 335 5 318 -2 290 -2 c 0
 277 -2 260 -1 240 2 c 4
 158 13 114 42 74 114 c 4
 49 160 37 207 37 267 c 0
 37 299 40 335 47 377 c 4
 60 454 123 511 161 540 c 4
 177 552 185 557 198 567 c 4
 219 583 232 597 257 609 c 4
199 515 m 12
 122 434 86 393 86 249 c 0
 86 216 90 197 107 155 c 4
 128 102 135 92 165 70 c 4
 195 48 238 34 274 34 c 0
 283 34 293 35 301 37 c 4
 332 45 387 87 433 136 c 4
 467 173 471 182 487 264 c 4
 499 328 505 360 505 386 c 0
 505 409 500 426 491 456 c 4
 454 580 364 582 357 582 c 0
 309 582 227 545 199 515 c 12
187 701 m 0
 187 722 331 901 369 901 c 0
 385 901 401 821 434 784 c 4
 451 765 475 715 475 699 c 0
 475 698 475 687 464 687 c 0
 451 687 430 703 422 724 c 4
 412 752 385 777 371 810 c 4
 368 819 361 832 350 832 c 0
 336 832 257 748 237 713 c 4
 227 696 221 691 207 690 c 4
 188 689 187 699 187 701 c 0
EndSplineSet
EndChar

StartChar: Otilde
Encoding: 213 213 110
Width: 586
Flags: W
HStem: -2 36<196.991 332.337> 582 45<272.519 405.308> 687 44<317.551 416.438> 768 52<222.825 281.5>
VStem: 37 49<152.932 391.016> 139 167<707 783> 505 42<249.837 467.867>
LayerCount: 2
Fore
SplineSet
257 609 m 4
 272 616 309 627 326 627 c 0
 347 627 385 617 414 601 c 4
 478 565 495 546 520 485 c 4
 539 439 547 409 547 376 c 0
 547 326 528 269 526 219 c 4
 525 198 520 174 515 165 c 4
 501 138 404 45 367 23 c 4
 335 5 318 -2 290 -2 c 0
 277 -2 260 -1 240 2 c 4
 158 13 114 42 74 114 c 4
 49 160 37 207 37 267 c 0
 37 299 40 335 47 377 c 4
 60 454 123 511 161 540 c 4
 177 552 185 557 198 567 c 4
 219 583 232 597 257 609 c 4
199 515 m 12
 122 434 86 393 86 249 c 0
 86 216 90 197 107 155 c 4
 128 102 135 92 165 70 c 4
 195 48 238 34 274 34 c 0
 283 34 293 35 301 37 c 4
 332 45 387 87 433 136 c 4
 467 173 471 182 487 264 c 4
 499 328 505 360 505 386 c 0
 505 409 500 426 491 456 c 4
 454 580 364 582 357 582 c 0
 309 582 227 545 199 515 c 12
139 707 m 0
 139 733 218 820 271 820 c 0
 292 820 306 807 306 783 c 0
 306 768 322 731 356 731 c 0
 403 731 508 812 521 812 c 0
 524 812 525 807 525 800 c 0
 525 786 425 687 352 687 c 0
 273 687 271 768 252 768 c 0
 242 768 220 747 189 706 c 0
 180 694 171 687 162 687 c 0
 149 687 139 700 139 707 c 0
EndSplineSet
EndChar

StartChar: Ucircumflex
Encoding: 219 219 111
Width: 508
Flags: W
HStem: -4 42<175.285 281.721> 701 21G<400.5 412.5> 847 68<276.799 313.526>
VStem: 41 56<181.229 597.456>
LayerCount: 2
Fore
SplineSet
274 51 m 0
 354 113 368 244 375 292 c 0
 387 376 398 432 407 538 c 0
 411 597 420 641 445 641 c 0
 457 641 463 631 469 620 c 4
 472 615 472 597 472 591 c 0
 472 553 456 545 439 396 c 0
 432 341 426 288 398 186 c 0
 398 185 390 153 370 94 c 0
 347 26 297 -4 222 -4 c 0
 112 -4 86 65 57 207 c 0
 46 259 41 327 41 396 c 0
 41 401 39 430 39 466 c 0
 39 521 44 592 69 624 c 0
 77 634 81 641 93 641 c 0
 108 641 116 638 116 616 c 0
 116 603 114 602 110 577 c 0
 102 530 104 512 98 375 c 0
 98 369 97 363 97 356 c 0
 97 273 116 147 136 100 c 0
 146 76 191 38 234 38 c 0
 248 38 262 41 274 51 c 0
130 715 m 0
 130 736 274 915 312 915 c 0
 328 915 344 835 377 798 c 4
 394 779 418 729 418 713 c 0
 418 712 418 701 407 701 c 0
 394 701 373 717 365 738 c 4
 355 766 328 791 314 824 c 4
 311 833 304 847 293 847 c 0
 279 847 200 762 180 727 c 4
 170 710 164 705 150 704 c 4
 131 703 130 713 130 715 c 0
EndSplineSet
EndChar

StartChar: acircumflex
Encoding: 226 226 112
Width: 390
Flags: W
HStem: -1 42<80.6752 171.323> 164 39<142.605 265.658> 277 45<93.9788 261.91> 539 68<212.799 249.526>
VStem: 38 41<42.7035 123.401> 280 37<16.6379 118 199 255.47>
LayerCount: 2
Fore
SplineSet
317 202 m 0
 317 97 333 30 333 28 c 0
 333 23 336 17 336 9 c 0
 336 3 334 -4 325 -12 c 0
 319 -17 307 -5 301 0 c 16
 289 12 280 112 280 113 c 2
 280 118 l 1
 252 65 166 -1 134 -1 c 2
 133 -1 l 1
 78 3 38 14 38 71 c 0
 38 126 60 142 102 172 c 0
 103 173 152 203 229 203 c 0
 246 203 261 202 275 199 c 1
 275 201 274 203 274 205 c 0
 274 214 276 221 276 228 c 0
 276 238 273 246 258 259 c 0
 238 276 219 277 196 277 c 2
 164 277 l 2
 145 277 132 272 114 267 c 0
 94 261 87 246 66 244 c 1
 63 244 l 2
 50 244 34 250 34 258 c 0
 34 293 115 318 182 321 c 16
 190 321 197 322 204 322 c 0
 227 322 245 318 269 306 c 0
 291 295 299 295 308 271 c 0
 316 248 318 244 318 235 c 0
 318 229 317 220 317 202 c 0
193 77 m 0
 212 93 203 82 222 99 c 0
 235 111 226 106 250 133 c 0
 263 147 262 148 266 165 c 1
 259 164 253 164 246 164 c 2
 224 164 l 2
 196 164 182 158 164 152 c 0
 110 135 79 125 79 70 c 0
 79 44 96 41 110 41 c 2
 117 41 l 2
 134 41 161 50 193 77 c 0
66 407 m 0
 66 428 210 607 248 607 c 0
 264 607 280 527 313 490 c 4
 330 471 354 421 354 405 c 0
 354 404 354 393 343 393 c 0
 330 393 309 409 301 430 c 4
 291 458 264 483 250 516 c 4
 247 525 240 539 229 539 c 0
 215 539 136 454 116 419 c 4
 106 402 100 397 86 396 c 4
 67 395 66 405 66 407 c 0
EndSplineSet
EndChar

StartChar: atilde
Encoding: 227 227 113
Width: 453
Flags: W
HStem: -1 42<94.6752 186.323> 164 39<157.866 279.658> 277 45<109.389 272.062> 393 44<212.369 310.252> 474 52<116.416 175.5>
VStem: 33 167<413 489> 52 41<42.7035 121.955> 290 42<9.37354 118 199 258.394>
LayerCount: 2
Fore
SplineSet
331 202 m 0xfb
 331 97 347 30 347 28 c 0
 347 23 351 17 351 9 c 0
 351 3 348 -4 339 -12 c 0
 333 -17 321 -5 315 0 c 16
 303 12 294 112 294 113 c 0
 294 115 295 116 295 118 c 1
 267 65 181 -1 149 -1 c 2
 147 -1 l 1
 92 3 52 14 52 71 c 0
 52 126 73 140 117 172 c 0
 118 173 166 203 243 203 c 0
 260 203 275 202 289 199 c 1
 289 205 l 2
 289 214 290 221 290 228 c 0
 290 238 288 246 273 259 c 0
 253 276 233 277 210 277 c 2
 179 277 l 2
 160 277 147 272 129 267 c 0
 109 261 102 246 81 244 c 1
 77 244 l 2
 64 244 49 250 49 258 c 0
 49 297 138 318 197 321 c 16
 205 321 212 322 219 322 c 0
 242 322 260 318 284 306 c 0
 306 295 313 295 322 271 c 0
 330 248 332 244 332 235 c 0
 332 229 331 220 331 202 c 0xfb
207 77 m 0
 226 93 217 82 236 99 c 0
 249 111 241 106 265 133 c 0
 278 147 276 148 280 165 c 1
 273 164 267 164 260 164 c 2
 238 164 l 2
 210 164 197 158 179 152 c 0
 129 136 93 125 93 70 c 0
 93 44 110 41 124 41 c 2
 132 41 l 2
 149 41 175 50 207 77 c 0
33 413 m 0xfd
 33 440 111 526 165 526 c 0
 186 526 200 513 200 489 c 0
 200 474 216 437 250 437 c 0
 297 437 402 518 415 518 c 0
 418 518 419 513 419 506 c 0
 419 493 319 393 245 393 c 0
 166 393 164 474 145 474 c 0
 135 474 114 453 83 412 c 0
 74 400 64 393 55 393 c 0
 46 393 33 401 33 413 c 0xfd
EndSplineSet
EndChar

StartChar: aring
Encoding: 229 229 114
Width: 377
Flags: W
HStem: -1 42<78.7715 171.323> 164 39<143.272 265.337> 277 45<93.9788 257.062> 393 36<164.992 237.638> 586 34<221.786 286.859>
VStem: 38 40<42.7709 121.258> 118 37<436.672 515.273> 274 43<10.6895 118 199 258.394> 294 41<-10.8105 117.922 477.253 580.233>
LayerCount: 2
Fore
SplineSet
317 202 m 2xff
 317 74 332 30 332 28 c 0
 332 23 336 17 336 9 c 0
 336 3 334 -4 325 -12 c 0
 319 -17 306 -5 300 0 c 16
 290 10 280 112 280 113 c 2
 280 118 l 1
 252 65 166 -1 134 -1 c 2
 133 -1 l 1
 78 3 38 14 38 71 c 0
 38 125 52 136 102 172 c 0
 103 173 152 203 228 203 c 0
 245 203 260 202 274 199 c 1
 274 205 l 2
 274 214 276 221 276 228 c 0
 276 238 273 246 258 259 c 0
 238 276 218 277 195 277 c 2
 164 277 l 2
 145 277 132 272 114 267 c 0
 94 261 87 246 66 244 c 1
 63 244 l 2
 50 244 34 250 34 258 c 0
 34 293 115 318 182 321 c 16
 190 321 197 322 204 322 c 0
 227 322 245 318 269 306 c 0
 291 295 298 295 307 271 c 0
 315 248 317 244 317 235 c 2
 317 202 l 2xff
193 77 m 0
 212 93 203 82 222 99 c 0
 235 111 226 106 250 133 c 0
 263 147 262 148 266 165 c 1
 259 164 253 164 246 164 c 2
 223 164 l 2
 195 164 182 158 164 152 c 0
 114 136 78 125 78 70 c 0
 78 44 95 41 109 41 c 2
 117 41 l 2
 134 41 161 50 193 77 c 0
335 531 m 0xfe80
 335 464 244 393 192 393 c 4
 153 393 118 431 118 471 c 4
 118 496 157 570 177 583 c 4
 236 620 236 620 255 620 c 0
 291 620 335 575 335 531 c 0xfe80
155 474 m 0
 155 463 165 429 195 429 c 0
 207 429 222 435 239 447 c 4
 278 475 294 496 294 525 c 0
 294 537 288 571 286 577 c 4
 284 583 275 586 265 586 c 0
 210 586 155 496 155 474 c 0
EndSplineSet
EndChar

StartChar: ecircumflex
Encoding: 234 234 115
Width: 408
Flags: W
HStem: -5 35<128.011 241.148> 294 37<146.361 269.768> 539 68<218.745 255.526>
VStem: 34 54<137.256 235.672> 285 41<223.923 279>
LayerCount: 2
Fore
SplineSet
34 167 m 0
 34 213 83 331 210 331 c 0
 250 331 282 319 293 306 c 0
 313 282 326 255 326 233 c 0
 326 222 322 213 315 205 c 0
 305 195 293 182 288 175 c 0
 268 148 140 102 86 102 c 1
 107 48 132 41 178 32 c 0
 182 31 185 30 189 30 c 0
 228 30 320 98 361 98 c 0
 369 98 373 95 373 88 c 0
 373 80 313 40 258 11 c 0
 241 2 214 -5 185 -5 c 0
 145 -5 101 8 69 47 c 0
 46 76 34 145 34 167 c 0
284 261 m 0
 283 265 260 294 208 294 c 0
 165 294 122 270 100 225 c 0
 90 205 88 177 88 157 c 0
 88 148 89 141 89 137 c 1
 107 141 120 147 139 149 c 0
 175 154 285 222 285 257 c 0
 285 258 284 260 284 261 c 0
71 407 m 0
 71 428 216 607 254 607 c 0
 270 607 286 527 319 490 c 4
 336 471 359 421 359 405 c 0
 359 404 359 393 348 393 c 0
 335 393 315 409 307 430 c 4
 298 456 272 477 256 516 c 4
 253 525 246 539 235 539 c 0
 221 539 142 454 122 419 c 4
 112 402 105 397 91 396 c 4
 72 395 71 405 71 407 c 0
EndSplineSet
EndChar

StartChar: icircumflex
Encoding: 238 238 116
Width: 356
Flags: W
HStem: 0 21G<160 196> 539 68<179.799 216.526>
VStem: 141 56<114.316 313.247> 148 46<3.0015e-08 314.515>
LayerCount: 2
Fore
SplineSet
174 314 m 0xe0
 193 306 197 297 197 270 c 0xe0
 197 248 194 213 194 157 c 2
 194 137 l 1
 196 0 l 1
 170 0 l 2
 150 0 145 1 145 18 c 0
 145 22 146 26 146 32 c 0
 148 60 148 87 148 111 c 0xd0
 148 182 143 236 141 266 c 1
 141 273 l 2
 141 310 158 320 174 314 c 0xe0
33 407 m 0
 33 428 177 607 215 607 c 0
 231 607 247 527 280 490 c 4
 297 471 321 421 321 405 c 0
 321 404 320 393 309 393 c 0
 296 393 276 409 268 430 c 4
 258 458 231 483 217 516 c 4
 214 525 207 539 196 539 c 0
 182 539 103 454 83 419 c 4
 73 402 67 397 53 396 c 4
 34 395 33 405 33 407 c 0
EndSplineSet
EndChar

StartChar: ntilde
Encoding: 241 241 117
Width: 456
Flags: W
HStem: 268 40<227.538 305.49> 393 44<214.312 312.235> 474 52<118.011 177.5>
VStem: 62 51<155.016 314.563> 293 55<4.16577 152.284> 317 55<73.8512 261.111>
LayerCount: 2
Fore
SplineSet
49 19 m 0xf4
 49 55 62 67 62 184 c 2
 62 223 l 1
 61 247 60 265 60 279 c 0
 60 311 63 318 71 320 c 0
 72 320 113 326 113 253 c 0
 113 244 113 232 112 219 c 2
 106 154 l 1
 118 203 126 213 145 235 c 0
 173 268 233 308 284 308 c 0
 354 308 372 232 372 210 c 0xf4
 372 182 348 89 348 44 c 0
 348 18 337 3 321 3 c 0
 321 3 293 5 293 28 c 0xf8
 293 57 317 122 317 190 c 0
 317 238 303 268 275 268 c 0
 252 268 220 248 179 204 c 0
 89 107 129 -7 65 -7 c 0
 54 -7 49 1 49 19 c 0xf4
34 413 m 0
 34 439 113 526 167 526 c 0
 188 526 201 513 201 489 c 0
 201 476 217 437 252 437 c 0
 299 437 404 518 416 518 c 0
 419 518 421 513 421 506 c 0
 421 493 321 393 247 393 c 0
 168 393 166 474 147 474 c 0
 137 474 115 453 84 412 c 0
 75 400 66 393 57 393 c 0
 44 393 34 406 34 413 c 0
EndSplineSet
EndChar

StartChar: ocircumflex
Encoding: 244 244 118
Width: 408
Flags: W
HStem: -7 44<112.2 232.918> 293 40<169.672 249.189> 539 68<232.186 268.526>
VStem: 34 49<68.2327 201.916> 299 44<110.586 248.349>
LayerCount: 2
Fore
SplineSet
160 -7 m 0
 105 -7 34 55 34 133 c 0
 34 196 79 264 160 317 c 0
 176 327 197 333 221 333 c 2
 226 333 l 2
 257 333 263 329 299 291 c 2
 339 249 l 1
 342 187 l 2
 343 173 343 163 343 154 c 0
 343 124 337 116 311 79 c 0
 271 23 218 -7 160 -7 c 0
83 131 m 0
 83 87 116 37 157 37 c 0
 162 37 168 38 175 39 c 0
 227 44 248 61 292 132 c 0
 297 140 299 150 299 166 c 0
 299 232 281 247 260 265 c 0
 243 279 221 292 214 293 c 1
 212 293 l 2
 178 293 83 214 83 131 c 0
85 407 m 0
 85 429 231 607 267 607 c 0
 283 607 299 527 332 490 c 4
 349 471 373 421 373 405 c 0
 373 404 373 393 362 393 c 0
 349 393 328 409 320 430 c 4
 310 458 283 483 269 516 c 4
 266 525 259 539 248 539 c 0
 234 539 155 454 135 419 c 4
 125 402 119 397 105 396 c 4
 86 395 85 405 85 407 c 0
EndSplineSet
EndChar

StartChar: otilde
Encoding: 245 245 119
Width: 459
Flags: W
HStem: -7 44<115.444 234.621> 293 40<170.344 251.185> 393 44<218.569 316.252> 474 52<124.002 181.5>
VStem: 35 50<68.5056 204.957> 39 167<413 489> 301 44<110.586 248.349>
LayerCount: 2
Fore
SplineSet
161 -7 m 0xfa
 101 -7 35 63 35 133 c 0
 35 196 80 264 161 317 c 0
 177 327 199 333 223 333 c 2
 228 333 l 2
 259 333 264 329 300 291 c 2
 341 249 l 1
 344 187 l 2
 345 173 345 163 345 154 c 0
 345 124 339 116 313 79 c 0
 273 23 219 -7 161 -7 c 0xfa
85 131 m 0
 85 87 119 37 158 37 c 0
 163 37 170 38 177 39 c 0
 229 44 250 61 294 132 c 0
 299 140 301 150 301 166 c 0
 301 232 283 247 262 265 c 0
 245 279 223 292 216 293 c 1
 214 293 l 2
 183 293 85 221 85 131 c 0
39 413 m 0xf6
 39 440 117 526 171 526 c 0
 192 526 206 513 206 489 c 0
 206 474 222 437 256 437 c 0
 303 437 408 518 421 518 c 0
 424 518 425 513 425 506 c 0
 425 493 325 393 251 393 c 0
 173 393 171 474 152 474 c 0
 142 474 120 453 89 412 c 0
 80 400 71 393 62 393 c 0
 53 393 39 400 39 413 c 0xf6
EndSplineSet
EndChar

StartChar: AE
Encoding: 198 198 120
Width: 936
Flags: W
HStem: -13 81<498.462 600.651> 22 48<530.932 895.337> 270 41<323 405.228> 281 41<323.035 440.554> 310 41<507.112 800.369> 614 38<532.67 843.368>
VStem: 445 51<69 277.812> 447 60<351.008 487.999>
LayerCount: 2
Fore
SplineSet
867 602 m 2x26
 866 602 810 614 739 614 c 0
 699 614 666 610 591 605 c 0
 550 602 514 612 513 551 c 0
 512 495 507 422 507 381 c 0x25
 507 362 508 351 511 351 c 0
 517 351 535 353 551 353 c 0
 576 353 555 351 590 351 c 0
 613 351 648 352 693 352 c 0
 779 352 788 349 798 334 c 0
 805 325 807 316 803 313 c 0
 799 311 770 308 737 308 c 0
 734 308 730 309 727 309 c 0
 690 309 634 313 583 310 c 0
 506 305 506 305 506 305 c 1
 500 245 l 2
 499 231 495 197 495 166 c 2
 495 151 l 2
 495 141 496 136 496 131 c 0
 496 124 495 120 496 107 c 2
 499 69 l 1
 548 72 l 1
 554 72 l 2
 578 72 630 68 684 68 c 2
 716 68 l 1x8e
 752 69 782 70 806 70 c 0
 874 70 898 65 898 51 c 0
 898 50 897 48 897 47 c 0
 891 22 791 32 743 22 c 0x46
 733 20 693 18 654 16 c 0
 615 14 593 5 540 1 c 0
 500 -2 477 -13 463 -13 c 0
 449 -13 445 -2 445 37 c 2
 445 57 l 1
 444 85 444 121 442 156 c 0
 442 160 441 164 441 168 c 0
 441 191 445 214 445 233 c 0
 445 260 438 281 406 281 c 0x96
 390 281 344 270 307 270 c 0
 284 270 247 187 167 94 c 0
 89 4 78 -6 57 -6 c 0
 41 -6 33 -3 33 5 c 0
 33 16 49 37 83 71 c 0
 161 150 239 266 304 360 c 0
 402 501 405 491 446 574 c 0
 447 577 448 580 450 583 c 0
 452 616 458 640 468 641 c 0
 477 642 487 642 497 643 c 0
 498 643 499 644 500 644 c 0
 558 649 629 652 692 652 c 0
 759 652 816 648 839 636 c 0
 865 622 876 616 876 610 c 0
 876 607 874 605 869 602 c 1
 867 602 l 2x26
447 369 m 0
 447 392 450 423 450 424 c 0
 450 445 449 465 449 480 c 2
 449 483 l 1
 448 486 447 488 446 488 c 0
 431 488 401 415 353 352 c 0
 332 324 323 314 323 311 c 1
 324 311 l 2x25
 330 311 343 322 402 322 c 0x15
 418 322 448 322 448 342 c 0
 448 347 447 355 447 369 c 0
EndSplineSet
EndChar

StartChar: dieresis
Encoding: 168 168 121
Width: 440
Flags: W
HStem: 648 59<59.3636 78.858> 671 87<317.884 381.848>
VStem: 52 90<663.359 719.869> 315 73<676.206 755.363>
LayerCount: 2
Fore
SplineSet
315 716 m 0x70
 315 754 330 758 349 758 c 0
 366 758 388 752 388 721 c 0
 388 695 375 671 346 671 c 0
 315 671 315 705 315 716 c 0x70
60 707 m 0xb0
 74 707 85 758 111 758 c 0x70
 140 758 142 736 142 721 c 0
 142 680 114 648 93 648 c 0
 74 648 52 669 52 693 c 0
 52 701 54 707 60 707 c 0xb0
EndSplineSet
EndChar

StartChar: Adieresis
Encoding: 196 196 122
Width: 489
Flags: W
HStem: 280 41<202 283.46> 289 43<203.545 315.297> 714 59<95.3916 116.102> 737 87<353.884 417.176>
VStem: 88 90<728 784.829> 220 56<499.25 638.715> 351 73<743.129 821.795>
LayerCount: 2
Fore
SplineSet
284 289 m 0x4e
 273 289 228 280 203 280 c 0x8e
 180 280 176 198 133 105 c 0
 91 15 84 5 63 5 c 0
 43 5 33 10 33 23 c 0
 33 35 41 54 58 82 c 0
 105 161 135 277 163 371 c 0
 205 512 212 501 220 584 c 0
 227 654 237 654 246 654 c 0
 254 654 263 649 270 639 c 0
 274 633 276 622 276 603 c 0
 276 592 275 580 274 564 c 1
 274 556 l 2
 274 518 300 502 316 468 c 0
 330 439 342 407 370 315 c 0
 398 223 410 122 423 89 c 0
 444 34 454 5 454 -8 c 0
 454 -16 450 -18 444 -18 c 0
 436 -18 425 -16 419 -13 c 0
 407 -7 379 79 361 152 c 0
 345 213 335 289 284 289 c 0x4e
203 321 m 0
 215 321 202 332 277 332 c 0x4e
 304 332 316 335 316 346 c 0
 316 353 306 365 291 411 c 0
 275 461 260 496 254 498 c 0
 240 498 238 423 216 363 c 0
 207 338 202 327 202 323 c 0
 202 322 202 321 203 321 c 0
351 782 m 0
 351 820 366 824 385 824 c 0
 395 824 424 824 424 787 c 0
 424 753 402 737 382 737 c 0x1e
 351 737 351 771 351 782 c 0
97 773 m 0x2e
 111 773 123 824 147 824 c 0x1e
 157 824 178 824 178 788 c 0
 178 741 149 714 129 714 c 0
 110 714 88 736 88 760 c 0
 88 768 91 773 97 773 c 0x2e
EndSplineSet
EndChar

StartChar: Edieresis
Encoding: 203 203 123
Width: 534
Flags: W
HStem: -25 82<96.6842 199.651> 11 48<139.016 495.15> 297 42<106.094 396.576> 602 39<130.518 443.368> 701 58<138.645 159.722> 724 87<397.566 462.138>
VStem: 47 58<233 293> 49 57<339.008 582.433> 49 45<57 292.062> 132 90<714.42 770.028> 395 73<728.663 808.521>
LayerCount: 2
Fore
SplineSet
466 590 m 2xb260
 465 590 429 602 338 602 c 0
 298 602 265 598 190 593 c 0
 149 590 113 601 112 540 c 0
 111 484 106 410 106 369 c 0xb160
 106 350 107 339 110 339 c 0
 116 339 134 341 150 341 c 0
 175 341 154 339 189 339 c 0
 212 339 247 340 292 340 c 0
 309 340 326 341 346 340 c 0
 376 339 388 335 397 322 c 0
 404 313 405 304 401 301 c 0
 397 299 368 297 335 297 c 2
 326 297 l 2
 289 297 232 297 181 298 c 1
 105 293 l 1xb260
 98 233 l 2
 97 219 94 185 94 154 c 2
 94 119 l 2
 94 112 94 108 95 95 c 2
 97 57 l 1
 146 60 l 1
 153 60 l 2
 177 60 229 56 283 56 c 0
 294 56 304 57 315 57 c 0xb0e0
 351 58 381 59 405 59 c 0
 473 59 497 53 497 39 c 0
 497 38 496 36 496 35 c 0
 490 10 384 19 342 11 c 0x70e0
 332 9 292 6 253 4 c 0
 214 2 192 -7 139 -11 c 0
 99 -14 75 -25 61 -25 c 0
 47 -25 43 -14 43 25 c 0
 43 28 49 156 49 290 c 0xb0e0
 49 360 48 427 47 468 c 1
 47 505 l 2
 47 566 51 627 67 629 c 0
 129 635 215 641 290 641 c 0
 357 641 415 637 438 625 c 0
 464 611 475 604 475 598 c 0
 475 595 473 593 468 590 c 1
 466 590 l 2xb260
395 768 m 0
 395 807 409 811 429 811 c 0
 467 811 468 785 468 773 c 0
 468 761 465 724 426 724 c 0x3460
 406 724 395 735 395 768 c 0
141 759 m 0x3860
 155 759 168 811 191 811 c 0x3460
 220 811 222 789 222 774 c 0
 222 730 196 701 173 701 c 0
 149 701 132 725 132 746 c 0
 132 754 135 759 141 759 c 0x3860
EndSplineSet
EndChar

StartChar: Idieresis
Encoding: 207 207 124
Width: 492
Flags: W
HStem: 3 48<57.416 191.211> 584 56<80.2451 218.778> 607 41<294.29 446> 644 20G<235.5 275.5> 724 59<107.449 127.102> 747 87<364.68 428.614>
VStem: 100 90<738.806 795.869> 212 34<85.0137 255.463> 362 73<752.41 831.795>
LayerCount: 2
Fore
SplineSet
169 640 m 2xc380
 238 640 213 664 258 664 c 0xd380
 293 664 263 648 339 648 c 0
 344 648 350 649 355 649 c 2
 379 649 l 2
 413 649 423 646 437 635 c 0
 449 626 456 620 456 615 c 0
 456 608 443 605 415 605 c 0
 370 605 389 607 347 607 c 0xa380
 318 607 300 604 294 600 c 0
 269 581 262 153 252 99 c 0
 249 81 246 65 246 60 c 0
 246 56 386 53 425 32 c 0
 453 17 454 17 456 14 c 2
 456 14 459 2 453 1 c 0
 451 1 443 0 431 0 c 0
 383 0 271 3 271 3 c 1
 78 5 33 13 33 40 c 0
 33 60 45 60 67 60 c 2
 72 60 l 2
 106 60 166 51 167 51 c 0
 202 51 208 144 212 231 c 0
 215 301 217 330 223 395 c 0
 227 445 230 532 230 571 c 0
 230 583 230 590 229 591 c 0
 228 592 225 592 220 592 c 0
 194 592 163 584 130 584 c 0
 96 584 79 594 79 614 c 0
 79 638 89 640 136 640 c 2
 169 640 l 2xc380
362 792 m 0
 362 828 375 834 397 834 c 0
 406 834 435 834 435 797 c 0
 435 754 405 747 394 747 c 0x8780
 362 747 362 780 362 792 c 0
108 783 m 0x8b80
 122 783 134 834 158 834 c 0x8780
 166 834 190 834 190 798 c 0
 190 757 163 724 141 724 c 0
 122 724 100 746 100 770 c 0
 100 778 102 783 108 783 c 0x8b80
EndSplineSet
EndChar

StartChar: Odieresis
Encoding: 214 214 125
Width: 586
Flags: W
HStem: -2 36<196.991 332.337> 582 45<272.519 405.308> 687 58<174.371 194.722> 710 87<435.149 497.208>
VStem: 37 49<152.932 391.016> 168 90<700.835 758.122> 430 73<714.346 794.795> 505 42<249.837 467.867>
LayerCount: 2
Fore
SplineSet
257 609 m 4xcf
 272 616 309 627 326 627 c 0
 347 627 385 617 414 601 c 4
 478 565 495 546 520 485 c 4
 539 439 547 409 547 376 c 0
 547 326 528 269 526 219 c 4
 525 198 520 174 515 165 c 4
 501 138 404 45 367 23 c 4
 335 5 318 -2 290 -2 c 0
 277 -2 260 -1 240 2 c 4
 158 13 114 42 74 114 c 4
 49 160 37 207 37 267 c 0
 37 299 40 335 47 377 c 4
 60 454 123 511 161 540 c 4
 177 552 185 557 198 567 c 4
 219 583 232 597 257 609 c 4xcf
199 515 m 12
 122 434 86 393 86 249 c 0
 86 216 90 197 107 155 c 4
 128 102 135 92 165 70 c 4
 195 48 238 34 274 34 c 0
 283 34 293 35 301 37 c 4
 332 45 387 87 433 136 c 4
 467 173 471 182 487 264 c 4
 499 328 505 360 505 386 c 0
 505 409 500 426 491 456 c 4
 454 580 364 582 357 582 c 0
 309 582 227 545 199 515 c 12
462 710 m 0xdf
 440 710 430 721 430 754 c 0
 430 765 432 777 435 785 c 0
 438 793 452 797 465 797 c 0
 474 797 503 797 503 760 c 0
 503 748 500 710 462 710 c 0xdf
176 745 m 0xef
 190 745 203 797 226 797 c 0xdf
 256 797 258 774 258 760 c 0
 258 721 234 687 209 687 c 0
 186 687 168 708 168 732 c 0
 168 740 170 745 176 745 c 0xef
EndSplineSet
EndChar

StartChar: Udieresis
Encoding: 220 220 126
Width: 508
Flags: W
HStem: -4 42<175.285 281.721> 701 59<117.44 138.439> 724 87<378.149 440.208>
VStem: 41 56<181.229 597.456> 111 90<716.359 772.869> 373 73<728.604 808.795>
LayerCount: 2
Fore
SplineSet
274 51 m 0x9c
 354 113 368 244 375 292 c 0
 387 376 398 432 407 538 c 0
 411 597 420 641 445 641 c 0
 457 641 463 631 469 620 c 4
 472 615 472 597 472 591 c 0
 472 553 456 545 439 396 c 0
 432 341 426 288 398 186 c 0
 398 185 390 153 370 94 c 0
 347 26 297 -4 222 -4 c 0
 112 -4 86 65 57 207 c 0
 46 259 41 327 41 396 c 0
 41 401 39 430 39 466 c 0
 39 521 44 592 69 624 c 0
 77 634 81 641 93 641 c 0
 108 641 116 638 116 616 c 0
 116 603 114 602 110 577 c 0
 102 530 104 512 98 375 c 0
 98 369 97 363 97 356 c 0
 97 273 116 147 136 100 c 0
 146 76 191 38 234 38 c 0
 248 38 262 41 274 51 c 0x9c
405 724 m 0xbc
 373 724 373 756 373 768 c 0
 373 779 375 791 378 799 c 0
 381 807 395 811 408 811 c 0
 417 811 446 811 446 774 c 0
 446 762 443 724 405 724 c 0xbc
119 760 m 0xdc
 133 760 146 811 169 811 c 0xbc
 199 811 201 788 201 774 c 0
 201 733 173 701 152 701 c 0
 134 701 111 719 111 746 c 0
 111 754 113 760 119 760 c 0xdc
EndSplineSet
EndChar

StartChar: adieresis
Encoding: 228 228 127
Width: 419
Flags: W
HStem: -1 42<79.7715 172.323> 164 39<144.272 265.658> 277 45<94.9788 258.062> 393 58<54.3707 74.7219> 416 87<315.149 377.208>
VStem: 39 40<42.7709 121.258> 48 89<406.42 464.122> 275 43<9.37354 118 199 258.394> 310 73<420.346 500.795>
LayerCount: 2
Fore
SplineSet
318 202 m 2xe5
 318 74 333 30 333 28 c 0
 333 23 337 17 337 9 c 0
 337 3 335 -4 326 -12 c 0
 320 -17 307 -5 301 0 c 16
 288 13 281 111 281 113 c 2
 281 118 l 1
 253 65 167 -1 135 -1 c 2
 134 -1 l 1
 79 3 39 14 39 71 c 0
 39 125 53 136 103 172 c 0
 104 173 153 203 229 203 c 0
 246 203 261 202 275 199 c 1
 275 205 l 2
 275 214 277 221 277 228 c 0
 277 238 274 246 259 259 c 0
 239 276 219 277 196 277 c 2
 165 277 l 2
 146 277 133 272 115 267 c 0
 95 261 88 246 67 244 c 1
 64 244 l 2
 51 244 35 250 35 258 c 0
 35 293 116 318 183 321 c 16
 191 321 198 322 205 322 c 0
 228 322 246 318 270 306 c 0
 292 295 299 295 308 271 c 0
 316 248 318 244 318 235 c 2
 318 202 l 2xe5
194 77 m 0
 213 93 203 82 222 99 c 0
 235 111 227 106 251 133 c 0
 264 147 262 148 266 165 c 1
 259 164 253 164 246 164 c 2
 224 164 l 2
 196 164 183 158 165 152 c 0
 115 136 79 125 79 70 c 0
 79 44 96 41 110 41 c 2
 118 41 l 2
 135 41 162 50 194 77 c 0
342 416 m 0xe880
 320 416 310 427 310 460 c 0
 310 471 312 483 315 491 c 0
 318 499 332 503 345 503 c 0
 354 503 383 503 383 466 c 0
 383 454 380 416 342 416 c 0xe880
56 451 m 0xf2
 70 451 83 503 106 503 c 0xea
 135 503 137 481 137 466 c 0
 137 422 111 393 89 393 c 0
 66 393 48 414 48 438 c 0
 48 446 50 451 56 451 c 0xf2
EndSplineSet
EndChar

StartChar: edieresis
Encoding: 235 235 128
Width: 424
Flags: W
HStem: -5 35<128.487 242.148> 294 37<146.733 269.598> 393 58<59.3707 79.7219> 416 87<320.149 382.208>
VStem: 34 54<137.256 235.672> 53 89<406.42 464.122> 285 41<223.923 279> 315 73<420.346 500.795>
LayerCount: 2
Fore
SplineSet
34 167 m 0xca
 34 213 85 331 210 331 c 0
 250 331 283 319 294 306 c 0
 314 282 326 255 326 233 c 0
 326 222 323 213 316 205 c 0
 306 195 294 182 289 175 c 0
 269 148 139 102 87 102 c 1
 108 48 132 41 178 32 c 0
 182 31 186 30 190 30 c 0
 229 30 321 98 362 98 c 0
 370 98 374 95 374 88 c 0
 374 80 314 40 259 11 c 0
 242 2 215 -5 186 -5 c 0
 146 -5 101 8 69 47 c 0
 46 76 34 145 34 167 c 0xca
285 261 m 1
 284 265 259 294 208 294 c 0
 165 294 122 270 100 225 c 0
 90 205 88 177 88 157 c 0
 88 148 89 141 89 137 c 1
 107 141 121 147 140 149 c 0
 176 154 285 222 285 257 c 2
 285 261 l 1
347 416 m 0xd1
 325 416 315 427 315 460 c 0
 315 471 317 483 320 491 c 0
 323 499 337 503 350 503 c 0
 359 503 388 503 388 466 c 0
 388 454 385 416 347 416 c 0xd1
61 451 m 0xe4
 75 451 88 503 111 503 c 0xd4
 140 503 142 481 142 466 c 0
 142 422 116 393 94 393 c 0
 71 393 53 414 53 438 c 0
 53 446 55 451 61 451 c 0xe4
EndSplineSet
EndChar

StartChar: idieresis
Encoding: 239 239 129
Width: 407
Flags: W
HStem: 0 21G<180 217> 393 58<40.6445 60.0674> 416 87<299.566 363.588>
VStem: 34 90<406.42 465.209> 161 57<114.316 313.247> 169 46<0 272.861> 297 73<421.221 500.795>
LayerCount: 2
Fore
SplineSet
195 314 m 0x9a
 214 306 218 297 218 270 c 0x9a
 218 248 215 213 215 157 c 2
 215 137 l 1
 217 0 l 1
 190 0 l 2
 170 0 166 1 166 18 c 2
 166 32 l 1
 168 60 169 87 169 111 c 0x96
 169 182 164 236 162 266 c 0
 162 269 161 270 161 273 c 0
 161 311 180 320 195 314 c 0x9a
297 460 m 0
 297 499 311 503 331 503 c 0
 341 503 370 503 370 466 c 0
 370 440 357 416 328 416 c 0xb2
 308 416 297 427 297 460 c 0
42 451 m 0xd2
 55 451 68 503 93 503 c 0xb2
 122 503 124 481 124 466 c 0
 124 422 98 393 75 393 c 0
 51 393 34 417 34 438 c 0
 34 446 36 451 42 451 c 0xd2
EndSplineSet
EndChar

StartChar: odieresis
Encoding: 246 246 130
Width: 438
Flags: W
HStem: -7 44<114.444 233.621> 293 40<169.344 250.185> 393 59<73.4398 94.4387> 416 87<334.149 396.208>
VStem: 34 50<68.5056 204.957> 67 89<406.891 464.869> 300 44<110.586 248.349> 329 73<420.346 500.795>
LayerCount: 2
Fore
SplineSet
160 -7 m 0xca
 100 -7 34 63 34 133 c 0
 34 196 79 264 160 317 c 0
 176 327 198 333 222 333 c 2
 227 333 l 2
 258 333 263 329 299 291 c 2
 340 249 l 1
 343 187 l 2
 344 173 344 163 344 154 c 0
 344 124 338 116 312 79 c 0
 272 23 218 -7 160 -7 c 0xca
84 131 m 0
 84 87 118 37 157 37 c 0
 162 37 169 38 176 39 c 0
 228 44 249 61 293 132 c 0
 298 140 300 150 300 166 c 0
 300 232 282 247 261 265 c 0
 244 279 222 292 215 293 c 1
 213 293 l 2
 182 293 84 221 84 131 c 0
361 416 m 0xd1
 339 416 329 427 329 460 c 0
 329 471 331 483 334 491 c 0
 337 499 351 503 364 503 c 0
 373 503 402 503 402 466 c 0
 402 454 399 416 361 416 c 0xd1
75 452 m 0xe4
 89 452 102 503 125 503 c 0xd4
 154 503 156 481 156 466 c 0
 156 420 127 393 108 393 c 0
 90 393 67 411 67 438 c 0
 67 446 69 452 75 452 c 0xe4
EndSplineSet
EndChar

StartChar: p
Encoding: 112 112 131
Width: 462
Flags: W
HStem: -294 21G<49.5 73> -23 51<240.47 307.896> 298 36<285.011 358.303>
VStem: 34 56<-293.92 -72.5795> 53 47<120.021 326.55> 372 46<111.257 293.249>
LayerCount: 2
Fore
SplineSet
34 -263 m 2xf4
 34 -199 53 -76 53 140 c 2
 53 167 l 2
 53 197 52 222 52 242 c 0
 52 317 55 328 64 328 c 0
 98 328 100 318 100 187 c 0xec
 100 126 104 114 107 114 c 0
 108 114 108 115 108 115 c 2
 112 118 121 152 132 178 c 0
 175 276 222 287 280 322 c 0
 298 333 314 334 329 334 c 2
 347 334 l 2
 370 334 376 330 389 310 c 0
 405 285 418 259 418 219 c 0
 418 208 417 196 415 182 c 0
 403 105 380 68 327 19 c 1
 318 5 295 -23 277 -23 c 0
 261 -23 240 -9 240 -9 c 1
 196 4 171 41 158 41 c 0
 105 41 90 -279 90 -282 c 0
 90 -292 84 -294 62 -294 c 0
 37 -294 34 -294 34 -271 c 2
 34 -263 l 2xf4
362 270 m 0
 357 288 351 298 336 298 c 0
 325 298 308 292 285 280 c 0
 262 268 258 268 224 231 c 0
 221 228 185 191 185 132 c 0
 185 121 186 109 187 96 c 0
 188 83 267 28 279 28 c 0
 286 28 344 79 357 102 c 0
 367 120 372 153 372 187 c 0
 372 216 368 246 362 270 c 0
EndSplineSet
EndChar

StartChar: q
Encoding: 113 113 132
Width: 349
Flags: W
HStem: 9 43<81.3955 134.172> 266 44<119.104 195.664>
VStem: 36 40<53.2765 202.976> 234 53<116.071 220.649> 239 65<262.059 312.025> 246 47<-276.877 72.9771>
LayerCount: 2
Fore
SplineSet
234 155 m 0xf0
 234 188 200 266 156 266 c 0
 127 266 76 212 76 114 c 0
 76 91 79 72 87 63 c 4
 93 56 95 52 100 52 c 0
 108 52 134 76 192 106 c 4
 233 127 228 118 232 136 c 20
 234 143 234 149 234 155 c 0xf0
230 73 m 4
 212 73 132 9 94 9 c 0
 77 9 65 19 52 38 c 4
 40 55 36 75 36 114 c 4
 36 160 39 173 67 226 c 4
 85 259 108 291 118 298 c 4
 131 306 144 310 157 310 c 0
 205 310 226 261 236 261 c 0
 238 261 239 266 239 274 c 4
 239 300 248 318 264 318 c 0
 279 318 304 301 304 285 c 0xe8
 304 284 287 193 287 155 c 0xf0
 287 100 293 -66 293 -68 c 4
 294 -106 294 -138 294 -162 c 0
 294 -191 293 -211 293 -226 c 0
 293 -250 294 -259 299 -266 c 4
 309 -280 310 -286 303 -294 c 4
 297 -301 287 -305 278 -305 c 0
 270 -305 261 -302 256 -296 c 4
 246 -284 247 -190 246 -64 c 4xe4
 246 42 243 73 230 73 c 4
EndSplineSet
EndChar

StartChar: r
Encoding: 114 114 133
Width: 427
Flags: W
HStem: 266 54<198.423 311.788>
VStem: 36 69<164.293 310.546> 74 50<-0.733139 120.818>
LayerCount: 2
Fore
SplineSet
36 272 m 0xc0
 36 316 57 320 69 322 c 1
 71 322 l 2
 100 322 104 177 105 162 c 1xc0
 114 195 110 196 125 228 c 0
 144 268 174 320 240 320 c 0
 259 320 279 315 302 311 c 8
 333 305 349 279 373 260 c 16
 381 254 386 247 386 239 c 0
 386 237 383 212 355 212 c 0
 339 212 331 235 316 242 c 8
 271 266 271 266 260 266 c 0
 239 266 213 254 194 242 c 0
 178 232 177 219 171 202 c 0
 155 161 151 135 136 91 c 0
 126 64 137 44 124 18 c 16
 118 6 107 -2 93 -2 c 0
 92 -2 90 -1 89 -1 c 0
 74 0 76 10 74 29 c 0xa0
 68 92 49 127 48 189 c 0
 47 221 36 243 36 272 c 0xc0
EndSplineSet
EndChar

StartChar: s
Encoding: 115 115 134
Width: 354
Flags: W
HStem: 1 36<77.3079 184.296> 276 39<123.912 230.715>
VStem: 55 50<181.531 260.412> 236 66<72.1789 113.312>
LayerCount: 2
Fore
SplineSet
61 60 m 0
 72 60 104 37 136 37 c 0
 142 37 156 37 211 70 c 0
 221 76 236 84 236 93 c 0
 236 100 229 107 207 117 c 0
 173 132 92 134 76 159 c 16
 62 181 55 199 55 219 c 0
 55 227 56 237 58 247 c 0
 63 272 59 263 86 281 c 16
 113 299 131 315 169 315 c 2
 172 315 l 9
 229 314 265 302 306 277 c 16
 312 273 314 269 314 265 c 0
 314 254 297 231 272 231 c 0
 238 231 241 254 223 262 c 16
 209 269 197 276 182 276 c 0
 178 276 174 276 170 275 c 0
 137 265 135 273 120 252 c 0
 111 239 105 228 105 216 c 0
 105 208 108 199 115 191 c 0
 138 165 181 168 219 151 c 24
 252 137 288 134 300 110 c 0
 301 107 302 105 302 102 c 0
 302 83 271 64 253 49 c 0
 225 26 203 26 167 8 c 0
 157 3 146 1 134 1 c 0
 133 1 41 8 37 29 c 4
 36 34 35 38 35 41 c 0
 35 50 48 60 61 60 c 0
EndSplineSet
EndChar

StartChar: t
Encoding: 116 116 135
Width: 432
Flags: W
HStem: -16 54<246.806 326.75> 284 52<33.9369 191.823 241 376.598>
VStem: 186 54<45.1096 278.839> 193 48<151.576 283.907 338 543.485>
LayerCount: 2
Fore
SplineSet
377 310 m 0xe0
 377 301 377 284 302 284 c 2
 241 284 l 1
 241 273 l 2xd0
 241 258 240 229 240 196 c 0
 240 154 241 106 245 66 c 0
 246 51 266 38 284 38 c 2
 289 38 l 1
 320 43 334 77 363 80 c 1
 369 80 l 2
 384 80 394 74 394 60 c 0
 394 44 393 44 347 6 c 16
 333 -5 323 -16 305 -16 c 2
 300 -16 l 1
 276 -14 235 -20 213 10 c 24
 182 53 191 89 187 140 c 0
 187 143 186 146 186 150 c 0xe0
 186 183 193 256 193 280 c 0xd0
 193 287 180 289 163 289 c 0
 137 289 100 284 77 284 c 0
 55 284 33 297 33 310 c 0
 33 332 70 336 97 336 c 0
 128 336 170 333 190 332 c 1
 194 366 200 560 214 576 c 0
 218 581 229 585 238 585 c 0
 248 585 252 583 252 573 c 0
 252 568 252 561 250 550 c 0
 247 531 243 386 240 338 c 9
 284 336 310 340 353 332 c 24
 361 331 377 326 377 310 c 0xe0
EndSplineSet
EndChar

StartChar: u
Encoding: 117 117 136
Width: 432
Flags: W
HStem: -1 52<118.269 185.135> 302 20G<58 68 354 372.5>
VStem: 37 50<93.0766 309.064> 326 46<2.69333 195.889> 332 51<84.8845 318.771>
LayerCount: 2
Fore
SplineSet
143 -1 m 0xe8
 104 -1 37 78 37 224 c 0
 37 251 40 279 45 305 c 0
 47 316 54 322 62 322 c 0
 74 322 95 304 95 297 c 0
 95 286 87 271 87 211 c 0
 87 124 114 51 149 51 c 0
 184 51 302 186 328 278 c 0
 332 293 341 322 367 322 c 0
 378 322 383 311 383 271 c 0xe8
 383 220 372 118 372 83 c 0
 372 60 378 46 378 23 c 0
 378 6 373 -2 363 -2 c 0
 326 -2 326 56 326 84 c 0xf0
 326 106 332 195 332 196 c 0
 332 197 332 196 331 196 c 0
 329 196 312 171 296 141 c 0
 239 37 179 -1 143 -1 c 0xe8
EndSplineSet
EndChar

StartChar: v
Encoding: 118 118 137
Width: 381
Flags: W
HStem: -1 21G<133 141.5> 302 20G<45 59.5 312 339.5>
VStem: 35 49<213.766 319.822> 107 71<10.4238 98.9457>
LayerCount: 2
Fore
SplineSet
107 55 m 0
 107 97 35 241 35 301 c 0
 35 316 40 322 50 322 c 0
 69 322 84 308 84 290 c 0
 84 264 133 132 144 118 c 0
 155 104 156 104 164 122 c 0
 175 144 288 322 336 322 c 0
 343 322 343 316 343 316 c 1
 343 310 326 272 299 241 c 0
 271 209 241 172 234 160 c 0
 172 58 191 76 178 46 c 0
 170 27 152 2 145 0 c 0
 144 0 142 -1 141 -1 c 0
 125 -1 107 31 107 55 c 0
EndSplineSet
EndChar

StartChar: w
Encoding: 119 119 138
Width: 502
Flags: W
HStem: -1 63<286.061 307.46> 302 20G<243 254.5>
VStem: 237 36<64.2656 227.918>
LayerCount: 2
Fore
SplineSet
34 301 m 0
 34 319 52 319 53 319 c 0
 58 319 63 315 72 304 c 0
 96 277 102 159 125 81 c 0
 130 63 154 97 154 104 c 0
 154 108 188 210 208 248 c 0
 227 283 239 322 247 322 c 2
 248 322 l 1
 261 317 273 259 273 228 c 0
 273 200 284 62 292 62 c 0
 296 62 320 105 320 105 c 1
 351 163 393 257 423 293 c 0
 435 307 449 319 458 319 c 0
 462 319 465 316 465 309 c 0
 465 298 447 288 434 267 c 0
 357 137 328 -1 280 -1 c 0
 279 -1 279 0 278 0 c 0
 263 1 243 56 237 96 c 0
 234 115 236 228 233 228 c 0
 225 228 171 73 165 54 c 0
 158 29 135 0 121 0 c 0
 114 0 105 9 101 17 c 0
 89 40 62 178 57 223 c 0
 52 280 34 283 34 301 c 0
EndSplineSet
EndChar

StartChar: x
Encoding: 120 120 139
Width: 427
Flags: W
HStem: -1 22G<69.5 83.5 266 273.5> 302 20G<84 94 364 380>
LayerCount: 2
Fore
SplineSet
313 299 m 0
 314 299 352 322 376 322 c 0
 384 322 390 319 390 314 c 0
 390 309 368 288 340 268 c 0
 313 248 341 270 294 228 c 0
 242 182 220 157 220 134 c 0
 220 97 293 42 293 16 c 0
 293 6 276 0 271 0 c 0
 261 0 246 15 192 76 c 1
 172 98 l 1
 136 66 l 2
 116 49 99 32 97 20 c 0
 94 7 88 -1 79 -1 c 0
 60 -1 35 20 35 35 c 0
 35 42 59 65 91 97 c 2
 150 155 l 1
 118 212 l 2
 101 243 103 238 88 252 c 0
 70 268 65 271 65 282 c 0
 65 285 66 288 66 293 c 0
 68 313 78 322 90 322 c 0
 98 322 106 319 115 312 c 0
 125 305 120 313 144 267 c 0
 168 221 191 183 193 183 c 0
 195 183 229 231 280 275 c 0
 306 297 311 301 312 301 c 2
 312 301 312 299 313 299 c 0
EndSplineSet
EndChar

StartChar: y
Encoding: 121 121 140
Width: 381
Flags: W
HStem: 302 20G<53 78 314.5 332>
VStem: 34 65<-278.83 -235.851> 41 51<152.589 320.445> 147 59<-60.4734 6.69345> 255 87<245.602 283.496>
LayerCount: 2
Fore
SplineSet
61 322 m 0xb8
 95 322 88 277 92 233 c 0xb8
 98 167 142 46 156 46 c 0
 170 46 233 182 255 239 c 0
 275 292 302 322 327 322 c 0
 337 322 342 319 342 309 c 0
 342 293 328 259 295 192 c 0
 268 137 206 -10 206 -14 c 0
 206 -26 121 -185 99 -234 c 0
 73 -294 63 -306 46 -306 c 0
 38 -306 34 -302 34 -294 c 0xd8
 34 -270 69 -215 91 -156 c 0
 102 -127 147 -44 147 -17 c 0
 147 8 118 2 108 22 c 0
 91 54 41 194 41 281 c 0
 41 304 45 322 61 322 c 0xb8
EndSplineSet
EndChar

StartChar: z
Encoding: 122 122 141
Width: 448
Flags: W
HStem: 0 52<117.027 388.294> 16 40<179.146 408.315> 268 43<61.228 241.99> 274 48<126.902 297.21>
VStem: 35 82<36 67.1896>
LayerCount: 2
Fore
SplineSet
101 311 m 2x28
 144 311 167 322 215 322 c 2
 223 322 l 2
 225 322 385 312 385 290 c 0
 385 253 117 76 117 55 c 0
 117 53 120 52 124 52 c 2
 133 52 l 2x98
 142 52 157 52 170 51 c 0
 174 51 179 50 184 50 c 0
 195 50 349 56 351 56 c 0
 396 56 410 50 410 41 c 0
 410 30 386 16 357 16 c 2
 341 16 l 2x48
 317 16 264 0 175 0 c 0
 120 0 72 7 49 18 c 0
 39 23 35 32 35 40 c 0
 35 51 42 61 56 67 c 0
 69 73 69 73 179 167 c 0
 200 185 299 263 300 266 c 0
 302 272 277 274 245 274 c 0x98
 180 274 166 268 125 268 c 0
 94 268 61 271 61 286 c 0
 61 294 64 311 88 311 c 2
 101 311 l 2x28
EndSplineSet
EndChar

StartChar: braceleft
Encoding: 123 123 142
Width: 433
Flags: W
HStem: -47 52<203 252.336> 27 30<336.067 359.637> 280 84<52.6117 170.766> 306 58<124.922 185> 670 52<232 330.929>
VStem: 175 40<-23.2075 80.6664> 192 49<448.183 665.641> 210 43<370.594 622.663> 230 49<158.495 302.894>
LayerCount: 2
Fore
SplineSet
192 626 m 0xda
 192 722 223 722 241 722 c 0xda
 278 722 399 700 399 672 c 0
 399 665 376 643 355 643 c 0
 331 643 288 670 272 670 c 0
 266 670 261 666 253 659 c 0xd9
 244 651 241 646 241 624 c 0xda
 241 582 253 486 253 441 c 0xd9
 253 416 250 404 242 386 c 2
 228 351 l 1
 255 329 l 2
 274 313 279 308 279 289 c 0
 279 184 215 40 215 13 c 0
 215 7 217 5 221 5 c 0
 241 5 297 57 338 57 c 0
 361 57 378 36 371 27 c 0
 367 21 325 15 226 -39 c 0
 217 -44 211 -47 205 -47 c 0
 201 -47 175 -45 175 -2 c 0
 175 64 230 185 230 252 c 0xdc80
 230 289 228 294 210 302 c 0xd9
 204 305 198 306 192 306 c 0xda
 165 306 132 280 102 280 c 0
 84 280 35 300 35 324 c 0
 35 333 41 341 52 350 c 0
 65 361 81 364 127 364 c 2xea
 185 364 l 1
 199 390 l 2
 206 403 210 422 210 450 c 0xd9
 210 519 192 569 192 626 c 0xda
EndSplineSet
EndChar

StartChar: bar
Encoding: 124 124 143
Width: 160
Flags: W
VStem: 41 51<404.923 731> 71 49<-88.8426 191.806>
LayerCount: 2
Fore
SplineSet
92 576 m 2x80
 92 330 120 140 120 -19 c 0
 120 -60 117 -86 111 -89 c 0
 104 -93 92 -94 85 -92 c 0
 73 -88 71 -72 71 24 c 0x40
 71 85 67 143 63 154 c 0
 55 174 41 476 41 619 c 0
 41 647 42 670 43 682 c 0
 47 727 48 734 61 734 c 2
 70 734 l 1
 92 731 l 1
 92 576 l 2x80
EndSplineSet
EndChar

StartChar: braceright
Encoding: 125 125 144
Width: 398
Flags: W
HStem: -25 37<42.8828 104.169> 322 64<244.756 312.233> 684 52<139.504 198.791>
VStem: 153 44<408.895 603.068> 181 50<74.3426 162.117>
LayerCount: 2
Fore
SplineSet
97 682 m 0xf0
 97 706 136 736 180 736 c 0
 199 736 241 731 241 684 c 0
 241 627 197 589 197 507 c 0xf0
 197 427 228 386 243 386 c 0
 257 386 276 396 314 396 c 0
 343 396 364 389 364 377 c 0
 364 361 306 322 282 322 c 0
 270 322 256 317 250 311 c 0
 238 298 222 212 222 162 c 0
 222 124 231 127 231 111 c 0
 231 103 227 95 218 83 c 0
 174 20 139 -25 76 -25 c 0
 43 -25 40 -23 35 -2 c 0
 34 3 33 6 33 10 c 0
 33 22 39 30 49 30 c 0
 62 30 83 12 87 12 c 0
 92 12 95 24 133 57 c 1
 150 66 181 82 181 124 c 0xe8
 181 144 176 164 176 164 c 1
 176 209 209 343 209 345 c 0
 209 353 206 358 200 364 c 0
 170 395 153 460 153 512 c 0
 153 544 161 569 183 634 c 2
 199 684 l 1
 182 684 l 2
 158 684 138 656 124 656 c 0
 115 656 97 665 97 682 c 0xf0
EndSplineSet
EndChar

StartChar: ugrave
Encoding: 249 249 145
Width: 434
Flags: W
HStem: -1 52<122.264 189.704> 302 20G<63 73 358.5 376.5>
VStem: 42 49<91.8555 308.923> 331 45<1.73925 195.905> 336 51<85.3841 318.968>
LayerCount: 2
Fore
SplineSet
148 -1 m 0xe8
 112 -1 42 68 42 224 c 0
 42 251 45 279 50 305 c 0
 52 316 59 322 67 322 c 0
 79 322 99 306 99 297 c 0
 99 280 91 258 91 211 c 0
 91 124 118 51 153 51 c 0
 188 51 307 186 333 278 c 0
 338 295 346 322 371 322 c 0
 382 322 387 311 387 271 c 0xe8
 387 220 376 118 376 83 c 0
 376 60 382 46 382 23 c 0
 382 6 378 -2 368 -2 c 0
 333 -2 331 43 331 84 c 0xf0
 331 128 336 195 336 196 c 0
 336 197 336 196 335 196 c 0
 333 196 317 171 301 141 c 0
 244 37 184 -1 148 -1 c 0xe8
35 556 m 0
 35 561 37 565 39 567 c 0
 46 570 62 571 62 571 c 2
 76 571 85 564 115 520 c 0
 151 468 207 435 232 396 c 1
 227 394 222 393 216 393 c 0
 185 393 138 423 89 478 c 1
 63 503 l 2
 45 521 35 544 35 556 c 0
EndSplineSet
EndChar

StartChar: uacute
Encoding: 250 250 146
Width: 435
Flags: W
HStem: -1 52<116.264 183.704> 302 20G<57 67 352.5 370.5>
VStem: 36 49<91.8555 308.923> 204 27<396 400.939> 325 45<1.73925 195.905> 330 51<85.3841 318.968>
LayerCount: 2
Fore
SplineSet
142 -1 m 0xf4
 106 -1 36 68 36 224 c 0
 36 251 39 279 44 305 c 0
 46 316 53 322 61 322 c 0
 73 322 93 306 93 297 c 0
 93 280 85 258 85 211 c 0
 85 124 112 51 147 51 c 0
 182 51 301 186 327 278 c 0
 332 295 340 322 365 322 c 0
 376 322 381 311 381 271 c 0xf4
 381 220 370 118 370 83 c 0
 370 60 376 46 376 23 c 0
 376 6 372 -2 362 -2 c 0
 327 -2 325 43 325 84 c 0xf8
 325 128 330 195 330 196 c 0
 330 197 330 196 329 196 c 0
 327 196 311 171 295 141 c 0
 238 37 178 -1 142 -1 c 0xf4
398 560 m 0
 398 548 388 525 370 507 c 2xf8
 344 481 l 2
 292 429 256 404 231 396 c 1
 231 396 204 389 204 396 c 0
 204 409 245 442 261 461 c 0
 290 495 289 490 318 524 c 0
 353 565 357 575 371 575 c 2
 371 575 387 577 394 574 c 0
 396 572 398 565 398 560 c 0
EndSplineSet
EndChar

StartChar: ucircumflex
Encoding: 251 251 147
Width: 429
Flags: W
HStem: -1 52<117.269 184.135> 302 20G<57 67 353 371.5> 539 68<222.745 259.526>
VStem: 36 50<93.0766 309.064> 325 46<2.69333 195.889> 331 51<84.8845 318.771>
LayerCount: 2
Fore
SplineSet
142 -1 m 0xf4
 103 -1 36 78 36 224 c 0
 36 251 39 279 44 305 c 0
 46 316 53 322 61 322 c 0
 73 322 94 304 94 297 c 0
 94 286 86 271 86 211 c 0
 86 124 113 51 148 51 c 0
 183 51 301 186 327 278 c 0
 331 293 340 322 366 322 c 0
 377 322 382 311 382 271 c 0xf4
 382 220 371 118 371 83 c 0
 371 60 377 46 377 23 c 0
 377 6 372 -2 362 -2 c 0
 325 -2 325 56 325 84 c 0xf8
 325 106 331 195 331 196 c 0
 331 197 331 196 330 196 c 0
 328 196 311 171 295 141 c 0
 238 37 178 -1 142 -1 c 0xf4
75 407 m 0
 75 428 220 607 258 607 c 0
 274 607 290 527 323 490 c 4
 340 471 363 421 363 405 c 0
 363 404 363 393 352 393 c 0
 339 393 319 409 311 430 c 4
 302 456 276 477 260 516 c 4
 257 525 250 539 239 539 c 0
 225 539 146 454 126 419 c 4
 116 402 109 397 95 396 c 4
 76 395 75 405 75 407 c 0
EndSplineSet
EndChar

StartChar: udieresis
Encoding: 252 252 148
Width: 433
Flags: W
HStem: -1 52<117.143 184.135> 302 20G<57 67 352.5 370.5> 393 58<62.6445 82.7219> 416 87<323.149 385.208>
VStem: 36 49<93.0766 308.923> 56 90<406.835 464.122> 318 73<420.346 500.795> 325 46<1.73925 195.905> 330 51<84.6397 318.968>
LayerCount: 2
Fore
SplineSet
142 -1 m 0xc080
 103 -1 36 78 36 224 c 0
 36 251 39 279 44 305 c 0
 46 316 53 322 61 322 c 0
 73 322 93 306 93 297 c 0
 93 280 85 258 85 211 c 0
 85 124 113 51 148 51 c 0
 183 51 301 186 327 278 c 0
 332 295 340 322 365 322 c 0
 376 322 381 311 381 271 c 0xc880
 381 234 371 85 371 83 c 0
 371 48 376 48 376 23 c 0
 376 6 372 -2 362 -2 c 0
 327 -2 325 43 325 84 c 0xc1
 325 128 330 195 330 196 c 0
 330 197 330 196 329 196 c 0
 327 196 311 171 295 141 c 0
 238 37 178 -1 142 -1 c 0xc080
350 416 m 0xd2
 328 416 318 427 318 460 c 0
 318 471 320 483 323 491 c 0
 326 499 340 503 353 503 c 0
 362 503 391 503 391 466 c 0
 391 454 388 416 350 416 c 0xd2
64 451 m 0xe4
 78 451 91 503 114 503 c 0xd4
 144 503 146 480 146 466 c 0
 146 427 122 393 97 393 c 0
 73 393 56 417 56 438 c 0
 56 446 58 451 64 451 c 0xe4
EndSplineSet
EndChar

StartChar: yacute
Encoding: 253 253 149
Width: 413
Flags: W
HStem: 302 20G<53 78 313.5 331>
VStem: 33 65<-280.322 -234.375> 40 52<152.589 320.445> 146 59<-60.4734 6.69345> 185 27<396 400.939> 254 88<247.824 283.496>
LayerCount: 2
Fore
SplineSet
61 322 m 0xb4
 95 322 88 277 92 233 c 0xb4
 98 167 141 46 155 46 c 0
 169 46 232 182 254 239 c 0
 274 292 301 322 326 322 c 0
 336 322 342 319 342 309 c 0
 342 293 327 259 294 192 c 0
 267 137 205 -10 205 -14 c 0
 205 -26 120 -185 98 -234 c 0
 72 -294 63 -306 46 -306 c 0
 38 -306 33 -302 33 -294 c 0xd4
 33 -269 72 -206 91 -156 c 0
 107 -112 146 -43 146 -17 c 0
 146 8 117 2 107 22 c 0
 90 54 40 194 40 281 c 0
 40 304 45 322 61 322 c 0xb4
378 560 m 0
 378 548 368 525 350 507 c 2
 325 481 l 1
 273 429 237 404 212 396 c 1
 212 396 185 389 185 396 c 0x8c
 185 409 225 442 241 461 c 0
 270 495 269 490 298 524 c 0
 333 565 338 575 352 575 c 2
 352 575 367 577 374 574 c 0
 376 572 378 565 378 560 c 0
EndSplineSet
EndChar

StartChar: ydieresis
Encoding: 255 255 150
Width: 409
Flags: W
HStem: 302 20G<54 79 314.5 332> 393 58<43.6445 64.7219> 416 87<305.149 367.208>
VStem: 35 65<-278.83 -235.851> 37 90<406.42 462.028> 41 52<156.484 320.445> 148 58<-61.1654 4.16843> 256 87<247.824 283.496> 300 73<420.773 500.795>
LayerCount: 2
Fore
SplineSet
62 322 m 0x86
 96 322 89 277 93 233 c 0x86
 99 167 142 46 156 46 c 0
 170 46 234 182 256 239 c 0
 276 292 302 322 327 322 c 0
 337 322 343 319 343 309 c 0
 343 293 328 259 295 192 c 0
 268 137 206 -10 206 -14 c 0
 206 -25 127 -173 100 -234 c 0
 74 -294 64 -306 47 -306 c 0
 39 -306 35 -302 35 -294 c 0x93
 35 -270 70 -215 92 -156 c 0
 103 -127 148 -44 148 -17 c 0
 148 7 119 1 109 22 c 0
 86 64 41 209 41 281 c 0
 41 304 46 322 62 322 c 0x86
331 416 m 0xa280
 311 416 300 427 300 460 c 0
 300 471 302 483 305 491 c 0
 308 499 322 503 335 503 c 0
 344 503 373 503 373 466 c 0
 373 452 369 416 331 416 c 0xa280
46 451 m 0xca
 60 451 73 503 96 503 c 0xaa
 125 503 127 481 127 466 c 0
 127 422 101 393 78 393 c 0
 54 393 37 417 37 438 c 0
 37 446 40 451 46 451 c 0xca
EndSplineSet
EndChar

StartChar: cedilla
Encoding: 184 184 151
Width: 248
Flags: W
HStem: -216 39<79.2154 156.345> -103 110<67.8225 112.762> -90 39<113.072 145.673>
VStem: 63 54<-53.9076 6.16353> 157 47<-176.318 -98.4067>
LayerCount: 2
Fore
SplineSet
90 7 m 0xd8
 99 7 117 5 117 -14 c 0
 117 -24 113 -36 113 -43 c 0
 113 -48 115 -51 122 -51 c 0
 156 -51 204 -92 204 -149 c 0
 204 -195 168 -216 148 -216 c 0
 135 -216 43 -192 43 -169 c 0
 43 -167 44 -156 62 -156 c 0
 86 -156 122 -173 139 -177 c 0
 149 -177 157 -170 157 -150 c 0
 157 -149 156 -108 132 -96 c 0
 123 -92 118 -90 116 -90 c 0xb8
 110 -90 103 -103 84 -103 c 2
 83 -103 l 2
 66 -103 64 -91 64 -87 c 0
 64 -72 63 -60 63 -48 c 0
 63 -41 64 7 90 7 c 0xd8
EndSplineSet
EndChar

StartChar: Ccedilla
Encoding: 199 199 152
Width: 445
Flags: W
HStem: -230 39<286.283 363.254> -104 40<320.014 353.031> -14 41<183.632 306.651> 590 40<189.995 356.021>
VStem: 37 48<155.554 459.528> 270 54<-66.9732 -6.93775> 364 46<-190.256 -112.277>
LayerCount: 2
Fore
SplineSet
408 67 m 0
 408 53 297 -14 224 -14 c 0
 159 -14 113 31 68 129 c 0
 52 163 37 197 37 297 c 0
 37 450 88 578 165 615 c 0
 185 625 228 630 271 630 c 0
 376 630 402 601 385 586 c 0
 380 582 355 576 334 576 c 0
 300 576 306 590 265 590 c 0
 210 590 142 555 119 496 c 0
 94 431 85 395 85 334 c 0
 85 317 86 299 87 278 c 0
 91 199 96 177 113 141 c 0
 150 65 193 27 243 27 c 0
 265 27 363 73 396 73 c 0
 404 73 408 71 408 67 c 0
297 -6 m 0
 297 -6 324 -7 324 -28 c 0
 324 -38 320 -49 320 -56 c 0
 320 -61 321 -64 328 -64 c 0
 362 -64 410 -106 410 -163 c 0
 410 -213 372 -230 355 -230 c 0
 342 -230 250 -206 250 -183 c 0
 250 -181 250 -170 268 -170 c 2
 269 -170 l 2
 293 -170 328 -187 345 -191 c 0
 355 -191 364 -183 364 -163 c 0
 364 -162 363 -122 339 -110 c 0
 330 -106 324 -104 322 -104 c 0
 316 -104 310 -117 291 -117 c 2
 290 -117 l 2
 273 -117 271 -105 271 -101 c 0
 271 -86 270 -73 270 -61 c 0
 270 -60 270 -6 297 -6 c 0
EndSplineSet
EndChar

StartChar: ccedilla
Encoding: 231 231 153
Width: 403
Flags: W
HStem: -221 39<244.215 321.345> -108 110<232.823 277.762> -95 39<278.072 310.673> -5 39<121.434 275.2> 8 57<248.05 314> 288 44<138.204 230.751>
VStem: 35 53<65.6486 222.758> 228 55<-58.9076 1.16353> 322 47<-181.318 -103.407>
LayerCount: 2
Fore
SplineSet
35 125 m 0x9780
 35 239 122 332 179 332 c 0
 193 332 210 327 233 316 c 0
 261 303 269 295 271 279 c 0
 271 276 272 273 272 271 c 0
 272 261 267 259 254 259 c 0
 225 259 216 288 191 288 c 0
 190 288 130 284 106 222 c 0
 94 190 88 162 88 137 c 0
 88 87 110 53 145 38 c 0
 148 37 164 34 184 34 c 0x9780
 255 34 288 65 316 65 c 0
 321 65 326 65 326 56 c 0
 326 42 311 15 275 8 c 4x8f80
 228 -1 195 -5 171 -5 c 0
 134 -5 115 4 84 22 c 4
 50 41 35 81 35 125 c 0x9780
255 2 m 0xc780
 256 2 283 2 283 -19 c 0
 283 -29 278 -41 278 -48 c 0
 278 -53 280 -56 287 -56 c 0
 321 -56 369 -97 369 -154 c 0
 369 -200 333 -221 313 -221 c 0
 300 -221 208 -197 208 -174 c 0
 208 -172 209 -161 227 -161 c 0
 251 -161 287 -178 304 -182 c 0
 314 -182 322 -175 322 -155 c 0
 322 -154 321 -113 297 -101 c 0
 288 -97 283 -95 281 -95 c 0xa780
 275 -95 268 -108 249 -108 c 2
 248 -108 l 2
 231 -108 229 -96 229 -92 c 0
 229 -77 228 -65 228 -53 c 0
 228 -46 229 2 255 2 c 0xc780
EndSplineSet
EndChar

StartChar: ae
Encoding: 230 230 154
Width: 651
Flags: W
HStem: -2 36<381.787 482.986> -1 42<81.6752 173.893> 133 38<319.887 463.64> 164 37<147.674 267.549> 277 45<95.8191 263.399> 288 34<376.028 491.22>
VStem: 39 41<42.7035 121.955> 527 42<207.693 261.406>
LayerCount: 2
Fore
SplineSet
488 277 m 0x2b
 471 284 452 288 434 288 c 0x07
 396 288 360 270 340 229 c 0
 326 201 318 189 319 175 c 1
 338 174 352 171 372 171 c 2
 385 171 l 1
 421 174 527 200 527 231 c 0
 527 232 526 234 526 235 c 0
 523 244 499 272 488 277 c 0x2b
194 77 m 0
 213 93 204 82 223 99 c 0
 236 111 228 106 252 133 c 0x63
 265 147 258 136 268 154 c 1
 253 160 241 164 225 164 c 0
 197 164 184 158 166 152 c 0
 116 136 80 125 80 70 c 0
 80 44 97 41 111 41 c 2
 119 41 l 2x53
 136 41 162 50 194 77 c 0
36 258 m 0
 36 297 124 318 183 321 c 0
 191 321 198 322 205 322 c 0x5b
 228 322 246 318 270 306 c 0
 303 289 303 289 313 260 c 1
 333 284 376 322 447 322 c 0
 487 322 519 310 530 297 c 0
 552 271 569 246 569 225 c 0
 569 209 562 204 530 176 c 0
 507 158 393 133 371 133 c 0
 349 133 337 140 317 140 c 1
 338 86 373 45 419 36 c 0
 423 35 426 34 430 34 c 0
 469 34 564 103 602 103 c 0
 610 103 614 99 614 92 c 0
 614 84 554 44 499 15 c 0
 482 6 455 -2 426 -2 c 0xa7
 387 -2 342 11 311 50 c 0
 300 64 292 87 286 110 c 1
 239 58 160 -1 135 -1 c 2
 134 -1 l 1
 79 3 39 14 39 71 c 0
 39 126 60 140 104 172 c 0
 115 180 167 201 201 201 c 0
 229 201 256 192 277 188 c 1
 277 190 276 192 276 194 c 0
 276 203 278 212 278 220 c 0
 278 233 272 277 197 277 c 2
 165 277 l 2x5b
 146 277 134 272 116 267 c 0
 96 261 89 246 68 244 c 1
 64 244 l 2
 51 244 36 250 36 258 c 0
EndSplineSet
EndChar

StartChar: macron
Encoding: 175 175 155
Width: 401
Flags: W
HStem: 679 46<56.763 344.178>
VStem: 56 289<679.036 713.296>
LayerCount: 2
Fore
SplineSet
56 697 m 0
 56 722 85 725 141 725 c 0
 160 725 184 724 215 723 c 0
 300 720 345 715 345 700 c 0
 345 696 342 693 337 688 c 0
 325 677 321 673 287 673 c 0
 240 673 144 679 143 679 c 0
 123 679 131 674 93 674 c 0
 75 674 56 678 56 697 c 0
EndSplineSet
EndChar

StartChar: Eth
Encoding: 208 208 156
Width: 678
Flags: W
HStem: 2 43<269.598 372.971> 295 48<33.9888 219 259 456.452> 586 39<280.439 452.722>
VStem: 213 52<57.4364 278.04> 219 39<124.053 296 343 548.663> 589 52<288.191 475.258>
LayerCount: 2
Fore
SplineSet
461 327 m 0xf4
 461 296 362 295 316 295 c 0
 299 295 279 295 258 296 c 1
 258 282 l 2xec
 258 197 265 145 265 123 c 0
 265 95 267 66 270 57 c 0
 273 48 280 45 290 45 c 0
 291 45 336 47 394 76 c 0
 404 81 410 87 414 90 c 0
 427 98 450 125 483 158 c 0
 513 187 566 275 580 320 c 0
 587 341 589 363 589 384 c 0
 589 411 584 439 573 467 c 0
 560 501 492 555 438 573 c 0
 412 582 377 586 345 586 c 0
 325 586 307 584 294 580 c 0
 278 575 276 567 267 464 c 0
 263 419 260 379 259 343 c 1
 413 342 461 340 461 327 c 0xf4
69 292 m 0
 55 292 33 295 33 315 c 0
 33 324 39 334 51 338 c 0
 60 341 132 343 220 343 c 1
 222 443 223 559 224 627 c 0
 224 635 232 624 309 624 c 0
 316 624 322 625 329 625 c 2
 342 625 l 2
 417 625 468 610 534 570 c 0
 587 538 611 507 632 442 c 0
 639 421 641 408 641 393 c 0
 641 382 639 370 636 353 c 0
 623 288 625 293 584 222 c 0
 549 161 547 147 466 83 c 0
 388 21 407 34 366 19 c 0
 334 8 307 2 280 2 c 0
 218 2 215 7 213 74 c 1
 213 101 l 2xf4
 213 103 218 237 219 297 c 1
 204 297 188 298 174 298 c 0
 137 298 70 292 69 292 c 0
EndSplineSet
EndChar

StartChar: Oslash
Encoding: 216 216 157
Width: 590
Flags: W
HStem: -2 36<201.607 336.434> 582 45<277.045 409.186>
VStem: 41 49<155.28 391.016> 509 43<248.771 468.863>
LayerCount: 2
Fore
SplineSet
261 609 m 0
 279 617 316 627 330 627 c 0
 351 627 389 617 418 601 c 0
 482 565 500 546 525 485 c 0
 544 439 552 409 552 376 c 0
 552 334 532 268 530 219 c 0
 529 198 524 174 519 165 c 0
 505 138 408 45 371 23 c 0
 339 5 322 -2 294 -2 c 0
 281 -2 265 -1 245 2 c 0
 163 13 119 42 79 114 c 0
 54 160 41 207 41 267 c 0
 41 299 45 335 52 377 c 0
 65 454 127 511 165 540 c 0
 181 552 190 557 203 567 c 0
 224 583 236 597 261 609 c 0
203 515 m 8
 126 434 90 393 90 249 c 0
 90 216 95 197 112 155 c 0
 133 102 139 92 169 70 c 0
 199 48 243 34 279 34 c 0
 288 34 297 35 305 37 c 0
 336 45 392 87 438 136 c 0
 472 173 475 182 491 264 c 0
 503 328 509 360 509 386 c 0
 509 409 504 426 495 456 c 0
 458 580 367 582 362 582 c 0
 314 582 231 545 203 515 c 8
47 -106 m 0
 38 -106 33 -90 33 -85 c 0
 33 -29 139 95 161 133 c 0
 168 145 190 180 208 209 c 0
 291 344 444 648 483 693 c 0
 497 709 511 718 522 718 c 0
 538 718 541 700 541 694 c 0
 541 683 534 669 519 655 c 0
 460 601 386 378 156 47 c 0
 131 11 100 -39 88 -61 c 0
 73 -90 58 -106 47 -106 c 0
EndSplineSet
EndChar

StartChar: oslash
Encoding: 248 248 158
Width: 389
Flags: W
HStem: -7 44<132.037 234.192> 293 40<170.344 247.266>
VStem: 35 50<65.2029 204.957> 300 44<110.586 248.349>
LayerCount: 2
Fore
SplineSet
85 131 m 0
 85 85 118 37 158 37 c 0
 163 37 170 38 177 39 c 0
 229 44 249 61 293 132 c 0
 298 140 300 150 300 166 c 0
 300 232 282 247 261 265 c 0
 244 279 223 292 216 293 c 1
 214 293 l 2
 183 293 85 221 85 131 c 0
161 -7 m 0
 101 -7 35 63 35 133 c 0
 35 196 80 264 161 317 c 0
 177 327 199 333 223 333 c 2
 228 333 l 2
 259 333 264 329 300 291 c 2
 340 249 l 1
 343 187 l 2
 344 173 344 163 344 154 c 0
 344 124 338 116 312 79 c 0
 272 23 219 -7 161 -7 c 0
69 -61 m 0
 55 -61 48 -50 48 -39 c 0
 48 -21 65 9 87 38 c 0
 166 146 253 338 282 364 c 0
 288 369 297 376 307 376 c 0
 320 376 330 365 330 351 c 0
 330 331 309 325 287 280 c 0
 222 155 187 95 135 21 c 0
 101 -27 99 -42 86 -54 c 0
 83 -57 77 -61 69 -61 c 0
EndSplineSet
EndChar

StartChar: onequarter
Encoding: 188 188 159
Width: 875
Flags: W
HStem: 233 46<504.143 611.951> 242 37<504.752 673.479 741.712 840.939>
VStem: 201 45<443.928 704.582> 259 24<847.222 883.296> 278 44<1019.09 1078.56> 450 54<279.02 386.755> 508 46<463.256 584.532> 685 50<-34.083 237.18>
LayerCount: 2
Fore
SplineSet
246 504 m 0x37
 246 466 256 456 256 445 c 0
 256 432 227 434 216 442 c 0
 206 449 201 475 201 507 c 0
 201 528 203 552 208 574 c 0
 220 627 209 670 253 875 c 0
 257 893 259 910 259 920 c 0x37
 259 922 259 929 257 929 c 0
 253 929 231 904 209 872 c 0
 168 813 87 738 62 736 c 1
 61 736 l 2
 48 736 33 751 33 762 c 0
 33 769 59 785 79 796 c 0
 108 812 131 833 164 878 c 0
 215 946 273 1040 278 1062 c 0
 280 1073 294 1079 305 1079 c 0
 311 1079 322 1077 322 1065 c 0x2f
 322 1037 283 818 283 816 c 0
 259 652 246 557 246 504 c 0x37
82 -6 m 0
 78 -6 69 -1 69 14 c 0
 69 40 97 95 141 154 c 0
 296 363 464 730 518 793 c 0
 532 809 546 817 557 817 c 0
 573 817 576 799 576 793 c 0
 576 764 550 770 493 662 c 0
 364 413 294 295 191 147 c 0
 166 111 135 61 123 39 c 0
 108 10 93 -6 82 -6 c 0
482 233 m 2xa7
 461 233 450 233 450 269 c 0
 450 325 499 481 508 543 c 0
 511 563 519 589 542 586 c 0
 550 585 554 576 554 562 c 0
 554 514 504 399 504 290 c 2
 504 282 l 2
 504 279 517 279 536 279 c 0xa7
 582 279 664 286 674 293 c 0
 683 300 678 449 691 535 c 0
 695 559 700 569 711 571 c 0
 719 572 729 570 733 567 c 0
 734 566 734 561 734 553 c 0
 734 503 721 464 721 389 c 0
 721 326 732 279 752 279 c 2
 759 279 l 2
 760 279 841 275 841 260 c 0
 841 242 820 242 796 242 c 0
 787 242 777 243 764 243 c 2
 758 243 l 2
 748 243 741 239 735 182 c 0
 721 56 724 -80 705 -80 c 0
 690 -80 685 -61 685 -35 c 0
 685 -30 686 -25 686 -20 c 2
 686 1 l 2
 686 34 685 94 685 132 c 0
 685 143 686 152 686 158 c 0
 686 175 689 218 689 219 c 0
 689 235 652 242 614 242 c 0x67
 570 242 544 233 496 233 c 2
 482 233 l 2xa7
EndSplineSet
Decomposition: "1/4"
EndChar

StartChar: onehalf
Encoding: 189 189 160
Width: 877
Flags: W
HStem: 9 44<550.607 719.099> 45 51<453.811 521.5> 593 44<615.982 740.242>
VStem: 201 45<341.928 602.582> 259 24<745.222 781.296> 471 60<477.094 534.448> 743 41<468.833 587.609>
LayerCount: 2
Fore
SplineSet
246 402 m 0x3e
 246 364 256 354 256 343 c 0
 256 330 227 332 216 340 c 0
 206 347 201 373 201 405 c 0
 201 426 203 450 208 472 c 0
 220 525 209 568 253 773 c 0
 257 791 259 808 259 818 c 0
 259 820 258 827 256 827 c 0
 252 827 231 802 209 770 c 0
 168 711 87 636 62 634 c 1
 60 634 l 2
 47 634 33 649 33 660 c 0
 33 667 59 683 79 694 c 0
 108 710 131 731 164 776 c 0
 215 844 272 938 277 960 c 0
 279 971 294 977 305 977 c 0
 311 977 322 975 322 963 c 0
 322 935 283 716 283 714 c 0
 259 550 246 455 246 402 c 0x3e
120 -6 m 0
 118 -6 106 -4 106 14 c 0
 106 71 212 196 234 233 c 0
 241 245 262 279 280 308 c 0
 364 444 520 753 555 793 c 0
 569 809 583 817 594 817 c 0
 610 817 614 799 614 793 c 0
 614 766 587 771 530 662 c 0
 401 413 332 295 229 147 c 0
 204 111 173 61 161 39 c 0
 146 10 131 -6 120 -6 c 0
531 506 m 0
 531 488 533 493 533 475 c 0
 533 465 530 462 522 462 c 2
 518 462 l 1
 502 463 471 495 471 510 c 0
 471 521 602 637 699 637 c 0
 700 637 784 635 784 563 c 0
 784 553 782 486 742 374 c 0
 725 326 604 162 582 139 c 2
 582 139 541 97 541 88 c 0
 541 85 558 53 621 53 c 0
 697 53 787 95 827 95 c 0
 838 95 843 91 843 84 c 0
 843 75 686 9 615 9 c 0xbe
 554 9 519 45 497 45 c 0
 470 45 402 -22 378 -22 c 2
 376 -22 l 1
 372 -20 370 -15 370 -7 c 0
 370 6 376 26 386 42 c 0
 398 61 456 96 476 96 c 2
 478 96 l 2x7e
 502 96 536 125 580 183 c 0
 656 285 743 492 743 558 c 0
 743 573 735 593 696 593 c 0
 662 593 614 577 564 544 c 0
 537 526 531 521 531 506 c 0
EndSplineSet
Decomposition: "1/2"
EndChar

StartChar: threequarters
Encoding: 190 190 161
Width: 989
Flags: W
HStem: 230 43<161.509 239.568> 255 45<618.036 725.135> 264 37<618.225 787.479 856.357 954.939> 313 20G<109 128> 619 42<301.523 357.155> 828 47<115.798 292.839>
VStem: 257 44<663.886 716.965> 308 49<738.863 810.633> 390 49<419.151 555.969> 564 54<300.112 411.536> 622 46<487.106 606.508> 799 50<-12.3776 258.193 413.489 588.95>
LayerCount: 2
Fore
SplineSet
32 798 m 0x9ff0
 32 824 115 875 199 875 c 0
 261 875 331 855 347 829 c 0
 353 819 357 808 357 797 c 0
 357 755 301 696 301 671 c 0
 301 665 317 661 331 661 c 0
 381 659 439 527 439 472 c 0
 439 439 401 368 373 342 c 0
 341 311 260 249 240 238 c 0
 231 233 208 230 183 230 c 2
 174 230 l 1
 118 232 97 249 97 292 c 2
 97 297 l 1
 98 321 104 333 114 333 c 0
 142 333 161 273 198 273 c 0
 250 273 372 407 386 448 c 0
 388 454 390 464 390 475 c 0
 390 517 377 585 356 600 c 0
 338 612 321 619 304 619 c 0
 251 619 208 560 184 560 c 0
 178 560 166 569 166 580 c 0
 166 604 257 677 257 691 c 0
 257 703 308 754 308 783 c 0
 308 811 254 828 212 828 c 0
 116 828 78 774 53 774 c 0
 43 774 32 791 32 798 c 0x9ff0
227 -14 m 0
 225 -14 213 -12 213 6 c 0
 213 62 319 186 341 224 c 0
 348 236 369 271 387 300 c 0x5ff0
 476 444 625 740 663 784 c 0
 677 800 690 809 701 809 c 0
 717 809 721 791 721 785 c 0
 721 757 692 758 637 654 c 0
 508 405 439 286 336 138 c 0
 311 102 280 53 268 31 c 0
 253 2 238 -14 227 -14 c 0
596 255 m 2
 575 255 564 255 564 291 c 0
 564 351 615 516 622 565 c 0
 625 588 634 611 656 608 c 0
 664 607 668 598 668 584 c 0
 668 538 618 427 618 312 c 2
 618 304 l 2
 618 301 631 300 650 300 c 0x5ff0
 696 300 778 308 788 315 c 0
 797 322 791 470 804 556 c 0
 808 580 814 590 825 592 c 0
 833 593 842 592 846 589 c 0
 847 588 848 583 848 575 c 0
 848 524 835 485 835 410 c 0
 835 347 845 301 865 301 c 2
 873 301 l 2
 874 301 955 297 955 282 c 0
 955 264 934 264 910 264 c 2
 878 264 l 2x3ff0
 876 264 874 265 872 265 c 0
 862 265 855 260 849 203 c 0
 835 77 838 -58 819 -58 c 0
 804 -58 799 -40 799 -14 c 2
 799 1 l 2
 799 4 800 12 800 22 c 0
 800 55 799 116 799 154 c 2
 799 180 l 2
 799 197 803 240 803 241 c 0
 803 257 766 263 728 263 c 0
 666 263 661 255 609 255 c 2
 596 255 l 2
EndSplineSet
Decomposition: "3/4"
EndChar

StartChar: exclamdown
Encoding: 161 161 162
Width: 152
Flags: W
HStem: 549 93<50.1671 91.0809>
VStem: 38 76<558.547 619.059> 50 50<48.8416 265 284 441.316>
LayerCount: 2
Fore
SplineSet
38 611 m 0xc0
 38 610 41 549 86 549 c 0
 105 549 114 555 114 568 c 0
 114 581 87 642 65 642 c 0
 64 642 38 638 38 611 c 0xc0
102 51 m 0
 102 97 98 172 98 186 c 0
 98 210 100 224 100 258 c 0
 100 266 99 274 99 284 c 0
 97 435 98 444 85 444 c 0
 83 444 81 443 79 443 c 0
 57 443 50 411 50 297 c 2
 50 265 l 1xa0
 51 103 60 48 76 12 c 0
 83 -4 89 -12 93 -12 c 0
 100 -12 102 8 102 51 c 0
EndSplineSet
EndChar

StartChar: questiondown
Encoding: 191 191 163
Width: 362
Flags: W
HStem: -5 51<85.0164 206.786> 567 65<164.53 221.576>
VStem: 35 49<46.7932 95.4707> 162 72<571.948 619.583>
LayerCount: 2
Fore
SplineSet
234 584 m 0
 234 567 217 567 210 567 c 0
 209 567 162 567 162 600 c 0
 162 620 177 632 189 632 c 0
 202 632 234 606 234 584 c 0
300 140 m 0
 315 140 327 127 327 120 c 0
 327 111 316 98 286 70 c 0
 245 31 203 -5 109 -5 c 2
 107 -5 l 2
 65 -5 38 16 35 45 c 1
 35 57 l 2
 35 121 87 177 139 280 c 0
 204 408 194 426 213 426 c 0
 217 426 231 423 231 382 c 0
 231 347 215 306 172 217 c 0
 121 113 84 71 84 55 c 0
 84 49 98 46 127 46 c 0
 178 46 238 76 259 112 c 0
 269 130 285 140 300 140 c 0
EndSplineSet
EndChar

StartChar: ordfeminine
Encoding: 170 170 164
Width: 387
Flags: W
HStem: 415 42<86.9699 178.323> 580 39<148.338 271.658> 693 45<100.1 264.062>
VStem: 45 40<458.684 537.774> 282 42<425.374 534 615 674.394>
LayerCount: 2
Fore
SplineSet
323 617 m 0
 323 513 339 446 339 444 c 0
 339 439 343 433 343 425 c 0
 343 419 340 412 331 404 c 0
 325 399 313 411 307 416 c 16
 295 428 286 528 286 529 c 0
 286 531 287 532 287 534 c 1
 259 481 173 415 141 415 c 2
 139 415 l 1
 84 419 45 430 45 487 c 0
 45 541 59 552 109 588 c 0
 110 589 159 619 235 619 c 0
 252 619 267 618 281 615 c 1
 281 620 l 2
 281 629 282 637 282 644 c 0
 282 654 280 662 265 675 c 0
 245 692 225 693 202 693 c 2
 171 693 l 2
 152 693 139 687 121 682 c 0
 101 676 94 662 73 660 c 1
 70 660 l 2
 57 660 41 666 41 674 c 0
 41 712 134 734 189 737 c 16
 197 737 204 738 211 738 c 0
 234 738 252 734 276 722 c 0
 298 711 305 711 314 687 c 0
 322 664 324 660 324 651 c 0
 324 645 323 635 323 617 c 0
199 493 m 0
 218 509 209 498 228 515 c 0
 241 527 233 522 257 549 c 0
 270 563 268 564 272 581 c 1
 265 580 259 580 252 580 c 2
 230 580 l 2
 202 580 189 574 171 568 c 0
 120 552 85 541 85 485 c 0
 85 459 102 457 116 457 c 2
 124 457 l 2
 141 457 167 466 199 493 c 0
EndSplineSet
EndChar

StartChar: ordmasculine
Encoding: 186 186 165
Width: 396
Flags: W
HStem: 408 45<122.166 242.885> 709 39<180.433 256.254>
VStem: 42 50<484.846 619.843> 308 44<524.012 663.349>
LayerCount: 2
Fore
SplineSet
168 408 m 0
 109 408 42 480 42 548 c 0
 42 611 87 679 168 732 c 0
 184 742 206 748 230 748 c 2
 235 748 l 2
 266 748 271 744 307 706 c 2
 348 664 l 1
 351 603 l 2
 352 589 352 578 352 569 c 0
 352 539 345 531 319 494 c 0
 279 438 226 408 168 408 c 0
92 546 m 0
 92 501 127 453 165 453 c 0
 237 453 260 481 301 547 c 0
 306 555 308 565 308 581 c 0
 308 647 290 662 269 680 c 0
 252 694 230 708 223 709 c 1
 221 709 l 2
 191 709 92 635 92 546 c 0
EndSplineSet
EndChar

StartChar: multiply
Encoding: 215 215 166
Width: 427
Flags: W
HStem: 161 324<79 89>
LayerCount: 2
Fore
SplineSet
314 462 m 0
 315 462 353 485 378 485 c 0
 386 485 391 482 391 477 c 0
 391 472 370 451 342 431 c 0
 315 411 342 433 295 391 c 0
 243 345 222 320 222 297 c 0
 222 259 295 203 295 179 c 0
 295 173 281 162 272 162 c 0
 262 162 247 178 193 239 c 1
 173 261 l 1
 137 229 l 2
 117 212 101 195 99 183 c 0
 96 170 89 161 80 161 c 0
 61 161 36 183 36 198 c 0
 36 205 61 228 93 260 c 2
 151 318 l 1
 120 375 l 2
 103 406 104 401 89 415 c 0
 71 431 67 434 67 445 c 2
 67 456 l 1
 69 476 79 485 91 485 c 0
 99 485 107 482 116 475 c 0
 126 468 122 475 146 429 c 0
 170 383 192 346 194 346 c 0
 196 346 231 393 282 437 c 0
 308 459 312 464 313 464 c 2
 313 464 313 462 314 462 c 0
EndSplineSet
EndChar

StartChar: divide
Encoding: 247 247 167
Width: 504
Flags: W
HStem: 144 96<215.711 263.441> 301 52<40.1367 455.56> 431 96<223.306 262.648>
VStem: 199 86<165.867 227.949> 212 51<431.959 490.943>
LayerCount: 2
Fore
SplineSet
75 301 m 0xe8
 65 301 39 303 39 325 c 0
 39 334 45 343 57 347 c 0
 66 350 147 353 242 353 c 2
 263 353 l 1
 418 352 467 349 467 336 c 0
 467 333 464 329 458 324 c 0
 444 311 397 304 321 304 c 0
 320 304 214 307 180 307 c 0
 117 307 76 301 75 301 c 0xe8
199 161 m 0xf0
 199 172 213 240 239 240 c 0
 240 240 285 233 285 216 c 0
 285 208 280 196 269 176 c 0
 255 149 248 144 228 144 c 0
 223 144 199 145 199 161 c 0xf0
212 460 m 0xe8
 212 489 227 527 251 527 c 0
 260 527 279 518 279 492 c 0
 279 469 263 475 263 449 c 0
 263 435 258 431 243 431 c 0
 237 431 212 432 212 460 c 0xe8
EndSplineSet
EndChar

StartChar: Thorn
Encoding: 222 222 168
Width: 466
Flags: W
HStem: 1 21G<65 76.5> 154 45<107.176 210.408> 499 49<93.2725 274.441>
VStem: 46 47<2.02114 137.164 547.001 644.236> 380 49<310.604 423.36>
LayerCount: 2
Fore
SplineSet
41 43 m 0
 41 101 58 155 58 253 c 0
 58 324 43 402 44 474 c 0
 46 626 46 626 46 626 c 2
 46 636 47 642 78 646 c 1
 80 646 l 2
 95 646 99 631 99 612 c 0
 99 589 93 561 93 551 c 0
 93 549 93 547 94 547 c 0
 116 547 138 548 161 548 c 0
 184 548 208 547 231 542 c 0
 285 529 429 465 429 366 c 0
 429 322 402 271 325 215 c 0
 281 183 166 154 132 154 c 0
 108 154 102 151 99 138 c 0
 95 120 94 112 94 104 c 2
 94 73 l 1
 92 30 88 1 65 1 c 0
 65 1 41 5 41 43 c 0
337 452 m 0
 302 481 170 500 136 500 c 0
 133 500 130 499 128 499 c 2
 112 499 l 2
 99 499 89 498 88 481 c 1
 88 459 l 2
 88 371 106 220 108 215 c 0
 113 203 115 199 119 199 c 0
 123 199 130 204 146 205 c 0
 194 209 293 248 321 273 c 0
 347 296 380 326 380 362 c 0
 380 388 357 436 337 452 c 0
EndSplineSet
EndChar

StartChar: thorn
Encoding: 254 254 169
Width: 453
Flags: W
HStem: -294 21G<49.5 73> -142 51<230.15 297.196> 179 36<275.701 348.22> 308 20G<59.5 81>
VStem: 34 57<-293.883 -119.374> 53 48<-2.71024 326.214> 361 47<-7.74318 174.428>
LayerCount: 2
Fore
SplineSet
34 -263 m 2xfa
 34 -202 53 -110 53 140 c 2
 53 242 l 2
 53 317 55 328 64 328 c 0
 98 328 100 318 100 187 c 0
 100 133 97 47 97 12 c 0
 97 2 97 -4 98 -4 c 0
 101 -4 111 33 122 59 c 0
 165 157 211 168 269 203 c 0
 287 214 304 215 319 215 c 2
 336 215 l 2
 359 215 366 211 379 191 c 0
 395 166 408 140 408 100 c 0
 408 89 407 77 405 63 c 0
 393 -14 370 -51 317 -100 c 0
 317 -101 291 -142 266 -142 c 0
 250 -142 230 -128 230 -128 c 1
 206 -121 178 -101 166 -89 c 0
 148 -70 134 -50 106 -48 c 1
 102 -54 101 -76 101 -98 c 0
 101 -105 102 -113 102 -119 c 0
 102 -127 101 -133 101 -137 c 0xf6
 98 -173 91 -227 91 -282 c 0
 91 -292 84 -294 62 -294 c 0
 37 -294 34 -294 34 -271 c 2
 34 -263 l 2xfa
352 151 m 0
 347 169 340 179 325 179 c 0
 314 179 298 173 275 161 c 0
 247 146 175 100 175 13 c 0
 175 2 176 -10 177 -23 c 0
 178 -36 256 -91 268 -91 c 0
 275 -91 334 -40 347 -17 c 0
 357 1 361 34 361 68 c 0
 361 97 358 127 352 151 c 0
EndSplineSet
EndChar

StartChar: germandbls
Encoding: 223 223 170
Width: 450
Flags: W
HStem: 305 49<102 210.27> 604 46<144.284 326.683>
VStem: 40 50<93.8208 533.85> 52 47<3.36821 246.56> 334 53<137.69 232.547> 366 49<463.794 565.616>
LayerCount: 2
Fore
SplineSet
77 3 m 24xd0
 60 5 52 5 52 37 c 0xd0
 52 48 54 59 54 71 c 0
 54 74 53 78 53 82 c 0
 47 150 40 245 40 336 c 0
 40 456 52 570 94 608 c 0
 132 643 181 650 219 650 c 0
 249 650 272 646 279 646 c 2
 282 646 l 2
 312 646 363 622 376 601 c 0
 395 570 415 518 415 499 c 0xe4
 415 472 353 404 299 370 c 0
 274 354 252 339 252 336 c 0
 252 325 311 313 354 267 c 0
 376 243 387 227 387 207 c 0
 387 205 386 115 271 40 c 0
 221 7 229 13 195 6 c 0
 173 2 166 1 154 -1 c 8
 143 -3 135 8 134 18 c 17
 134 26 l 2
 134 35 137 44 147 49 c 8
 170 62 188 55 213 61 c 24
 238 67 232 69 255 81 c 0
 334 123 334 163 334 202 c 0
 334 246 173 305 117 305 c 0
 92 305 90 301 90 251 c 0xe8
 90 156 99 79 99 64 c 0
 99 48 97 32 94 12 c 8
 93 5 85 3 77 3 c 24xd0
147 586 m 0
 105 551 96 488 96 442 c 0
 96 416 99 396 99 389 c 2
 102 354 l 1
 145 355 l 2
 179 356 199 362 239 384 c 0
 322 430 366 475 366 513 c 0xd4
 366 532 344 573 327 585 c 0
 321 589 266 604 216 604 c 0
 188 604 163 599 147 586 c 0
EndSplineSet
EndChar

StartChar: copyright
Encoding: 169 169 171
Width: 587
Flags: W
HStem: -2 36<198.991 334.337> 144 40<226.582 382.93> 158 57<354.05 420> 437 44<244.941 336.751> 582 45<274.519 407.308>
VStem: 39 49<152.932 391.016> 141 53<215.857 371.256> 507 42<249.837 467.867>
LayerCount: 2
Fore
SplineSet
259 609 m 0x9f
 274 616 311 627 328 627 c 0
 349 627 387 617 416 601 c 0
 480 565 497 546 522 485 c 0
 541 439 549 409 549 376 c 0
 549 326 530 269 528 219 c 0
 527 198 522 174 517 165 c 0
 503 138 406 45 369 23 c 0
 337 5 320 -2 292 -2 c 0
 279 -2 262 -1 242 2 c 0
 160 13 116 42 76 114 c 0
 51 160 39 207 39 267 c 0
 39 299 42 335 49 377 c 0
 62 454 125 511 163 540 c 0
 179 552 187 557 200 567 c 0
 221 583 234 597 259 609 c 0x9f
201 515 m 8
 124 434 88 393 88 249 c 0
 88 216 92 197 109 155 c 0
 130 102 137 92 167 70 c 0
 197 48 240 34 276 34 c 0
 285 34 295 35 303 37 c 0
 334 45 389 87 435 136 c 0
 469 173 473 182 489 264 c 0
 501 328 507 360 507 386 c 0
 507 409 502 426 493 456 c 0
 456 580 366 582 359 582 c 0
 311 582 229 545 201 515 c 8
141 275 m 0
 141 385 224 481 285 481 c 0
 299 481 316 476 339 465 c 0
 367 452 375 445 377 429 c 0
 377 426 378 423 378 421 c 0
 378 411 373 408 360 408 c 0
 331 408 322 437 297 437 c 0
 296 437 236 433 212 371 c 0
 200 339 194 311 194 286 c 0
 194 236 217 202 252 187 c 0
 255 186 270 184 290 184 c 0xdf
 361 184 394 215 422 215 c 0
 424 215 432 214 432 206 c 0
 432 192 417 165 381 158 c 0xbf
 334 149 301 144 277 144 c 0xdf
 240 144 221 154 190 172 c 0
 156 191 141 231 141 275 c 0
EndSplineSet
EndChar

StartChar: registered
Encoding: 174 174 172
Width: 587
Flags: W
HStem: -2 36<198.991 334.337> 282 32<215 249.129> 401 44<210.001 246.296> 434 25<245.822 362.254> 582 45<274.519 407.308>
VStem: 39 49<152.932 391.016> 162 47<314.266 406.291> 169 54<147.769 229.229> 169 40<150.894 281.937 314.266 360.755> 368 37<380.587 413> 507 42<249.837 467.867>
LayerCount: 2
Fore
SplineSet
259 609 m 0xcc60
 274 616 311 627 328 627 c 0
 349 627 387 617 416 601 c 0
 480 565 497 546 522 485 c 0
 541 439 549 409 549 376 c 0
 549 326 530 269 528 219 c 0
 527 198 522 174 517 165 c 0
 503 138 406 45 369 23 c 0
 337 5 320 -2 292 -2 c 0
 279 -2 262 -1 242 2 c 0
 160 13 116 42 76 114 c 0
 51 160 39 207 39 267 c 0
 39 299 42 335 49 377 c 0
 62 454 125 511 163 540 c 0
 179 552 187 557 200 567 c 0
 221 583 234 597 259 609 c 0xcc60
201 515 m 8
 124 434 88 393 88 249 c 0
 88 216 92 197 109 155 c 0
 130 102 137 92 167 70 c 0
 197 48 240 34 276 34 c 0
 285 34 295 35 303 37 c 0
 334 45 389 87 435 136 c 0
 469 173 473 182 489 264 c 0
 501 328 507 360 507 386 c 0
 507 409 502 426 493 456 c 0
 456 580 366 582 359 582 c 0
 311 582 229 545 201 515 c 8
206 445 m 2xee60
 238 445 243 459 288 459 c 0
 295 459 303 458 313 458 c 0
 376 455 405 443 405 418 c 0
 405 386 347 310 307 294 c 0
 298 290 290 286 290 284 c 0
 290 280 296 270 337 224 c 0
 352 208 368 196 378 179 c 0
 388 162 396 154 399 152 c 0
 411 143 403 123 377 136 c 0
 368 141 368 141 312 199 c 0
 290 222 275 233 266 246 c 0
 248 270 235 282 225 282 c 2
 222 282 l 1
 216 281 209 258 209 231 c 0xdce0
 209 193 223 169 223 150 c 0xdd60
 223 137 201 142 192 147 c 0
 179 154 177 160 170 224 c 0
 169 236 169 249 169 261 c 2
 169 300 l 2xdce0
 169 337 162 335 162 362 c 0
 162 372 163 383 166 403 c 0
 171 439 172 446 184 446 c 0
 187 446 191 446 196 445 c 1
 206 445 l 2xee60
368 413 m 0
 368 413 368 434 309 434 c 0xde60
 222 434 242 401 218 401 c 0
 212 401 210 399 210 393 c 0
 210 387 211 378 211 363 c 0
 211 343 209 343 209 339 c 0xee60
 209 338 209 335 210 331 c 2
 215 314 l 1
 248 315 l 2
 279 316 282 317 306 335 c 0
 335 357 368 398 368 413 c 0
EndSplineSet
EndChar

StartChar: plusminus
Encoding: 177 177 173
Width: 550
Flags: W
HStem: 31 51<55.0716 474.191> 322 59<299.131 464.168>
VStem: 242 49<134.458 321.506> 255 58<497.516 595.848> 258 41<384.009 538.13>
LayerCount: 2
Fore
SplineSet
258 496 m 0xc8
 258 529 255 520 255 539 c 0
 255 574 274 614 302 595 c 0
 310 590 313 585 313 567 c 0xd0
 313 525 299 477 299 393 c 2
 299 385 l 1xc8
 301 383 354 381 399 381 c 2
 422 381 l 2
 432 381 442 382 450 382 c 0
 496 382 516 378 516 369 c 0
 516 365 512 361 506 355 c 0
 485 337 391 346 295 322 c 1
 294 312 291 268 291 223 c 0
 290 140 289 136 272 134 c 1
 268 134 l 2
 247 134 242 158 242 244 c 1xe0
 241 322 l 1
 183 317 l 2
 132 313 81 312 70 308 c 0
 63 306 57 304 52 304 c 0
 42 304 36 309 36 316 c 0
 36 324 43 334 57 344 c 0
 95 370 212 355 240 376 c 0
 249 384 258 455 258 496 c 0xc8
91 31 m 0
 73 31 54 35 54 54 c 0
 54 63 60 73 72 77 c 0
 81 80 163 82 258 82 c 2xc8
 279 82 l 1
 434 81 483 79 483 66 c 0
 483 45 434 34 337 34 c 0
 287 34 197 37 196 37 c 0
 159 37 92 31 91 31 c 0
EndSplineSet
EndChar

StartChar: uni00B2
Encoding: 178 178 174
Width: 543
VWidth: 1061
Flags: W
HStem: 269 36<215.295 381.801> 298 41<114.449 190.487> 737 35<283.712 405.84>
VStem: 136 60<644.402 689.165> 409 40<639.47 732.315>
LayerCount: 2
Fore
SplineSet
196 667 m 0x78
 196 653 199 649 199 642 c 0
 199 634 195 632 187 632 c 2
 184 632 l 1
 168 633 136 659 136 671 c 0
 136 681 272 772 365 772 c 0
 366 772 449 770 449 713 c 0
 449 711 449 653 408 562 c 0
 391 524 270 392 248 374 c 0
 226 356 206 337 206 333 c 0
 206 331 221 305 287 305 c 0
 366 305 448 338 492 338 c 0
 503 338 508 336 508 330 c 0
 508 322 347 269 280 269 c 0xb8
 221 269 187 298 162 298 c 0
 136 298 70 245 43 245 c 2
 41 245 l 1
 37 246 36 251 36 257 c 0
 36 268 41 283 51 296 c 0
 63 311 122 339 142 339 c 2
 143 339 l 2
 233 339 409 630 409 709 c 0
 409 734 375 737 361 737 c 0
 327 737 280 723 230 697 c 0
 203 683 196 679 196 667 c 0x78
EndSplineSet
EndChar

StartChar: uni00B3
Encoding: 179 179 175
Width: 476
VWidth: 1061
Flags: W
HStem: 250 35<161.137 245.896> 562 33<303.66 358.155> 729 37<116.222 296.749>
VStem: 259 43<597.512 638.756> 309 49<656.85 715.804> 391 49<400.071 511.384>
LayerCount: 2
Fore
SplineSet
214 729 m 0
 117 729 76 685 54 685 c 0
 48 685 44 689 38 695 c 0
 30 704 32 709 45 720 c 0
 71 743 131 766 200 766 c 0
 262 766 333 751 349 730 c 0
 355 722 358 713 358 704 c 0
 358 670 302 622 302 604 c 0
 302 599 318 595 332 595 c 0
 382 594 440 488 440 444 c 0
 440 418 402 361 374 340 c 0
 342 315 262 266 242 257 c 0
 233 253 209 250 184 250 c 2
 176 250 l 1
 120 251 98 265 98 300 c 0
 98 312 101 332 116 332 c 0
 143 332 160 285 199 285 c 0
 253 285 375 394 388 425 c 0
 390 430 391 437 391 446 c 0
 391 480 378 535 357 547 c 0
 339 557 323 562 306 562 c 0
 256 562 211 515 185 515 c 0
 179 515 168 522 168 530 c 0
 168 550 259 608 259 619 c 0
 259 630 309 670 309 693 c 0
 309 716 256 729 214 729 c 0
EndSplineSet
EndChar

StartChar: mu
Encoding: 181 181 176
Width: 432
Flags: W
HStem: -1 52<132.372 190.034> 302 20G<63.5 73 359 377.5>
VStem: 49 51<-189.362 28 84.7052 222.829 225.172 309.953> 331 46<2.69333 195.889> 337 51<85.0797 165.873 237.131 318.771>
LayerCount: 2
Fore
SplineSet
331 84 m 0xf0
 331 106 337 195 337 196 c 0
 337 197 337 196 336 196 c 0
 334 196 317 171 301 141 c 0
 244 37 184 -1 148 -1 c 0
 135 -1 117 11 101 28 c 1
 100 -30 97 -91 94 -165 c 0
 93 -178 90 -193 76 -195 c 1
 73 -195 l 2
 59 -195 44 -184 44 -171 c 0
 44 -165 50 -107 50 0 c 0
 50 51 51 100 48 152 c 0
 46 175 42 199 42 224 c 0
 42 249 44 274 49 298 c 1
 49 306 l 2
 49 308 50 309 52 310 c 0
 55 318 60 322 67 322 c 0
 79 322 100 304 100 297 c 0
 100 293 99 288 97 279 c 1
 100 221 102 172 102 125 c 1
 113 81 144 65 154 51 c 1
 189 51 307 186 333 278 c 0
 337 293 346 322 372 322 c 0
 383 322 388 311 388 271 c 0xe8
 388 220 377 118 377 83 c 0
 377 60 383 46 383 23 c 0
 383 6 378 -2 368 -2 c 0
 331 -2 331 56 331 84 c 0xf0
EndSplineSet
EndChar

StartChar: periodcentered
Encoding: 183 183 177
Width: 150
Flags: W
HStem: 290 66<52.0483 96.5511>
VStem: 52 56<306.028 350.772>
LayerCount: 2
Fore
SplineSet
45 306 m 0
 45 306 46 344 52 353 c 0
 53 355 56 356 61 356 c 0
 77 356 108 345 108 336 c 0
 108 327 94 305 81 294 c 0
 68 283 68 283 56 290 c 0
 48 295 45 296 45 306 c 0
EndSplineSet
EndChar

StartChar: uni00B9
Encoding: 185 185 178
Width: 299
Flags: W
HStem: 511 47<36.2533 100.922>
VStem: 159 41<321.874 488.086> 206 59<612.205 737.672>
LayerCount: 2
Fore
SplineSet
204 629 m 0
 197 629 105 515 61 511 c 1
 59 511 l 2
 47 511 34 522 34 531 c 0
 34 533 34 534 35 535 c 0
 38 538 57 549 77 558 c 0
 104 570 94 566 117 589 c 0
 169 640 219 715 224 733 c 0
 226 741 238 747 249 747 c 0
 255 747 265 746 265 736 c 0
 265 705 200 406 200 366 c 0
 200 356 202 350 205 341 c 0
 212 322 212 319 199 318 c 0
 190 317 179 320 173 323 c 0
 164 328 159 349 159 374 c 0
 159 391 161 409 166 426 c 0
 166 428 186 536 200 586 c 0
 204 600 206 614 206 622 c 0
 206 625 206 629 204 629 c 0
EndSplineSet
EndChar

StartChar: cent
Encoding: 162 162 179
Width: 363
Flags: W
HStem: -5 39<122.434 276.2> 8 57<249.05 315> 288 44<151.5 231.751>
VStem: 36 53<65.6486 222.758> 152 50<188.679 492> 178 50<-206.799 -6.56024>
LayerCount: 2
Fore
SplineSet
36 125 m 0xb0
 36 239 123 332 180 332 c 0
 194 332 211 327 234 316 c 0
 262 303 270 295 272 279 c 0
 272 276 273 273 273 271 c 0
 273 261 268 259 255 259 c 0
 226 259 217 288 192 288 c 0
 191 288 131 284 107 222 c 0
 95 190 89 162 89 137 c 0
 89 87 111 53 146 38 c 0
 149 37 165 34 185 34 c 0xb0
 256 34 289 65 317 65 c 0
 322 65 327 65 327 56 c 0
 327 42 312 15 276 8 c 0x70
 229 -1 196 -5 172 -5 c 0
 135 -5 116 4 85 22 c 0
 51 41 36 81 36 125 c 0xb0
152 384 m 0x38
 152 474 156 494 172 494 c 2
 180 494 l 1
 202 492 l 1
 202 396 l 2x38
 202 157 228 -26 228 -142 c 0
 228 -181 225 -203 218 -207 c 0
 211 -211 198 -212 191 -210 c 0
 179 -206 178 -190 178 -94 c 2
 178 -72 l 2x34
 178 -34 178 -35 174 -26 c 0
 166 -6 152 255 152 384 c 0x38
EndSplineSet
EndChar

StartChar: yen
Encoding: 165 165 180
Width: 488
Flags: W
HStem: 91 52<53.805 197.485> 126 28<383.481 451.875> 258 52<35.8895 371.544> 266 42<118.903 414.077>
VStem: 197 65<24.5537 357.344> 208 40<2.646 98.6438>
LayerCount: 2
Fore
SplineSet
199 336 m 1x08
 94 612 94 612 94 632 c 0
 94 642 98 643 108 643 c 0
 135 643 147 617 201 446 c 0
 211 414 218 400 224 400 c 0
 226 400 228 402 230 406 c 0
 233 413 274 445 315 524 c 0
 327 547 362 643 390 643 c 0
 403 643 408 636 408 627 c 0
 408 604 379 562 368 538 c 0
 352 504 323 457 315 431 c 1
 254 358 l 1
 257 316 l 2
 260 273 262 233 262 198 c 0x08
 262 98 251 35 248 24 c 0
 245 11 234 2 223 2 c 0
 218 2 213 4 208 8 c 0x04
 202 14 197 133 197 238 c 0
 197 274 198 309 199 336 c 1x08
240 143 m 0x80
 320 143 360 154 415 154 c 2
 426 154 l 1
 442 152 454 142 454 134 c 0
 454 131 452 127 447 126 c 0x40
 333 92 155 107 97 93 c 0
 92 92 87 91 82 91 c 0
 64 91 51 99 51 111 c 0
 51 140 101 146 143 146 c 0
 157 146 239 143 240 143 c 0x80
86 306 m 0
 104 308 191 310 274 310 c 0x20
 328 310 380 309 411 308 c 0
 414 308 416 300 415 291 c 0
 413 276 406 274 327 266 c 0x10
 284 262 208 258 153 258 c 2
 139 258 l 1x20
 47 259 37 261 34 274 c 1
 34 280 l 2
 34 295 47 301 86 306 c 0
EndSplineSet
EndChar

StartChar: section
Encoding: 167 167 181
Width: 420
Flags: W
HStem: 9 34<51.3524 216.206> 23 33<33.0093 152.499> 423 33<177.248 252.866> 651 33<195.248 339.074>
VStem: 101 50<321.759 404.071> 119 50<565.311 632.071> 310 55<107.084 187.307> 328 56<334.04 413.171>
LayerCount: 2
Fore
SplineSet
58 56 m 0x72
 88 56 122 43 154 43 c 0
 163 43 173 43 184 46 c 0
 217 54 240 75 270 94 c 0
 305 117 310 122 310 146 c 0
 310 175 303 179 213 243 c 0
 198 253 185 263 176 270 c 0
 154 286 101 326 101 372 c 0xba
 101 396 119 415 161 437 c 0
 190 452 199 456 225 456 c 0
 233 456 242 455 253 455 c 2
 254 455 l 1
 217 478 119 545 119 600 c 0
 119 624 137 643 179 665 c 0
 208 680 218 684 244 684 c 0
 252 684 261 683 272 683 c 0
 339 680 384 663 384 640 c 0
 384 627 378 620 369 620 c 0
 342 620 355 651 248 651 c 0
 226 651 217 648 197 636 c 0
 178 625 169 614 169 604 c 0
 169 567 265 499 281 488 c 0
 314 465 336 447 352 432 c 0
 361 425 384 406 384 373 c 0xb5
 384 329 359 309 255 265 c 1
 257 263 260 262 262 260 c 0
 342 205 365 180 365 145 c 0
 365 96 335 82 235 36 c 0
 223 31 202 14 172 10 c 0
 167 9 162 9 157 9 c 0xb2
 122 9 80 21 60 23 c 0
 39 25 33 29 33 39 c 0
 33 48 36 56 58 56 c 0x72
310 413 m 1
 292 422 251 423 230 423 c 0
 208 423 199 420 179 408 c 0
 160 397 151 386 151 376 c 0
 151 358 169 298 224 294 c 0
 225 294 225 293 226 293 c 0
 244 293 268 308 288 321 c 0
 323 344 328 349 328 373 c 0x39
 328 389 326 398 310 413 c 1
EndSplineSet
EndChar

StartChar: guillemotleft
Encoding: 171 171 182
Width: 831
Flags: W
HStem: 141 41<723.649 795.051>
VStem: 37 103<298.367 372.72> 349 102<311.238 376.638>
LayerCount: 2
Fore
SplineSet
796 158 m 0
 796 152 780 141 755 141 c 0
 741 141 725 144 707 151 c 0
 655 172 669 166 564 196 c 0
 403 243 349 316 349 338 c 0
 349 364 390 402 544 536 c 0
 636 617 669 641 685 641 c 0
 699 641 706 636 706 627 c 0
 706 602 659 547 577 480 c 0
 493 411 451 373 451 345 c 0
 451 320 509 279 534 272 c 0
 563 264 601 238 633 228 c 0
 702 207 731 205 768 182 c 0
 785 172 796 165 796 158 c 0
459 118 m 0
 459 111 445 105 426 105 c 0
 410 105 391 109 370 120 c 0
 321 146 334 138 233 179 c 0
 81 241 37 318 37 340 c 0
 37 367 81 398 257 520 c 0
 355 588 391 609 408 609 c 2
 410 609 l 1
 423 608 429 603 429 595 c 0
 429 571 375 520 282 460 c 0
 186 398 140 364 140 335 c 0
 140 314 187 269 214 258 c 0
 242 247 274 217 305 204 c 0
 371 176 400 171 434 144 c 0
 449 132 459 124 459 118 c 0
EndSplineSet
EndChar

StartChar: guillemotright
Encoding: 187 187 183
Width: 753
Flags: W
LayerCount: 2
Fore
SplineSet
312 578 m 0
 312 581 313 592 330 592 c 0
 373 592 439 542 635 393 c 0
 681 358 717 328 717 325 c 0
 717 319 673 289 664 289 c 0
 641 289 516 206 461 156 c 0
 417 116 389 96 376 96 c 0
 370 96 366 101 366 110 c 0
 366 143 488 254 607 330 c 0
 613 334 616 336 616 340 c 0
 616 346 606 356 577 380 c 0
 496 448 425 500 375 525 c 0
 334 546 312 564 312 578 c 0
34 575 m 0
 34 578 35 589 52 589 c 0
 95 589 171 532 357 390 c 0
 403 355 439 325 439 322 c 0
 439 316 395 286 386 286 c 0
 363 286 238 203 183 153 c 0
 139 113 111 93 98 93 c 0
 92 93 89 97 89 106 c 0
 89 139 210 251 329 327 c 0
 335 331 338 333 338 337 c 0
 338 343 328 353 299 377 c 0
 218 445 147 496 97 521 c 0
 56 542 34 561 34 575 c 0
EndSplineSet
EndChar

StartChar: currency
Encoding: 164 164 184
Width: 427
Flags: W
HStem: -1 22G<69.5 83.5 267 273.5> 31 35<135.704 197.719> 260 30<174.779 246.159> 302 20G<84 94 364 380>
VStem: 62 49<91.5467 203.137> 65 80<265.27 305.276> 281 37<122.295 226>
LayerCount: 2
Fore
SplineSet
145 265 m 1xf6
 177 288 198 290 217 290 c 2
 222 290 l 2
 244 290 250 288 272 267 c 0
 272 267 308 301 312 301 c 1
 312 301 312 299 313 299 c 0
 314 299 352 322 376 322 c 0
 384 322 390 319 390 314 c 0
 390 309 368 288 340 268 c 0
 315 249 337 266 304 237 c 1
 315 226 l 1
 317 180 l 2
 318 169 318 161 318 154 c 0
 318 131 313 125 291 97 c 0
 282 85 272 75 261 66 c 1
 282 41 293 25 293 16 c 0
 293 6 276 0 271 0 c 0
 263 0 252 8 222 42 c 1
 205 35 185 31 166 31 c 0
 149 31 133 38 117 48 c 1
 107 37 99 27 97 20 c 0
 94 7 88 -1 79 -1 c 0
 60 -1 35 20 35 35 c 0
 35 41 53 59 79 85 c 1
 64 116 62 119 62 138 c 0xfa
 62 169 78 202 107 232 c 1
 94 254 65 262 65 282 c 0
 65 285 66 288 66 293 c 0
 68 313 78 322 90 322 c 0
 98 322 106 319 115 312 c 0
 125 305 120 313 144 267 c 0
 144 266 145 266 145 265 c 1xf6
266 122 m 1
 273 128 281 153 281 175 c 0
 281 178 280 181 280 184 c 0
 279 196 261 231 259 237 c 1
 246 247 218 259 212 260 c 1
 210 260 l 2
 198 260 171 245 153 230 c 1
 145 214 111 201 111 150 c 0
 111 130 116 110 121 96 c 1
 144 74 157 66 174 66 c 2
 179 66 l 1
 186 67 192 68 198 69 c 1
 238 87 266 119 266 122 c 1
EndSplineSet
EndChar

StartChar: logicalnot
Encoding: 172 172 185
Width: 520
Flags: W
HStem: 301 52<42.0712 429.866>
VStem: 429 47<161.626 311.813> 430 37<165.047 270.596>
LayerCount: 2
Fore
SplineSet
78 301 m 0xc0
 73 301 41 302 41 325 c 0
 41 334 47 343 59 347 c 0
 68 350 150 353 245 353 c 2
 266 353 l 1
 430 352 474 349 469 334 c 1
 474 310 476 291 476 272 c 0xc0
 476 242 472 215 467 176 c 0
 465 158 430 153 430 168 c 0xa0
 430 189 429 206 429 222 c 0
 429 253 430 279 431 312 c 1
 407 307 371 304 324 304 c 0
 323 304 217 307 183 307 c 0
 118 307 79 301 78 301 c 0xc0
EndSplineSet
EndChar

StartChar: brokenbar
Encoding: 166 166 186
Width: 162
Flags: W
HStem: 302 20G<47 112.5>
VStem: 41 52<383.516 731> 47 55<113.017 322 380 600.219> 72 51<-88.7993 188.742>
LayerCount: 2
Fore
SplineSet
72 24 m 0x90
 72 176 55 138 47 322 c 13
 102 322 l 17xa0
 123 14 123 14 123 -21 c 0
 123 -63 119 -85 112 -89 c 0
 105 -93 93 -94 86 -92 c 0
 74 -88 72 -72 72 24 c 0x90
100 380 m 1
 46 380 l 1
 43 449 41 521 41 579 c 0
 41 627 42 664 44 682 c 0
 48 727 49 734 62 734 c 2
 71 734 l 1
 93 731 l 1
 93 576 l 2xc0
 93 530 96 455 100 380 c 1
EndSplineSet
EndChar

StartChar: paragraph
Encoding: 182 182 187
Width: 448
Flags: W
HStem: 575 59<246.846 331.859>
VStem: 35 207<385.362 469.871> 216 51<4.74722 245.5> 344 52<2.89462 55 203 418.78>
LayerCount: 2
Fore
SplineSet
267 31 m 0xb0
 267 67 242 398 242 538 c 2
 242 548 l 1
 246 559 294 575 320 575 c 0
 325 575 329 575 332 573 c 0
 338 570 344 345 344 203 c 2
 344 164 l 1
 343 109 343 75 343 55 c 0
 343 9 345 30 354 17 c 0
 362 6 366 1 371 1 c 0
 375 1 405 15 401 32 c 0
 400 34 396 116 396 277 c 0
 396 333 397 352 398 419 c 8
 398 443 399 482 399 482 c 1
 399 548 406 613 406 614 c 0
 406 650 390 652 387 652 c 0
 375 652 362 633 335 633 c 0
 332 633 330 633 327 634 c 1
 322 634 l 2
 297 634 224 612 171 588 c 0
 120 565 35 458 35 416 c 0xd0
 35 344 204 372 204 334 c 0
 204 322 202 338 202 314 c 0
 202 243 216 184 216 102 c 0
 217 19 218 8 231 6 c 0
 243 4 252 -1 258 -1 c 0
 264 -1 267 6 267 31 c 0xb0
EndSplineSet
EndChar

StartChar: eth
Encoding: 240 240 188
Width: 371
Flags: W
HStem: -3 47<139.564 234.091> 308 40<152.243 216.992>
VStem: 35 48<87.1586 226.353> 138 39<568.003 586.5> 266 54<87.4367 302.577>
LayerCount: 2
Fore
SplineSet
99 635 m 0
 99 654 110 655 131 653 c 0
 154 651 177 621 177 597 c 0
 177 587 174 586 174 579 c 0
 174 572 177 568 183 568 c 0
 217 568 285 648 320 648 c 0
 330 648 336 642 336 630 c 0
 336 611 302 582 230 538 c 0
 213 528 207 522 207 512 c 0
 207 496 224 460 258 404 c 0
 304 328 320 272 320 183 c 0
 320 120 277 24 242 6 c 0
 231 0 216 -3 200 -3 c 0
 167 -3 127 8 100 28 c 0
 44 68 35 84 35 141 c 0
 35 209 47 251 78 288 c 0
 104 319 156 348 185 348 c 0
 206 348 217 351 217 362 c 0
 217 384 163 472 155 472 c 0
 143 472 102 425 75 425 c 0
 60 425 60 440 60 440 c 1
 60 457 91 493 123 514 c 0
 134 521 138 526 138 535 c 0
 138 572 99 602 99 635 c 0
266 155 m 0
 266 156 260 288 251 301 c 0
 248 305 237 308 222 308 c 0
 211 308 198 307 185 304 c 0
 115 291 83 185 83 133 c 0
 83 97 102 82 156 58 c 0
 176 49 191 44 202 44 c 0
 221 44 231 57 247 89 c 0
 261 117 266 128 266 155 c 0
EndSplineSet
EndChar

StartChar: sterling
Encoding: 163 163 189
Width: 603
Flags: W
HStem: 0 47<324.898 441.863> 8 75<62.9087 140.566> 295 39<343.685 563.644> 301 55<282.391 457.02> 563 44<314.986 383.159>
VStem: 234 48<358.192 520.357>
LayerCount: 2
Fore
SplineSet
111 374 m 0x4c
 146 374 189 358 208 358 c 0
 231 358 233 374 234 423 c 0
 235 495 263 570 298 591 c 0
 313 600 334 607 346 607 c 2
 347 607 l 1
 376 606 416 584 419 566 c 0
 422 545 461 540 461 521 c 0
 461 516 458 512 449 512 c 0
 431 512 395 529 377 548 c 0
 367 558 357 563 347 563 c 0
 301 563 282 455 282 406 c 2
 282 356 l 1
 309 356 l 2x5c
 349 356 456 334 517 334 c 0
 549 334 562 330 565 322 c 0
 568 315 567 309 564 306 c 0
 557 299 512 295 460 295 c 0x2c
 396 295 359 301 312 301 c 0
 274 301 266 295 262 276 c 0
 253 243 217 154 217 145 c 0
 217 138 339 47 381 47 c 0
 422 47 495 107 523 107 c 0
 531 107 532 100 532 99 c 0
 532 87 509 66 458 30 c 0
 429 10 404 0 378 0 c 0x9c
 308 0 252 67 224 67 c 0
 188 67 182 8 123 8 c 0
 108 8 33 32 33 65 c 0
 33 87 50 88 68 88 c 0
 81 88 96 83 107 83 c 0
 127 83 150 118 159 124 c 0
 173 134 214 266 214 291 c 0
 214 316 87 304 87 352 c 0
 87 367 93 374 111 374 c 0x4c
EndSplineSet
EndChar

StartChar: uF1900
Encoding: 989440 989440 191
Width: 800
Flags: W
HStem: -8 47<318.894 364.455>
VStem: 271 41<39.1737 188.658> 382 69<122.295 202.711> 388 56<346.951 477.846>
LayerCount: 2
Fore
SplineSet
444 398 m 0xd0
 444 384 442 346 416 346 c 0
 394 346 393 364 390 411 c 0
 389 421 388 429 388 437 c 0
 388 463 395 480 413 528 c 0
 440 598 426 590 449 673 c 0
 456 700 460 712 462 735 c 0
 464 754 465 770 482 770 c 0
 504 770 511 757 511 739 c 0
 511 714 500 703 496 642 c 0
 494 615 490 585 486 571 c 0
 476 534 465 459 452 431 c 0
 448 423 444 406 444 398 c 0xd0
430 256 m 0
 446 256 457 246 457 216 c 0
 457 187 451 179 451 173 c 0xe0
 451 164 462 147 462 129 c 0
 467 103 501 36 513 21 c 0
 521 11 529 0 529 -7 c 0
 529 -19 520 -25 512 -25 c 0
 503 -25 495 -21 486 -15 c 0
 464 0 454 17 438 59 c 0
 433 71 427 85 425 90 c 1
 424 89 424 87 423 85 c 0
 415 54 370 -8 331 -8 c 0
 307 -8 285 18 279 31 c 0
 273 44 271 60 271 82 c 0
 271 156 280 173 295 203 c 0
 316 245 327 256 348 256 c 0
 349 256 349 256 350 256 c 0
 355 257 360 257 365 257 c 0
 383 257 410 249 412 248 c 1
 417 253 423 256 430 256 c 0
399 114 m 1
 390 130 382 143 382 176 c 0
 382 181 382 186 383 191 c 1
 378 195 375 202 370 205 c 0
 367 206 364 207 361 208 c 0
 317 198 312 135 312 109 c 0
 312 79 323 39 329 39 c 0
 351 39 369 64 382 86 c 0
 383 92 390 102 399 114 c 1
EndSplineSet
EndChar

StartChar: uF1901
Encoding: 989441 989441 192
Width: 800
Flags: W
HStem: -50 67<327.905 401.706> 107 58<96.0285 235.81 307.57 460.384> 225 61<295 502.29 579.572 709.851> 381 63<88.375 215.722> 395 57<286 505.144> 408 57<595.286 710.181> 637 61<363.49 483.571> 705 87<145.029 192.175> 720 84<645.066 706.102>
VStem: 138 62<709.761 790.526> 219 66<288.813 380.308 453 551.617> 249 59<36.6602 107> 641 77<736.226 797.694>
LayerCount: 2
Fore
SplineSet
109 444 m 0xf268
 119 444 135 438 176 438 c 0
 209 438 210 439 216 446 c 0
 221 451 224 460 224 465 c 0
 224 488 238 551 247 569 c 0
 288 649 382 698 444 698 c 0
 502 698 577 614 580 589 c 2
 595 467 l 1
 601 466 614 465 635 465 c 0
 680 465 711 464 711 436 c 0
 711 420 705 415 697 413 c 0
 689 411 688 410 589 408 c 1
 580 346 586 316 578 278 c 1
 611 284 679 286 680 286 c 0
 688 286 713 285 713 259 c 0
 713 240 694 229 675 229 c 0
 649 229 583 220 568 216 c 1
 564 207 554 180 549 165 c 1
 611 158 612 158 627 156 c 0
 643 154 693 145 693 116 c 0
 693 106 684 91 664 91 c 0
 644 91 573 106 531 106 c 0
 526 106 522 105 520 105 c 0
 519 100 517 91 516 83 c 0
 514 69 508 52 501 41 c 0
 488 22 438 -24 423 -33 c 0
 422 -33 379 -50 367 -50 c 0
 359 -50 320 -44 304 -35 c 0
 281 -21 249 48 249 94 c 0xe658
 249 99 249 103 250 107 c 1
 152 109 142 110 124 113 c 0
 115 115 94 118 94 139 c 0
 94 148 99 168 136 168 c 0
 157 168 181 165 212 165 c 0
 225 165 232 166 236 167 c 0
 236 169 237 172 237 178 c 0
 237 187 236 210 234 220 c 0
 230 224 156 237 128 239 c 0
 115 240 99 241 99 267 c 0
 99 294 127 294 137 294 c 2
 138 294 173 293 213 286 c 0
 219 285 226 284 231 283 c 1
 222 347 222 346 219 381 c 1
 96 381 95 382 82 419 c 1
 82 433 90 444 109 444 c 0xf268
543 462 m 1
 542 471 537 547 522 572 c 0
 504 603 467 636 436 637 c 0
 379 639 286 595 286 457 c 0
 286 456 286 454 286 453 c 0
 289 453 296 452 309 452 c 0xea48
 311 452 464 456 543 462 c 1
516 291 m 2
 516 317 523 317 523 325 c 0
 523 334 522 337 522 355 c 0
 522 358 522 359 526 403 c 1
 517 402 415 396 282 395 c 1
 285 378 285 360 285 336 c 2
 285 325 l 0xea68
 285 309 287 293 288 287 c 0
 291 287 296 286 307 286 c 0
 308 286 388 288 431 288 c 0
 491 288 506 286 516 284 c 1
 516 291 l 2
423 164 m 0
 433 164 433 165 482 165 c 1
 498 208 500 213 503 225 c 1
 485 226 444 227 404 227 c 0
 360 227 345 227 295 225 c 1
 299 179 300 174 303 172 c 0
 310 168 376 164 423 164 c 0
308 109 m 0xe258
 308 83 328 17 351 17 c 0
 358 17 380 26 393 26 c 1
 405 31 444 67 453 81 c 1
 453 90 457 98 461 105 c 1
 448 106 426 107 402 107 c 0
 341 107 319 109 307 111 c 1
 307 110 308 110 308 109 c 0xe258
167 705 m 0xe348
 150 705 138 737 138 757 c 0
 138 765 140 792 170 792 c 0
 181 792 200 788 200 758 c 0
 200 726 179 705 167 705 c 0xe348
641 758 m 0
 641 804 674 804 675 804 c 0
 695 804 718 787 718 764 c 0
 718 754 713 745 703 740 c 0
 699 738 689 731 683 727 c 0
 677 723 671 720 664 720 c 0xe2c8
 645 720 641 741 641 758 c 0
EndSplineSet
EndChar

StartChar: uF1902
Encoding: 989442 989442 193
Width: 800
Flags: W
VStem: 358 89<366.203 415.888>
LayerCount: 2
Fore
SplineSet
620 686 m 0
 620 655 558 580 558 565 c 0
 558 551 538 548 528 528 c 0
 511 494 447 410 447 400 c 0
 447 382 548 279 557 257 c 0
 592 174 674 122 674 86 c 0
 674 76 665 64 653 64 c 0
 624 64 546 167 543 171 c 0
 481 262 440 284 425 316 c 0
 420 326 417 328 412 328 c 0
 400 328 389 318 367 271 c 0
 347 230 309 169 258 94 c 0
 250 82 239 66 234 58 c 0
 225 44 219 41 203 41 c 0
 187 41 173 49 173 62 c 0
 173 78 206 101 223 134 c 0
 224 137 358 345 358 390 c 0
 358 403 345 396 335 419 c 0
 326 442 307 442 241 511 c 0
 227 526 195 557 171 581 c 0
 132 619 126 626 126 644 c 0
 126 658 131 670 144 670 c 0
 164 670 170 667 353 489 c 0
 379 464 404 442 411 438 c 1
 422 447 438 492 447 496 c 1
 458 508 491 558 494 566 c 0
 495 574 555 632 559 645 c 0
 564 660 598 698 610 698 c 0
 617 698 620 691 620 686 c 0
EndSplineSet
EndChar

StartChar: uF1903
Encoding: 989443 989443 194
Width: 800
Flags: W
HStem: 56 42<231.091 319.349> 353 68<18.1326 171> 363 59<6.63147 159.613 224.977 587.67> 370 52<661.704 684.75> 690 52<220.349 379.845>
VStem: 171 51<417.613 628.786> 185 49<98.3523 352.611>
LayerCount: 2
Fore
SplineSet
174 416 m 1x88
 175 415 l 1
 174 416 l 1x88
323 422 m 0xaa
 324 422 360 420 439 420 c 0
 568 420 602 421 607 426 c 0
 607 426 608 428 608 436 c 2
 607 467 l 2
 605 514 600 526 559 572 c 0
 535 599 505 622 470 632 c 0
 461 632 427 647 415 653 c 0
 354 681 332 688 280 688 c 0
 274 688 254 690 240 690 c 0
 229 690 219 690 219 664 c 0
 219 643 223 640 223 561 c 2
 222 468 l 2xac
 222 422 224 417 234 417 c 0
 235 417 l 0
 236 417 295 422 323 422 c 0xaa
386 700 m 1
 375 706 368 708 359 709 c 1
 368 707 377 704 386 700 c 1
592 359 m 1
 570 363 533 363 363 363 c 0
 256 363 245 363 224 355 c 1
 231 342 234 311 234 262 c 0xaa
 234 251 232 136 232 135 c 0
 232 133 231 128 231 122 c 0
 231 111 234 98 255 98 c 0
 256 98 l 0
 275 99 306 112 398 152 c 0
 418 163 459 205 484 216 c 0
 508 226 579 307 582 326 c 0
 583 333 584 339 592 359 c 1
5 388 m 0
 5 421 34 421 43 421 c 0xca
 65 421 132 415 161 415 c 0
 162 415 167 415 171 415 c 0
 179 487 163 644 202 716 c 0
 216 742 270 742 296 742 c 0
 338 742 362 740 375 737 c 0
 397 731 429 711 470 695 c 0
 536 670 551 661 589 621 c 0
 640 568 652 542 659 471 c 0
 661 447 663 428 667 422 c 1x9c
 675 422 692 429 710 430 c 1
 696 466 672 505 672 523 c 0
 672 533 679 542 691 542 c 0
 696 542 713 541 754 481 c 0
 763 468 776 450 782 442 c 0
 790 431 795 419 795 407 c 0
 795 367 754 369 741 356 c 0
 723 338 690 233 650 233 c 0
 639 233 628 242 628 254 c 0
 628 271 665 344 681 363 c 0xac
 682 365 684 366 685 367 c 1
 683 368 678 370 671 370 c 0x9c
 663 370 654 367 653 366 c 2
 653 366 652 365 652 361 c 0
 652 338 630 317 621 296 c 0
 617 286 549 189 500 164 c 0
 460 143 444 118 358 80 c 0
 332 68 243 56 228 56 c 0
 201 56 187 83 186 102 c 0
 185 118 185 142 185 177 c 0
 185 256 185 346 188 353 c 1xca
 138 362 40 360 17 369 c 0
 13 371 5 375 5 388 c 0
EndSplineSet
EndChar

StartChar: uF1904
Encoding: 989444 989444 195
Width: 800
Flags: W
HStem: 176 53<189.353 281.151> 203 56<483.648 569.312> 476 57<231.72 310.447> 510 31<595.057 612.144>
VStem: 633 68<338.613 472.807>
LayerCount: 2
Fore
SplineSet
613 506 m 1x18
 608 509 603 510 599 510 c 0
 598 510 596 510 595 510 c 1
 601 509 607 508 613 506 c 1x18
528 199 m 0
 517 199 514 202 503 203 c 0
 502 203 499 203 499 203 c 2x58
 486 203 453 219 449 233 c 0
 444 238 425 258 396 279 c 1
 384 266 373 246 347 223 c 0
 331 209 289 176 218 176 c 0
 174 176 119 226 108 298 c 0
 108 299 99 347 99 351 c 0
 99 370 105 364 117 395 c 0
 131 433 168 504 247 527 c 0
 258 530 270 533 281 533 c 0xa8
 300 533 308 527 322 517 c 0
 346 501 381 472 406 445 c 0
 408 443 410 441 412 439 c 1
 437 476 437 475 458 494 c 0
 499 530 596 541 598 541 c 0
 615 541 635 534 656 516 c 0
 683 493 692 461 697 404 c 0
 701 367 701 367 701 366 c 0
 701 359 647 272 636 261 c 0
 630 255 636 252 623 241 c 0
 609 229 558 199 528 199 c 0
633 425 m 0
 633 474 603 479 582 479 c 0
 570 479 525 475 491 444 c 0
 474 428 445 371 441 339 c 2
 438 320 l 1
 507 260 509 259 517 259 c 0
 540 259 556 262 582 294 c 0
 607 325 633 370 633 425 c 0
365 373 m 0
 365 413 294 476 274 476 c 0
 255 476 219 450 201 422 c 0
 184 395 167 350 166 334 c 0
 166 334 172 303 174 288 c 0
 178 264 191 229 233 229 c 0xa8
 244 229 250 230 278 248 c 0
 348 293 365 363 365 373 c 0
EndSplineSet
EndChar

StartChar: uF1905
Encoding: 989445 989445 196
Width: 800
Flags: W
HStem: -74 92<358.693 421.56> 71 54<175 391.166>
VStem: 109 69<125.019 321.217 449.082 636.816> 120 55<230.007 623.481> 344 82<-68.9763 5.1913> 623 50<153.146 393.337>
LayerCount: 2
Fore
SplineSet
178 435 m 0xec
 178 432 175 195 175 178 c 0
 175 154 175 135 175 126 c 1
 181 125 193 125 215 125 c 0
 285 125 328 138 377 138 c 0
 393 138 420 142 435 145 c 0
 479 155 575 150 620 153 c 0
 621 156 623 166 623 182 c 0
 623 226 612 263 606 357 c 0
 593 560 561 613 561 650 c 0
 561 662 562 685 585 685 c 0
 604 685 626 685 631 569 c 0
 635 489 643 553 653 397 c 0
 661 270 673 262 673 216 c 0
 673 173 691 143 691 125 c 0
 691 100 667 98 657 97 c 0
 624 94 476 98 341 80 c 0
 296 74 130 71 128 71 c 0
 119 71 112 77 112 86 c 0
 112 90 120 109 120 445 c 0xdc
 120 533 118 562 115 579 c 0
 111 597 109 613 109 624 c 0
 109 649 127 650 130 650 c 0
 140 650 163 645 168 605 c 0
 175 546 178 506 178 435 c 0xec
426 -28 m 0
 426 -63 410 -74 370 -74 c 0
 364 -74 344 -74 344 -50 c 0
 344 -19 365 18 392 18 c 0
 408 18 426 5 426 -28 c 0
376 -42 m 1025
EndSplineSet
EndChar

StartChar: uF1906
Encoding: 989446 989446 197
Width: 800
Flags: W
HStem: 2 70<106 151.861> 191 96<410.467 453.151> 347 69<367.624 421.782>
LayerCount: 2
Fore
SplineSet
141 634 m 0
 141 639 138 644 138 651 c 0
 138 662 146 670 157 670 c 0
 160 670 178 669 194 649 c 0
 216 622 274 570 297 528 c 0
 308 507 381 416 393 416 c 0
 402 416 414 426 425 442 c 0
 454 486 490 493 519 520 c 0
 538 538 588 572 601 575 c 1
 626 593 654 632 679 632 c 0
 683 632 701 631 701 606 c 0
 701 578 628 524 602 508 c 0
 544 472 519 443 504 438 c 1
 476 416 485 412 445 375 c 0
 430 362 413 347 393 347 c 0
 373 347 357 362 346 375 c 0
 236 499 278 473 196 562 c 0
 172 588 141 622 141 634 c 0
700 49 m 0
 700 44 699 21 670 21 c 0
 642 21 603 59 578 87 c 0
 550 118 463 190 449 191 c 0
 428 192 420 197 410 204 c 1
 390 202 328 133 272 98 c 0
 230 72 205 53 184 34 c 0
 176 27 149 2 124 2 c 0
 110 2 99 10 99 23 c 0
 99 37 109 66 125 72 c 1
 142 84 179 118 214 137 c 0
 236 148 287 190 345 247 c 0
 367 269 389 287 413 287 c 0
 421 287 435 285 449 270 c 0
 488 231 700 103 700 49 c 0
EndSplineSet
EndChar

StartChar: uF1907
Encoding: 989447 989447 198
Width: 800
Flags: W
HStem: 584 50<622 643.605>
VStem: 333 53<132.551 344.404>
LayerCount: 2
Fore
SplineSet
326 130 m 0
 326 183 333 328 333 330 c 0
 333 337 332 345 330 348 c 0
 316 363 290 410 278 422 c 1
 262 430 234 478 203 509 c 0
 185 527 156 573 156 598 c 0
 156 613 166 617 173 617 c 0
 182 617 188 611 204 592 c 0
 215 578 237 553 252 537 c 0
 296 490 292 483 327 448 c 0
 360 415 361 394 377 394 c 0
 378 394 l 0
 389 394 428 479 480 531 c 0
 481 532 538 578 551 587 c 0
 574 602 580 634 612 634 c 0
 646 634 644 609 644 608 c 0
 643 598 633 595 622 584 c 0
 622 584 621 584 613 577 c 0
 607 572 508 484 469 425 c 0
 433 371 396 334 386 317 c 1
 380 264 384 104 373 70 c 0
 370 61 363 49 347 49 c 0
 329 49 326 67 326 130 c 0
EndSplineSet
EndChar

